<?xml version="1.0" encoding="utf-8"?>
<!-- Generator: Adobe Illustrator 26.0.2, SVG Export Plug-In . SVG Version: 6.00 Build 0)  -->
<svg version="1.1" id="Livello_1" xmlns="http://www.w3.org/2000/svg" xmlns:xlink="http://www.w3.org/1999/xlink" x="0px" y="0px"
	 viewBox="0 0 317.06 504.02" style="enable-background:new 0 0 317.06 504.02;" xml:space="preserve">
<style type="text/css">
	.st0{fill-rule:evenodd;clip-rule:evenodd;fill:#FFFFFF;}
</style>
<g>
	<g>
		<path class="st0" d="M216.16,68.81c0.61-0.11,0.65,0.36,1.13,0.38c-0.09,2.18-0.36,4.17-0.76,6.05
			C214.99,74.31,215.97,70.4,216.16,68.81z"/>
		<path class="st0" d="M189.71,105.84c0.39,5.94,0.02,14.38-0.38,20.78C187.67,120.87,188.67,111.39,189.71,105.84z"/>
		<path class="st0" d="M193.11,111.13c0.83,0.92,1.09,6.89,0.38,9.45C191.68,118.56,193.28,113.96,193.11,111.13z"/>
		<path class="st0" d="M198.02,111.88c1.25,0.73,0.8,4,0.38,5.29C197.15,116.45,197.6,113.17,198.02,111.88z"/>
		<path class="st0" d="M163.26,140.6c1.74,0.94,0.18,3.89,0.38,5.67C162.29,145.72,162.81,141.73,163.26,140.6z"/>
		<path class="st0" d="M156.46,141.73c0.38,0,0.76,0,1.13,0c-0.19,2.08,0.42,4.95-0.38,6.42
			C155.81,147.17,156.71,143.87,156.46,141.73z"/>
		<path class="st0" d="M167.04,142.11c1.46,1.03,0.72,5.52,0.38,7.18C165.54,148.15,166.34,143.93,167.04,142.11z"/>
		<path class="st0" d="M172.71,152.69c1.07,1.05,1.01,4.89,0.38,6.42C171.49,157.87,172.74,154.7,172.71,152.69z"/>
		<path class="st0" d="M154.19,156.85c1.85,0.76,0.71,3.02,1.13,5.67C153.51,162.06,154.42,158.89,154.19,156.85z"/>
		<path class="st0" d="M239.96,181.79c-0.07,2.41-3.14,3.55-4.91,3.02C235.35,182.47,237.52,181.99,239.96,181.79z"/>
		<path class="st0" d="M232.41,192.75c-1.56,2.51-5.45,4.57-8.69,4.16C226.49,195.4,229.15,193.77,232.41,192.75z"/>
		<path class="st0" d="M130.38,193.12c1.29,1.48,0.9,4.65,1.51,6.8C130.48,198.75,129.5,195.37,130.38,193.12z"/>
		<path class="st0" d="M122.83,195.39c1.07,2.96,1.82,6.24,2.27,9.82C123.74,202.69,122.68,198.19,122.83,195.39z"/>
		<path class="st0" d="M225.23,202.95c-2.31,2.47-6.34,3.24-9.82,4.53C216.73,204.02,221.61,204.12,225.23,202.95z"/>
		<path class="st0" d="M132.65,206.35c1.87,3.41,2.38,8.2,3.02,12.85C133.81,215.96,132.36,210.5,132.65,206.35z"/>
		<path class="st0" d="M216.54,214.28c-3.28,1.53-6.6,4.95-10.58,4.53C208.5,216.8,213.66,213.45,216.54,214.28z"/>
		<path class="st0" d="M207.85,225.24c-2.52,2.9-6.75,6.1-11.34,5.67C199.96,228.69,203.97,227.03,207.85,225.24z"/>
		<path class="st0" d="M200.67,236.58c-2.92,3.63-8.26,4.83-13.23,6.42C190.26,239.26,196.09,238.55,200.67,236.58z"/>
		<path class="st0" d="M191.22,247.91c0.84,1.31-2.71,2.24-4.53,3.02c-2.21,0.96-4.63,2.2-6.42,2.65
			C182.54,250.32,187.48,249.71,191.22,247.91z"/>
		<path class="st0" d="M117.16,266.05c1.63,0.51,1.41,2.88,1.89,4.53C116.96,270.54,117.26,268.09,117.16,266.05z"/>
		<path class="st0" d="M158.35,281.92c0.78,2.64-5.97,4.04-9.82,4.53C151.06,284.21,155.91,284.27,158.35,281.92z"/>
		<path class="st0" d="M135.68,303.84c-1.26,2.14-4.67,2.13-7.18,3.02C130.09,305.05,132.8,304.36,135.68,303.84z"/>
		<path class="st0" d="M83.53,360.14c-4.95,1.93-12.79,0.72-19.65,1.51C68.38,359.09,76.86,360.52,83.53,360.14z"/>
		<path class="st0" d="M51.41,363.92c8.73,11.63,33.51,8.9,51.39,8.31c-3.29,1.69-9.23,2.26-15.11,2.27
			c-10.38,0.02-26.47-0.98-32.5-4.53C53.47,368.95,50.08,365.99,51.41,363.92z"/>
		<path class="st0" d="M101.29,370.72c-4.07,0.86-11.95,1.88-15.87,0.38C90.92,371.41,96.72,370.08,101.29,370.72z"/>
		<path class="st0" d="M48.39,407.37c4.11,0.42,7.01,2.06,11.34,2.27C55.93,410.41,50.92,409.13,48.39,407.37z"/>
		<path class="st0" d="M120.94,416.82c0.38,0,0.76,0,1.13,0c-1.59,2.24-5.06,2.36-7.93,3.02c-16.85,3.88-43.86,4.69-63.1,1.51
			c-1.25-0.21-3.66-0.47-4.16-2.27c1.79-1.92,4.5,0.07,6.42,0.38C74.01,422.76,103.21,423.03,120.94,416.82z"/>
		<path class="st0" d="M122.45,420.22c0.41,0.09,0.26,0.75,0.76,0.76c-20.62,5.86-55.37,7.34-76.71,1.13
			c6.01-0.61,12.2,0.8,18.51,1.51c6.07,0.68,12.42,1.57,18.89,1.51C97.34,425.01,110.95,423.1,122.45,420.22z"/>
		<path class="st0" d="M111.87,420.97c0.43,0.13,0.96,0.67,0.38,0.76c-5.7,1.35-12.15,1.96-18.89,2.27
			C98.43,421.89,106.68,422.96,111.87,420.97z"/>
		<path class="st0" d="M124.34,425.13c-0.56,2.26-3.68,1.7-5.29,1.89c-22.42,2.58-53.54,6.11-73.3-2.27
			c-0.06-0.44,0.08-0.67,0.38-0.76c-0.06-0.44,0.08-0.67,0.38-0.76c18.06,6.76,47.66,6.63,69.15,2.65
			C118.34,425.39,122.37,423.3,124.34,425.13z"/>
		<path class="st0" d="M87.31,424.37c-2.02,0-4.03,0-6.05,0C81.9,423.39,86.75,422.96,87.31,424.37z"/>
		<path class="st0" d="M113.38,424.37c-5.11,2.2-11.69,2.92-18.89,3.02c0.6-2.08,3.04-0.96,4.53-1.13
			C103.52,425.74,108.98,424.86,113.38,424.37z"/>
		<path class="st0" d="M125.47,429.29c-0.34,2.93-4.87,2-7.18,2.27c-22.62,2.58-56.1,4.24-72.93-3.02c0-0.25,0-0.5,0-0.76
			c-0.06-0.44,0.08-0.67,0.38-0.76c20.23,7.88,53.08,5.13,76.33,1.89C122.98,428.78,125,427.27,125.47,429.29z"/>
		<path class="st0" d="M88.07,427.4c-0.36,0.81-4.83,0.93-6.8,0.38C83.59,426.93,85.47,427.44,88.07,427.4z"/>
		<path class="st0" d="M113.76,428.53c0.43,0.13,0.96,0.67,0.38,0.76c-5.96,1.35-12.79,1.82-20.03,1.89
			c2.25-2.25,6.79-0.88,10.58-1.13C108.05,429.82,111.45,429.28,113.76,428.53z"/>
		<path class="st0" d="M44.61,430.8c0.44-0.06,0.67,0.08,0.76,0.38c19.44,8.45,53.69,5.44,77.46,2.65c1.04-0.12,3.48-1.78,4.16,0.38
			c-0.27,1.56-3.08,1.67-4.53,1.89c-2,0.31-4.12,0.3-6.05,0.38c-4.73,3.34-14.92,3.2-21.92,3.02c4.87-2.56,14.06-0.8,20.03-2.27
			c-22.95,0.61-50.91,3.83-69.9-3.78C44.61,432.56,44.61,431.68,44.61,430.8z"/>
		<path class="st0" d="M88.82,430.8c-1.19,1.7-5.5,0.3-7.93,0.76C82.17,429.94,86.32,431.19,88.82,430.8z"/>
		<path class="st0" d="M114.89,433.06c-5.43,2.12-13.44,1.67-20.78,1.89c2.63-2.21,7.53-0.94,11.71-1.13
			C109.05,433.67,112.12,432.9,114.89,433.06z"/>
		<path class="st0" d="M88.82,435.33c-2.52,0-5.04,0-7.56,0C81.84,433.48,88.2,433.67,88.82,435.33z"/>
		<path class="st0" d="M127.74,437.98c-24.84,5.73-59.26,7.33-84.26,0.76c0.52-0.49,0.37-1.64,0.38-2.65c0.34-0.23,0.68-0.46,0.76,0
			c17.74,6.25,41.93,6.1,63.1,3.78C114.88,439.08,121.56,437.31,127.74,437.98z"/>
		<path class="st0" d="M89.2,439.87c-1.43,0.66-7.37,0.58-7.56,0C83.48,439.35,87.39,439.18,89.2,439.87z"/>
		<path class="st0" d="M128.5,441.76c-1.54,2.49-5.37,2.04-7.93,2.27c-8.47,0.77-18.31,0.89-27.58,1.89
			c-15.48,1.67-35.79,0.19-49.88-4.16c0-0.25,0-0.5,0-0.76c-0.06-0.44,0.08-0.67,0.38-0.76c22.21,7.44,53.69,4.83,77.46,1.51
			C123.33,441.42,126.48,439.96,128.5,441.76z"/>
		<path class="st0" d="M116.03,441.38c-3.39,1.38-8.93,1.77-13.98,2.27c-2.46,0.24-5.97,1.24-7.18-0.76
			C101.75,442.43,110.13,441.57,116.03,441.38z"/>
		<path class="st0" d="M80.89,444.02c1.89-0.88,5.41-0.13,7.93-0.38C87.41,444.82,82.83,444.6,80.89,444.02z"/>
		<path class="st0" d="M115.65,445.16c0.43,0.13,0.96,0.67,0.38,0.76c-5.84,1.59-14.17,2.71-21.16,1.89
			C100.7,445.82,109.55,446.87,115.65,445.16z"/>
		<path class="st0" d="M80.89,447.8c3.4,0,6.8,0,10.2,0c0,0.25,0,0.5,0,0.76C87.91,448.08,82.81,449.53,80.89,447.8z"/>
		<path class="st0" d="M91.09,453.09c-1.51,1.19-7.95,1.29-9.45,0C85.1,453.6,88.45,452.17,91.09,453.09z"/>
		<path class="st0" d="M119.05,454.98c-6.59,2.11-14.46,2.92-23.05,3.02c0.87-2.54,3.96-1.36,6.05-1.51
			c5.33-0.39,11.37-1.38,16.25-1.89C118.6,454.67,118.67,454.98,119.05,454.98z"/>
		<path class="st0" d="M91.47,457.63c-2.07,1.38-7.92,0.84-10.58,0.38C83.84,457.51,88.9,457.27,91.47,457.63z"/>
		<path class="st0" d="M117.92,462.54c0.38,0,0.76,0,1.13,0c-5.49,2.45-15.16,2.72-21.92,2.65
			C102.9,463.13,112.08,464.51,117.92,462.54z"/>
		<path class="st0" d="M90.71,464.8c-1.14,1.44-8.19,0.79-8.69,0.38C84.21,464.35,87.9,465.02,90.71,464.8z"/>
		<path class="st0" d="M119.05,466.32c-5.46,0.78-14.29,4.48-20.78,3.02c-2.98-0.67,2.09-0.7,3.02-0.76
			C105.7,468.32,113.42,466.62,119.05,466.32z"/>
		<path class="st0" d="M273.22,155.34c-0.19,3.19-2.85,5.38-4.53,7.93c-5.05,7.67-10.53,15.2-16.25,22.67
			c-7.39,9.66-15.5,19.34-23.8,28.34c-4.13,4.48-6.77,10.42-10.96,15.11c-8.27,9.27-16.18,18.25-24.56,27.58
			c-4.17,4.65-8.75,8.65-12.85,13.23c-1.91,2.13-3.27,4.78-5.29,6.8c-1.76,1.76-4.27,2.78-6.05,4.53c-1.67,1.66-2.5,3.96-4.16,5.67
			c-1.47,1.52-3.54,2.65-5.29,4.16c-1.72,1.48-2.89,3.42-4.53,4.91c-2.23,2.04-5.45,3.42-7.93,5.67
			c-4.69,4.24-9.31,8.75-14.36,12.85c-2.63,2.13-4.86,4.83-7.18,6.42c-1.98,1.37-4.37,1.81-6.42,3.02c-4.76,2.8-8.85,6.75-13.6,9.45
			c-1.6,5.83-4.05,10.81-5.29,17c8.76,2.33,21.19,3.42,20.78,14.74c-0.3,8.21-11.67,12.29-10.58,20.78
			c0.92,7.15,11.75,6.8,17.38,10.58c11.99,8.05,15.47,33.66,19.59,51.5c1.3,5.62,4.16,14.08,1.95,19.91c-1.4,3.7-4.5,5.29-8.31,7.93
			c-3.13,9.11-14.11,10.9-24.94,12.57c-7,1.08-14.28,1.73-20.78,2.17c-17.2,1.15-34.9-1.24-49.12-3.78
			c-5.7-1.02-11.82-1.61-15.11-3.78c-2.11-1.38-2.89-4.53-5.29-7.18c-3.98-4.38-9.18-4.48-10.2-10.58
			c-0.78-4.61,1.65-11.1,3.4-16.63c1.79-5.65,7.48-25.56,9.07-30.61c3.2-10.16,3.21-18.3,11.71-22.29
			c7.44-3.49,17.85-3.38,17.76-13.6c-0.03-3.16-1.42-5.14-2.64-6.8c-1.47-1.99-6.56-4.32-7.56-6.8c-1.13-2.81-0.19-8.66,0.76-10.2
			c2.51-4.07,12.46-6.29,18.94-7.15c8.02-1.07,17.52-1.02,21.65-0.43c2.68-6.89,5.15-13.44,7.78-20.38
			c-12.31-29.71-8.8-71.16-2.64-103.91c2.95-15.73,7.38-31.45,13.6-45.34c3.07-6.85,5.33-14.2,8.69-20.78
			c3.34-6.55,6.45-13.67,10.2-18.89c1.71-2.38,4.18-5.18,7.18-6.05c1.49,12.86,3.75,24.96,4.53,38.54
			c4.42-15.05,5.46-29.62,10.58-42.32c4.92-12.2,10.18-24.28,19.27-33.25c2.45-2.41,5.68-3.94,7.93-6.42
			c4.52-4.96,6.18-12.52,11.71-16.63c0.55-5.33,3.49-9.55,3.02-14.74c5.03-10.28,13.96-17.47,22.67-24.94
			c1.78-1.52,3.29-3.66,4.91-4.91c2.5-1.93,5.64-3.17,8.31-5.29c2.61-2.07,5.22-4.43,8.69-3.78c-1.92,8.28-2.05,18.36-4.16,26.45
			c6.55-9.19,14.67-20.09,21.92-29.85c13.78-3.95,33.44-5.59,49.5-3.78c1.81,14.76,2.71,29.73,1.51,44.59
			c-1.19,14.8-4.1,28.74-6.42,41.19c-0.83,4.44-2.74,10.43-4.53,15.49c-1.77,5-3.39,10.67-5.67,13.98c-1.59,2.31-5.33,4.35-8.69,6.8
			c-6.31,4.62-11.22,7.8-18.14,12.09c-3.32,2.06-6.06,4.88-8.69,6.42c-2.42,1.43-5.62,2.37-8.31,3.78
			c-3.03,1.59-5.02,3.53-7.94,4.53c-0.07,0.31-0.38,0.38-0.38,0.76C246.2,159.81,260.38,158.24,273.22,155.34z M175.35,111.88
			c-0.72,10.49-1.71,23.29-3.02,32.87c-0.27-16.4,0.51-35,3.78-49.12c-0.97-0.32-2.29,2.24-3.78,2.64
			c-3.4,10.83-3.44,25.03-4.91,37.79c-1.03-13.1,0.15-25.63,3.02-35.9c-1.88,0.64-2.63,2.4-4.16,3.4
			c-1.47,9.62-1.78,20.39-3.4,29.85c-0.42-9.99,0.98-20.17,1.89-27.58c-6.47,6.63-6.27,19.93-7.94,31.36c-1.16-5.28,0.32-12.62,0-17
			c-4.62,6.73-2.56,21.25-4.16,29.85c-1.68-6.58-0.27-16.64,0.38-21.92c-5.84,7.11-3.84,23.74-4.16,35.14
			c-2.27-5.29-0.3-14.82-1.51-21.16c-2.8,8.36-1.49,18.5-2.27,28.72c-1.09-3.2,0.6-9.17-1.13-11.71c-1,6.21-2.23,12.81-1.89,19.27
			c-0.55-0.83,0.05-2.82-1.13-3.02c1.13,2.45-1.5,3.56-1.89,5.67c-0.72,3.91,1.88,10.37,2.65,16.25c0.74,5.65,1.87,8.76,1.89,12.47
			c-7.45-19-8.79-44.11-14.74-64.61c-1.72,4.97-0.46,10.59,0.38,15.87c1.72,10.79,3.87,21.37,5.67,32.12
			c0.87,5.22,2.89,10.77,1.51,15.87c-3.57-19.36-7.66-38.19-10.96-57.81c-3.46,4.5-0.65,9.64,0.76,17
			c1.45,7.58,2.14,15.46,3.4,22.29c-4.76-8.84-4.09-23.11-7.93-32.87c-5.34,6.14,2.79,14.25,1.13,22.29
			c-1.95-4.85-2.83-10.77-4.53-15.87c-3.09,7.86,2.78,17.27,2.65,24.56c-1.88-5.8-3.44-11.92-4.16-18.89
			c-3.91,6.84,2.51,17.35,1.51,24.94c-1.62-6.56-2.62-13.76-3.78-20.78c-4.56,7.1,1.46,16.15,0.76,24.56
			c-1.44-5.24-2.06-11.29-3.78-16.25c-3.43,4.88,0.35,12.44,0,17.38c-1.06-3.35-1.41-7.41-2.64-10.58c-2.73,5.18-1.61,11.54-1.13,17
			c-0.84-1.93-0.83-4.71-1.89-6.42c-0.82,7.77-4.39,12.93-6.05,20.03c-2.61,11.16-3.77,29.34-4.91,43.83
			c-0.37,4.66-0.6,10.83-0.38,15.49c0.58,12.45,5.86,21.93,9.07,31.74c0.17-0.97,0.53-1.74,1.13-2.27
			c-2.65-10.95-9.71-19.51-8.69-32.87c2.3,11.05,6.18,20.52,9.82,30.23c0.45-1.19,1.28-2,1.51-3.4
			c-3.53-10.45-8.13-21.84-9.45-33.25c3.92,9.81,6.77,20.69,9.82,31.36c1.52-1,1.76-3.28,2.27-5.29
			c-5.03-11.1-9.24-25.02-10.58-38.54c3.56,12.69,5.96,26.53,11.34,37.41c0.69-2.08,1.47-4.07,2.27-6.05
			c-3.94-6.13-7.8-14.36-7.18-23.81c1.89,8.19,3.31,16.85,7.94,22.29c3.74-6.45-1.62-12.66-1.13-19.65
			c1.3,3.61,2.31,7.51,4.16,10.58c5.94-12.33,10.12-25.94,16.63-38.16c3.26-6.12,6.66-11.84,9.45-18.14
			c2.77-6.25,6.27-11.89,10.2-17.38c3.89-5.42,6.02-11.94,9.45-17.76c3.39-5.75,7.45-11.1,10.96-16.63
			c1.84-2.89,2.76-6.15,4.53-9.07c1.66-2.73,4.06-5.3,6.05-7.93c4.07-5.4,6.7-11.58,10.96-16.63c4.12-4.89,8.78-9.5,12.09-15.11
			c3.74-6.34,8.13-10.11,12.09-15.49c2-2.71,3.35-5.79,5.29-8.31c1.97-2.56,4.53-4.76,6.8-7.18c4.46-4.75,8.35-9.92,12.85-14.74
			c8.86-9.5,17.01-19.81,26.45-28.72c9.5-8.95,18.43-18.19,26.83-28.34c-8.47-0.85-18.71-0.37-26.83,0.38
			c-0.92,0.33-0.68,1.84-1.51,2.27c-0.85-0.15,0.2-2.21-1.51-1.51c-1.72-0.08-0.68,2.59-1.89,3.02c-0.83-0.43,0.37-2.89-1.51-2.27
			c-2.56,0.21-0.92,4.63-2.65,5.67c-1.09-1.26,0.57-4.29-0.76-4.53c-0.47,0.54-1.3,0.72-2.27,0.76c-0.25,3.53,0.29,7.85-1.51,9.82
			c0-3.02,0-6.05,0-9.07c-5.1,1.7-2.11,11.49-4.53,15.87c-0.08-4.49-0.09-8.91,0.76-12.47c-3.48,0.05-3.01,7.31-4.91,10.2
			c-0.52-1.92,0.9-3.87,0-4.91c-4.42,6.18-9.17,13.2-13.6,19.65c-3.78,5.49-4.99,9.32-6.8,17c-0.84,3.56-1.57,7.33-1.89,10.58
			c-0.38,3.86,0.62,8.46-2.27,11.71c0.29-22.38,4.71-42.64,6.42-62.35c0.03,1.29-1.11,1.41-1.89,1.89
			c-4.47,14.55-3.8,34.24-7.18,49.88c-0.8-15.71,2.32-32.66,3.4-46.48c-5.72,6.87-2.78,22.41-7.18,30.61
			c0.13-9.32,2.63-18.28,2.27-26.83c-3.97,3.84-2.19,13.43-5.67,17.76c1.1-4.78,0.82-8.73,1.51-13.6
			c-5.09,1.72-3.31,10.29-6.05,14.36c-0.25-3.76,0.18-6.57-0.38-9.45c-2.86,1.8-0.98,8.34-3.4,10.58c-0.27-2.53,0.39-4.15,0.38-6.42
			c-2.89,0.39-4.95,4.87-6.05,8.31c0.63-0.63,0.3-2.22,0.38-3.4c-6.39,5.26-7.33,9.61-9.82,19.65c-2.55,10.26-6.16,24.92-6.8,35.14
			c-0.82,12.92-0.34,25.67-1.51,37.41c-2.09,1.06-1.05,5.24-2.65,6.8c0.23-25.46,2.51-50.89,5.67-72.17
			c-9.06,18.52-5.76,49.41-8.31,74.44c-2.06-8-1.22-20.36-0.76-30.61c0.6-13.22,1.42-26.54,4.16-35.9
			C175.35,93.86,176.01,102.23,175.35,111.88z M297.4,22.33c-3.27,2.25-7.28,5.19-7.56,8.31c2.18-2.23,5.25-3.57,9.07-4.16
			C298.19,25.32,299.05,22.57,297.4,22.33z M298.16,27.62c-6.4,2.67-12.16,5.97-15.87,11.34c5.53-2.53,9.49-6.63,16.63-7.56
			C298.55,30.25,299.72,27.57,298.16,27.62z M298.91,32.53c-10.28,3.58-18.84,8.87-25.32,16.25c8.57-3.64,16.33-8.11,25.69-10.96
			C299.56,35.66,298.89,34.45,298.91,32.53z M277.75,87.32c-1.03,0.62-3.15,2.12-4.16,1.51c5.35-3.85,13.17-5.22,17-10.58
			c2.09,0.39,7.51-1.58,7.18-6.05c-5.55,2.63-11.32,5.06-17,7.56c2.88-3.8,9.07-4.28,11.71-8.31c3.07,1.65,7.44-2.84,6.05-6.8
			c-1.35,1.04-2.99,1.8-4.91,2.27c0.75-2.4,2.93-3.37,5.29-4.16c0.21-0.82,0.9-3.09,0-3.78c-1.14,0.52-2.92,1.9-4.16,1.13
			c1.08-1.44,2.83-2.21,4.91-2.65c-0.24-1.65,0.49-4.27-0.38-5.29c-0.64,0.28-2.17,1.57-2.65,0.76c1.9-1.25,3.47-2.83,3.4-6.05
			c-0.83-1.26-2.03,1.15-2.65,0c2.34-1.57,3.19-3.95,2.27-7.93c-11.88,3.36-20.87,9.61-30.61,15.11c-0.28,1.25-1.96,3.06-1.51,3.78
			c7.74-3.85,15.1-8.07,24.18-10.58c-10.24,6.89-24.76,9.5-32.12,19.27c7.06-2.14,13.23-5.16,19.65-7.94
			c-7.68,6.55-22.25,8.23-26.07,17.38c4.86-3.58,10.79-6.09,17-8.31c-8.71,5.9-20.13,9.09-26.07,17.76
			c7.93-4.03,16.26-7.67,24.56-11.34c-8.43,7.31-22.37,9.12-29.1,18.14c5.02-0.75,8.33-3.71,12.47-4.53
			c-7.28,4.43-17.32,8.12-20.78,15.11c4.93-2.76,10.85-6.53,16.63-7.18c-4.11,0.63-5.82,2.79-8.69,4.53
			c-6.55,3.97-13.07,5.88-14.74,11.71c4.9-3.03,12.34-5.55,17.38-7.18c-9.98,6.01-23.02,10.99-27.96,20.78
			c3.37-3.3,8.48-4.35,12.85-6.42c4.46-2.12,8.16-5.88,12.85-6.05c-11.67,6.34-25.03,10.99-32.5,21.54
			c8.99-3.6,18.47-8.74,26.45-12.09c-12.24,7.79-29.53,12.54-35.9,24.94c8.8-5.83,19.21-10.18,27.96-13.22
			c-12.91,8.26-31.52,12.82-37.03,27.21c3.61-1.18,6.76-4.82,10.58-4.53c-6.69,3.89-14.32,6.84-17.76,13.98
			c4.21-1.46,7.62-3.72,11.71-5.29c-3.82,4.24-10.81,5.31-14.74,9.45c-6,14.53-16.71,26.37-21.16,41.19
			c4.66-5.04,11.09-8.3,17.76-11.34c-8.04,5.81-19.75,9.97-22.67,19.65c4.32-3.87,9.88-8.51,15.49-9.82
			c-7.92,5.18-18.32,9.9-20.4,19.65c6.52-6.96,15.85-11.1,24.18-16.25c-8.83,8.55-23.49,11.27-27.96,24.18
			c6.39-4.95,13.62-9.05,21.16-12.85c-8.76,7.23-22.97,11.03-26.07,22.67c5.06-5.27,12.15-8.51,18.89-12.09
			c-6.94,6.67-19.71,9.51-22.29,19.27c2.34-2.57,5.87-3.96,9.45-5.29c-4.31,4.26-13.05,6.09-12.85,13.6
			c1.64-1.76,3.99-2.82,6.42-3.78c-3.39,3.03-9.39,5.48-9.07,10.96c0.25-0.51,0.81-0.7,1.51-0.76c-0.51,1.12-1.71,1.57-2.65,2.27
			c-7.9,15.28-13.98,32.37-19.65,49.88c5.63-2.18,9.64-5.98,14.36-9.07c-2.82,0.84-6.7,2.61-9.45,2.27
			c3.75-1.44,8.54-3.77,12.09-4.16c2.17-2.99,5.82-4.51,8.31-7.18c-5.14,1.28-9.64,5.22-15.11,4.91
			c10.42-3.44,21.46-8.26,26.83-15.49c-5.97,3.1-13.41,6.74-21.54,6.42c13.13-3.37,27.16-7.86,33.25-17
			c-6.59,3.61-15.42,7-23.43,7.94c12.73-4.77,26.43-8.58,34.38-18.14c-8.39,3.45-17.81,7.89-26.83,9.45
			c13.03-6.24,29.96-8.59,37.41-20.4c-9.56,4.29-19.69,10.03-30.98,11.34c13.1-3.15,23.02-9.48,34.38-14.36
			c2.11-2.55,4.22-5.1,6.42-7.56c-9.9,3.82-20.07,9.4-30.23,11.71c9.14-2.67,18.27-8.75,26.07-12.47
			c7.15-3.41,12.85-5.9,15.11-12.47c-10.5,5.37-22.89,10.87-34.38,13.98c6.09-3.16,13.06-5.2,19.65-8.31
			c8.44-3.98,19.69-8.33,23.05-16.63c-11.25,5.75-23.21,10.79-35.9,15.11c6.3-3.48,13.19-6.25,20.03-9.82
			c8.95-4.68,20.64-7.61,24.56-16.25c-10.24,3.61-20.04,9.68-30.61,11.71c5.33-2.95,12-4.39,17.76-7.18
			c2.52-1.22,4.79-3.62,7.56-4.91c6.86-3.21,11.83-5.01,14.74-11.34c-9.54,3.81-19.1,7.61-29.09,10.96
			c5.55-3.14,11.72-6.18,17.76-9.07c7.58-3.63,17.13-6.87,21.16-13.23c-9.28,3.19-18.98,7.97-28.72,9.45
			c12.63-6.35,30.94-9.13,37.03-21.54c-9.52,3.83-18.98,9.74-29.47,11.34c12.66-6.1,28.05-9.48,35.9-20.4
			c-6.81,1.88-13.4,5.99-20.4,6.42c8.35-2.99,15.73-6.95,23.43-10.58c0.91-1.36,1.68-2.85,2.64-4.16
			c-6.68,1.01-11.83,5.55-18.14,5.67c5.91-2.9,11.88-5.75,19.27-7.18c0.62-1.89,1.94-3.1,2.64-4.91
			c-17.1,3.23-31.88,6.66-45.34,13.22c-3.91,1.91-6.99,3.46-10.2,5.29c-7.22,4.11-15.19,5.36-21.16,10.2
			c5.38-6.46,14.34-9.01,21.92-13.23c3.01-1.67,5.56-3.71,8.69-5.29c3.08-1.55,5.84-3.5,8.69-5.29
			c11.81-7.4,24.88-12.31,36.27-19.65c-0.26-1.16-0.26-0.73,0-1.89c4.75-1.23,8.24-7.55,12.85-6.42c2.79-2.63,8.26-4.59,8.31-8.69
			c-20.66,14.23-43.55,26.22-66.5,38.16c16.18-10.52,35.18-18.22,50.26-29.85c0.55-0.59,0.79-1.47,1.13-2.27
			c3.43-1.86,6.08-4.5,9.45-6.42c1.22-0.47,0.29,1.22,1.51,0.76c2.35-3.32,7.78-3.55,8.69-8.31c-13.62,7.54-25.2,17.12-40.43,23.05
			c7.4-5.2,16.42-8.77,23.43-14.36c0.83-0.8-0.48-1.12-0.38-2.27c3.67-1.87,6.58-4.51,10.2-6.42c1.03-0.27-0.27,1.78,0.76,1.51
			c2.56-3.36,7.57-4.27,9.07-8.69c-16.05,8.51-32.06,19.08-48.37,26.07c10.46-6.42,21.17-12.59,32.12-18.52c0-0.63,0-1.26,0-1.89
			c4.08-1.59,6.55-4.78,10.58-6.42c0.44,0.56,0.44,0.95,0,1.51c2.68-1.86,7.71-3.37,7.18-7.18c-12.09,6.68-24.7,14.85-37.41,19.65
			c6.98-5.74,15.71-9.73,23.8-14.36c-0.04-0.94-0.71-1.17,0-1.89c3.81-0.98,5.08-4.49,8.69-5.67c0.89,0.12,0.7,1.31,1.89,1.13
			c1.52-2.38,5.09-2.72,5.67-6.05c-15.51,5.78-28.71,15.88-43.45,21.16c4.29-3.83,9.91-5.43,14.74-8.69
			c4.77-3.22,10.24-5.27,15.11-8.31c0.62-0.64,0.82-1.7,1.51-2.27c2.18-1.22,4.23-2.58,6.42-3.78c1.19-0.18,0.86,1.16,2.27,0.76
			c1.76-2.27,5.82-2.24,5.67-6.42c-10.43,4.05-19.58,11.4-29.85,14.36c6.54-4.17,15.63-7.79,20.4-12.47c-0.01,0.5-1.05,0.48-1.13,0
			c2.01-2.15,4.63-3.68,7.56-4.91c0.51,1.65-0.9,1.37-1.13,2.27c2.81-1.22,6.98-3.09,5.67-7.18c-12.44,8.59-27.88,16.2-41.94,21.92
			c10.42-6.59,22.26-11.75,32.87-18.14c0.26-3.01,3.27-3.28,4.91-4.91c1.85,1.41,7.02-1.9,5.29-5.29
			c-6.05,4.91-14.19,7.72-21.54,11.34C275.2,88.79,278.15,88.12,277.75,87.32z M261.88,61.25c2.14-2.9,5.98-6.1,6.8-9.07
			C266.92,55.46,262.73,58.31,261.88,61.25z M235.05,87.7c-2.92,3.68-6.72,6.63-9.45,10.2c-1.93,2.53-3,5.78-4.91,8.31
			c-2.63,3.49-6.45,5.97-9.07,9.45c-2.94,3.91-5.06,8.52-8.31,12.47c-3.11,3.78-6.7,7.39-9.45,11.34c-2.46,3.54-4.38,7.64-6.8,11.34
			c-2.44,3.73-5.74,6.93-7.93,10.58c-1.57,2.61-2.24,5.72-3.78,8.31c-3.82,6.42-8.98,11.86-12.47,18.52
			c-1.69,3.22-2.73,6.94-4.53,10.2c-2.61,4.7-6.14,9.29-9.07,14.36c-2.92,5.05-5.09,10.62-7.93,15.87
			c-2.78,5.13-6.08,9.89-8.69,15.11c-2.66,5.33-4.15,11.35-6.8,17c-5.07,10.82-9.56,22.04-13.98,34.01
			c-4.21,11.39-9.99,21.76-13.6,34.39c-3.18,11.09-6.89,21.51-9.82,32.12c-1.16,4.2-1.28,3.36,0,3.78c4.58,1.51,3.47-3.1,3.78-4.16
			c1.82-6.33,3.55-12.74,5.29-18.89c2.54-8.99,6.54-17.65,9.07-23.43c3.39-7.73,5.7-16.09,8.31-23.81
			c2.82-8.31,7.18-15.23,10.2-22.29c3.6-8.42,5.67-16.77,10.2-24.56c4.45-7.65,7.46-15.59,11.34-23.43
			c3.78-7.65,8.78-14.54,12.47-22.29c3.75-7.87,8.95-14.13,13.23-21.54c1.66-2.87,2.53-6.22,4.16-9.07
			c4.48-7.85,10.7-14.59,15.11-22.67c4.36-7.98,10.24-15.08,15.11-22.67c4.78-7.44,11.31-13.95,16.25-21.54
			c2.39-3.67,5.3-7.33,8.31-10.58c3.23-3.49,5.53-7.24,8.31-10.58c3-3.6,7.2-6.28,10.2-9.82c2.38-2.81,3.89-6.05,6.42-8.69
			c2.43-2.53,5.27-4.65,6.8-7.94C253.33,66.9,243.5,77.08,235.05,87.7z M215.78,119.06c1.7-3.22,5.53-6.3,6.42-9.07
			C220.45,113.15,216.38,116,215.78,119.06z M101.29,316.31c1.28-8.64-4.69-16.09-6.05-24.56
			C95.23,301.96,98.43,308.96,101.29,316.31z M100.16,318.57c-0.5-1.49-1.26-3.39-1.89-5.29c-0.41-1.23-0.95-5.07-1.13-3.02
			c-0.35,3.91,0.48,8.2,1.89,12.09C99.26,320.95,99.92,319.98,100.16,318.57z M78.62,352.58c-4.1,0.27-11.34,1.09-16.25,2.27
			c-3.46,0.83-11.31,3.32-12.47,6.05c-2.05,4.82,2.28,9.19,5.29,10.96c5.86,3.44,19.66,4.91,32.12,4.91
			c11.33,0,23.92-1.21,28.72-6.42c6.91-7.5-1.88-15.92-9.45-15.87c3.73,2.28,8.88,2.82,8.31,7.56c-0.56,4.69-12.35,6.3-19.27,6.8
			c-10.39,0.74-22.78,0.68-29.47,0c-4.48-0.46-12.83-3.19-12.47-7.18c0.42-4.67,17.12-6.82,21.92-7.18
			c3.95-0.3,9.56,0.61,11.71-0.38c0.06-0.61,0.69-1.7,0.69-1.7S81.71,352.37,78.62,352.58z M80.13,357.87
			c1.05,0.34,3.55-0.78,3.4,0.76c-6.29,0.26-12.82,0.28-18.52,1.13c-0.6-0.28,0.09-1.85-1.13-1.51c-1.24,1.53-2.07,3.47-4.16,4.16
			c6.14,2.91,15.56-1.36,21.16,1.51c-2.77,0.25-6.54-0.5-8.69,0.38c4.06,0.22,7.71,0.86,12.09,0.76c0.66-2.61,1.59-4.96,1.89-7.93
			C84.75,357.71,80.16,357.13,80.13,357.87z M111.49,361.27c0.56-1.17-3.08-2.09-5.29-2.65c-2.62-0.65-5.8-1.2-8.31-1.13
			c-0.82,2.08,0.26,6.05-1.13,7.56c3.83-0.45,8.1-0.46,10.96-1.89c-2.22-0.42-5.4,0.11-6.8-1.13c3.41-0.99,7.77-0.07,10.58,0.76
			c-1.66-2.75-7.8-1.01-10.2-3.02C104.88,358.84,109.08,359.83,111.49,361.27z M64.64,379.41c-2.02-0.25-3.52-1.01-5.29-1.51
			C59.33,379.96,63.93,381.62,64.64,379.41z M97.51,383.19c3.74-1.17,8.89-0.94,10.96-3.78
			C104.21,380.06,101.05,381.81,97.51,383.19z M96.76,384.32c1.16,0.27,1.11-0.65,2.27-0.38c0.02,0.52-0.18,0.83-0.38,1.13
			c4.09-0.45,9.61-1.47,9.82-4.53C105.6,382.59,99.1,383.01,96.76,384.32z M64.26,383.19c0.05-2.19-2.87-1.41-4.16-2.27
			C60.37,382.65,63.08,383.58,64.26,383.19z M94.87,382.43c-8.59,1.02-17.52-0.18-25.69-0.76C75.8,384.37,87.55,384.63,94.87,382.43
			z M59.73,385.83c1.06,0.32,1.55,1.22,3.02,1.13c-0.06-0.94,0.59-1.17,0.76-1.89c-1.18-0.46-2.36-0.92-3.4-1.51
			C60.38,384.72,59.45,384.68,59.73,385.83z M89.2,385.83c-0.34-1.13,2.8-0.6,4.16-1.13c0.55,0,3.09,0.14,1.89-0.38
			c-10.08,1.59-20.61-1.67-27.58,0C73.91,385.19,81.6,385.97,89.2,385.83z M66.53,385.83c10.74,2.27,24.51,2.14,35.14,1.13
			c2.08-0.2,4.36-0.59,5.67-2.27c-0.04-0.46-0.11-0.9-0.76-0.76C96.06,389.05,77.73,385.85,66.53,385.83z M96,388.85
			c3.66-0.87,9.16,0.09,10.96-2.65C104.12,387.66,97.95,387.77,96,388.85z M58.59,389.23c1.14,0.53,2.74,0.55,3.02-0.76
			c-0.95-0.31-1.48-1.04-2.65-1.13C58.65,387.78,58.47,388.36,58.59,389.23z M91.84,389.61c2.04-0.32-1.14-0.49-1.89-0.38
			c-7.31-0.78-17.64-2.04-24.94-1.51C72.61,389.62,82.69,390.47,91.84,389.61z M98.65,389.99c0.79,0.21,0.8,0.59,0.38,1.13
			c3.29,0.14,5.52-0.78,8.31-1.13c0-0.63,0-1.26,0-1.89C104.42,388.71,101.6,389.42,98.65,389.99z M83.91,391.5
			c-2.02,0.4,0.05-0.94-1.51-0.76c-6.47,0.21-15.39-2.68-18.52-1.13c6.2,1.61,17.67,3.24,26.83,1.89
			C88.15,390.59,85.52,390.6,83.91,391.5z M55.57,391.88c0.72,0.16,0.95,0.81,1.89,0.76c0.79-0.47,1.42-1.1,1.89-1.89
			C57.77,389.19,56.72,390.97,55.57,391.88z M108.09,391.12c-1.43,0.07-2.2,0.11-3.78,0c-0.23,0.02-0.45,0.06-0.38,0.38
			c0.45,0.06,1.07-0.06,1.13,0.38c-2.23,1.42-5.56,1.74-7.56,3.4c2.52,0.42,6.18-1.77,7.18-0.38c-11.4,4.51-30.36,3.12-42.32-0.38
			c7.11-0.12,14.64,3.16,21.54,0.76c-7.66-0.28-15.19-0.68-20.4-3.4c11.87,2.94,28.88,3.76,40.05-0.38
			c-12.33,2.8-27.97,1.14-40.81-0.76c-5.01,4.67-10.41,11.75-18.14,11.34c0.55-1.65-2.79-3.71-4.16-3.4
			c0.69,2.08,2.93,2.61,4.16,4.16c-1.19-0.18-1,1.02-1.89,1.13c-1.49-0.99-2.5-4.19-4.53-3.4c0.5,2.77,4.17,2.38,4.91,4.91
			c-2.35-0.93-4.39-2.16-6.05-3.78c-0.27,4.68,5.69,3.12,6.8,6.42c-1.83,7.33-3.67,18.24-6.8,29.1c-2.69,9.35-4.3,18.85-6.42,25.69
			c-0.64,2.06-2.38,4.57-2.27,6.05c0.21,2.76,3.54,4.29,4.91,6.05c17.8,4.38,40.08,7.85,62.35,5.29c0.28-1.11,1.42-1.35,2.27-1.89
			c-21.67,2.1-44-0.54-61.21-5.29c0.88-0.12,0.37-1.65,1.13-1.89c14.19,3.25,33.75,6.05,50.63,5.67c2.96-0.07,6.75-0.47,9.07-1.89
			c-15.55,1.04-35.62,1.09-50.26-2.27c-2.57-0.59-7.54-1.6-9.07-3.78C56.8,471.07,76,474.39,96,473.87
			c-0.04-2.06,3.85-0.18,3.78-2.27c-17.56,2.58-40.17,0.6-55.92-3.02c-2.04-0.47-6.6-0.8-4.91-3.78c27.71,6.08,67.23,7.62,94.46,0
			c0.12,0.89,0.6,1.42,0.38,2.65c-9.33,3.14-22.98,1.96-32.87,4.53c11.06-1.61,24.59-0.44,33.25-3.02
			c-0.83,2.35-4.21,1.83-6.42,2.27c-2.6,0.51-5.07,1.62-7.56,1.51c-0.08,1.32-2.7,2.06-3.78,1.13c0.44-0.06,1.07,0.06,1.13-0.38
			c-3.92,0.99-8.29,1.53-11.71,3.02c9.96-1.5,19.77-3.15,28.34-6.05c-0.16,1.65,1.18,1.22,1.51,1.51
			c-4.35,2.96-12.66,1.95-17.38,4.53c9.76,0.55,24.24-2.7,27.96-9.45c-0.48,0.67-2.16,2.09-2.65,1.51
			c-0.56-1.92,3.15-2.57,3.02-5.29c-0.83-0.44-2.01,2.01-3.78,1.89c0.64-2.13,3.05-2.49,3.4-4.91c-0.88-0.61-1.6,2.16-3.78,1.51
			c0.83-1.82,3.18-2.11,3.4-4.53c-0.79-0.77-2.61,2.65-4.16,1.13c1.41-1.24,3.36-1.93,3.78-4.16c-1.92-0.15-3.11,2.42-4.16,1.89
			c0.04-2.85,4.06-1.74,3.4-5.29c-0.89-0.62-3.15,2.63-4.16,1.89c0.08-2.82,3.75-2.04,3.4-5.29c-1.68,0.1-2.86,2.67-4.16,1.89
			c0.35-2.3,3.2-2.09,3.4-4.53c-1.61,0.04-2.62,2.65-4.16,1.51c0.52-1.84,4.37-2.06,3.02-4.53c-0.63-0.6-2.77,2.5-3.78,1.51
			c-1.04-2.43,4.84-1.99,3.02-5.29c-1.6,0.08-3.21,3.18-4.53,1.13c1.01-1.5,3.72-1.32,3.78-3.78c-1.55,0.1-3.02,2.25-4.16,1.51
			c0.26-1.89,4.17-2.12,3.02-4.16c-0.98,0.51-3.17,2.63-3.78,1.13c0.48-1.75,4.28-1.89,3.4-3.78c-0.7-0.92-2.69,2.07-3.78,0.76
			c0.37-1.89,3.16-1.37,3.02-3.78c-1.29-0.01-2.71,1.8-3.78,0.76c0.09-2.18,3.44-1.09,3.02-3.78c-0.93-1.01-3.21,2.19-4.16,0
			c1.24-0.78,3.33-0.7,3.02-3.02c-0.84-1.3-2.26,1.98-3.4,0.38c0.24-1.77,2.57-1.46,2.65-3.4c-1.18-1.3-2.63,1.71-3.78,0.38
			c0.55-1.59,2.81-1.47,3.02-3.4c-0.99-1.01-2.72,1.89-4.16,0.38c0.6-1.92,3.88-1.16,3.4-4.16c-1.66-0.13-2.9,2.12-4.16,1.13
			c0.2-2.32,3.54-1.5,3.4-4.16c-0.89-0.86-3.38,3.03-4.53,0.76c0.7-1.57,3.5-1.04,3.4-3.4c-1.7-1.35-3.77,3.13-5.29,0.76
			c0.72-1.42,2.93-1.35,3.4-3.02c-1.55-0.65-3,1.68-5.29,1.51c-0.14-1.89-1.18-1.31-1.89-3.02c0.57-1.06,1.79-1.48,1.51-3.4
			c-1.54,0.34-2,1.78-3.78,1.89c-0.37-1.6-4.48-0.11-2.65-1.89c-1.19-0.19-1.48,0.82-2.27,0c0.74-0.78,2.1-0.92,2.27-2.27
			c-1.93,0.3-4.24,2.87-5.67,0.38c1.54-0.67,2.8,0.6,3.78-0.76c-2.59,0.04-3.44-0.64-5.67-0.38c1.06-1.02,0.3-0.94,0-2.27
			C107.84,393.57,109.9,391.52,108.09,391.12z M52.55,393.77c1.15,1.07,2.77,1.34,3.78,0C55.17,392.48,53.76,392.62,52.55,393.77z
			 M85.04,396.03c0.13,0.9,6.75,0.03,6.8-0.38C89.78,395.97,86.2,394.13,85.04,396.03z M46.5,396.03c0.36,1.36,2.79,2.65,3.78,1.13
			c-1.34-0.18-1.33-1.69-3.02-1.51C47.17,395.95,46.94,396.1,46.5,396.03z M43.48,397.55c-0.34,0.87,3.28,3,4.53,2.27
			C47.01,398.7,45.52,396.4,43.48,397.55z M36.68,407.75c0.78-1.81-1.16-3.09-2.27-4.16C33.46,405.32,35.64,406.78,36.68,407.75z
			 M35.92,410.77c-0.1-2.42-1.95-3.09-2.64-4.91C32.4,408.05,33.9,410.3,35.92,410.77z M34.41,414.93c0.32-0.82,0.98-1.29,0.76-2.65
			c-1.19-0.45-2.1-1.18-3.02-1.89C31.99,412.81,33.18,413.89,34.41,414.93z M33.65,417.95c1.05-2.08-1.75-2.5-2.65-3.78
			C30.79,416.53,32.15,417.31,33.65,417.95z M32.9,421.35c-0.03-0.66,0.08-1.17,0.38-1.51c-1.17-0.59-1.78-1.74-3.02-2.27
			C30.7,419.26,31.62,420.49,32.9,421.35z M29.12,422.48c1.03,0.85,2.18,1.6,3.02,2.64c-0.27-1.16,0.65-1.11,0.38-2.27
			c-1.34-0.55-2.04-1.74-3.02-2.65C29.06,420.66,29.07,421.55,29.12,422.48z M31.01,429.29c1.43-2.74-1.68-3.39-3.02-4.53
			C27.58,427.67,29.68,428.1,31.01,429.29z M26.85,428.53c0.33,2.19,1.51,3.53,3.02,4.53C31.22,430.4,27.61,430.26,26.85,428.53z
			 M25.34,432.31c0.73,1.66,1.26,3.52,3.4,3.78C29.73,434.11,26.37,432.23,25.34,432.31z M27.61,439.87
			c-0.27-1.16,0.65-1.11,0.38-2.27c-1.63-0.26-1.99-1.79-3.4-2.27C25.02,437.42,25.76,439.19,27.61,439.87z M26.85,442.89
			c-0.26-2.14-2.09-2.7-3.02-4.16C23.57,441.23,25.5,443.23,26.85,442.89z M25.72,447.04c1.35-2.67-1.81-3.26-2.65-4.91
			C22.88,444.85,24.05,446.19,25.72,447.04z M24.96,450.82c0.43-2.7-2.07-2.46-3.02-3.78C22.44,448.81,23.18,450.34,24.96,450.82z
			 M20.81,450.45c0.41,1.99,1.62,3.16,3.02,4.16C25.03,452.18,21.35,452.29,20.81,450.45z M22.7,459.14
			c0.92-2.34-2.29-3.05-3.4-4.53C19.51,457.03,21.06,458.13,22.7,459.14z M21.94,462.16c-0.09-2.43-1.79-3.25-3.4-4.16
			C17.96,459.9,19.92,461.69,21.94,462.16z M21.18,464.43c-0.49-1.65-1.91-2.38-3.02-3.4C18.37,462.83,19.5,465.32,21.18,464.43z
			 M25.72,471.23c-1.15-3.26-5.16-3.66-6.8-6.42C19.87,468.01,23.22,470.83,25.72,471.23z M101.67,473.5c0.91,0.3,2.01,0.03,3.4,0
			c2.89-0.06,8.15-0.69,12.47-1.89C112.31,470.8,103.8,474.2,101.67,473.5z M127.36,482.19c2.02-0.5,3.7-1.34,5.29-2.27
			c-0.12-0.88,0.06-1.45,0.38-1.89C129.57,477.84,129.09,480.64,127.36,482.19z M70.31,484.08c1.77,0.62,5.05-0.27,5.67,1.51
			c-2.56,0.46-7-0.95-8.31,0.76c14.54,2.2,32.67,0.6,45.72-1.89c-8.11-0.77-18.65,2.79-26.83,0.76c6.53-0.83,15.67-1.51,21.92-2.27
			c2.61-0.32,6.79-0.06,6.05-1.51C102.11,484.64,84.94,483.09,70.31,484.08z"/>
		<path class="st0" d="M232.41,150.8c0.7-2.2,4.95-4.11,7.94-5.29C237.9,147.48,234.75,148.73,232.41,150.8z"/>
		<path class="st0" d="M205.58,171.21c-1.75,1.65-3.91,2.89-6.42,3.78C201.18,173.61,202.84,171.87,205.58,171.21z"/>
		<path class="st0" d="M178.37,261.52c-1.01,2.52-6.87,3.46-10.2,4.91C170.19,263.41,175.23,263.41,178.37,261.52z"/>
		<path class="st0" d="M169.3,272.47c-2,2.79-6.56,3.01-9.07,5.29C161.39,275.64,165.71,273.41,169.3,272.47z"/>
		<path class="st0" d="M148.14,292.5c-3.13,1.91-6.09,3.98-10.2,4.91C139.97,295.91,144.32,293.46,148.14,292.5z"/>
		<path class="st0" d="M115.27,366.18c0.88-1.01,1.89-3.78,1.89-3.78s0.4,2.45-0.87,4.52c-1.95,2.59-4.74,2.83-8.17,3.94
			C108.11,370.86,113.24,368.75,115.27,366.18z"/>
		<path class="st0" d="M109.98,402.08c-0.88,0.63-2.04,0.99-3.4,1.13c0.77,1.19,3.55-1.35,3.78,0.38c-0.3,1.47-1.51-0.46-0.38,1.51
			c-14.95,6.17-40.48,6.26-56.3,0.76c12.21,2.86,32.92,4.57,47.23,1.13c-13.83,0.76-33.51,2.55-45.72-2.27
			c1.67-1.28,3.4,0.61,5.29,0.38c-1.15-0.74-2.97-0.8-4.16-1.51c4.02-0.37,8.45,2.13,13.98,1.51c-4.22-0.69-7.97-1.85-12.09-2.65
			c6.06-0.74,16.39,3.9,24.56,1.13c8.03,1.81,18.55-3.97,26.45-2.27C109.39,401.66,109.56,402,109.98,402.08z M88.07,405.1
			c7.03-0.02,12.68-1.42,18.14-3.02C100.12,403.05,93.84,403.83,88.07,405.1z M68.42,405.86c-8.43-0.58,4.86,1.08,6.05,1.13
			c8.39,0.37,14.79,0.25,19.65-1.13C85.98,406.76,76.28,406.4,68.42,405.86z"/>
		<path class="st0" d="M48.77,409.26c-0.3-0.67,3.22,0.94,4.16,1.51c0.59-0.16,0.32-1.19,1.51-0.76
			c13.74,1.66,28.11,3.72,41.94,1.89c7.49-0.99,14.57-5.78,20.78-3.02c-14.99,7.44-41.84,4.66-60.46,2.65
			c17.32,6.24,44.24,3.86,61.59-1.13c0.62,1.77,1.34,3.45,2.65,4.53c-8.31,1.76-16.2,3.95-26.07,4.16
			c5.92,1.13,11.7-1.15,17.38-1.51c-4.64,2.56-13.14,3.22-19.27,3.02c0.09-0.67,0.65-0.86,1.51-0.76
			c-3.56-0.91-8.79-0.23-12.09,0.38c1.02,0.87,3.64,0.13,5.29,0.38c-1.74,1.99-5.68-0.56-7.93,0.76c0.09-0.66,0.65-0.86,1.51-0.76
			c-10.42-1.58-26.13-0.82-33.63-4.16c5.17-0.4,10.85,1.55,17,1.89c18.61,1.04,40.28,0.68,55.17-4.16
			c-12.31,2.65-29.74,4.14-46.1,3.4c-5.7-0.26-11.36-0.29-16.63-1.13c-3.18-0.51-6.87-0.58-9.07-2.65
			c21.63,2.3,52.46,6.22,69.9-2.27c-19.08,6.96-50.48,4.17-69.53,1.51C46.69,411.37,50.96,410.44,48.77,409.26z"/>
		<path class="st0" d="M105.82,396.79c-0.66,0.97-2.49,0.79-3.78,1.13c0.15,0.82-0.76,2.05-2.64,1.89c2.17,0.78,4.8-1.24,7.56-1.13
			c-11.82,5.88-32.74,5.28-46.48,1.51c10.64,0.71,24.46,3.77,35.9,0.76c-1.97-0.95-4.75,0.53-7.56,0c0.92-1.22,3.29-0.99,5.29-1.13
			c-10.48,0.19-25.33,1.14-33.63-3.02C74.05,400.84,93.02,399.12,105.82,396.79z"/>
		<path class="st0" d="M42.72,443.27c18.66,4.94,42.08,8.13,65.37,6.05c-2.56-1.17-5.58,0.46-8.69,0c9.52-0.97,21.5-3.72,29.85-3.4
			c-0.05,2.65-3.68,2.01-5.29,2.27c-7.66,1.22-15.47,3.27-25.32,3.4c-19.64,0.25-41.42-0.41-56.3-5.67
			C42.16,444.72,43.02,444.58,42.72,443.27z"/>
		<path class="st0" d="M99.4,454.6c-0.5-1.26-4.25,0.72-4.16-1.13c6.53-1.78,15.88-0.75,21.92-3.02c0.11,1-0.52,1.24-1.51,1.13
			c4.41,0.5,9.46-1.63,14.36-1.89c-0.12,0.88,0.06,1.45,0.38,1.89c-26.38,5.8-64.13,7.16-89.17-0.76c0.63-0.5,0.13-2.14,0.76-2.64
			C58.42,453.01,77.65,455.07,99.4,454.6z"/>
		<path class="st0" d="M131.14,454.22c-0.12,0.88,0.06,1.45,0.38,1.89c-9.24,3.21-20.48,2.62-31.74,4.16
			c5.95,0.91,12.81-0.54,18.51-1.13c-1.13,1.38-3.62,1.42-6.05,1.51c6.65,0.73,13.08-2.03,19.27-3.02c0.89,0.37,0.34,2.18,1.13,2.65
			c-28,4.51-67.37,6.32-92.58-1.89c-0.22-1.23,0.26-1.76,0.38-2.64c19.12,6.57,46.34,8.74,70.66,5.67
			c-4.18-1.12-10.08,1.22-13.98,0.38c0.06-0.83,0.95-0.81,1.89-0.76c-7.51-1.78-10,2.09-17.38,0.38c1.14-0.87,3.9-0.13,5.67-0.38
			c-17.7-0.06-33.5-2.02-46.48-6.8c0-0.5,0-1.01,0-1.51C65.04,460.89,105.49,460.98,131.14,454.22z"/>
		<path class="st0" d="M39.32,461.78c0.41-2.54,3.41-0.97,4.53-0.76c11.97,2.31,26,5.59,41.19,5.67
			c12.88,0.07,25.77-0.94,37.41-3.02c3.51-0.63,7.21-2.58,10.58-1.13c-1.33,2.31-5.44,1.84-8.31,2.27
			c-14.88,2.23-29.98,5.11-47.23,4.16c-9.6-0.53-19.81-2.3-29.85-4.16c-1.42-0.26-3.12-0.76-4.53-1.13
			C41.91,463.35,39.44,463.71,39.32,461.78z"/>
	</g>
</g>
</svg>
