<?xml version="1.0" encoding="utf-8"?>
<!-- Generator: Adobe Illustrator 21.0.0, SVG Export Plug-In . SVG Version: 6.00 Build 0)  -->
<svg version="1.1" id="Livello_1" xmlns="http://www.w3.org/2000/svg" xmlns:xlink="http://www.w3.org/1999/xlink" x="0px" y="0px"
	 viewBox="0 0 438 628" style="enable-background:new 0 0 438 628;" xml:space="preserve">
<style type="text/css">
	.st0{fill:#FFFFFF;}
</style>
<g>
	<path class="st0" d="M161.5,149.6c12.6-17.7,30.5-31.4,50.9-38.9c21.3-7.9,45.1-8.7,66.9-2.5c21,5.9,40.1,18.4,54,35.3
		c3.2,3.9,6.2,8,8.8,12.3c-0.7,0.6-1.3,1.3-1.8,2c0,0,0,0,0,0c-11-18.2-27.5-32.8-46.8-41.6c-20.1-9.2-43-11.7-64.7-7.3
		c-21,4.3-40.4,15-55.2,30.5c-14.8,15.4-24.7,35.3-28,56.4c-0.9,5.5-1.3,11.1-1.3,16.6c0.1,21.9,6.8,43.3,19.5,61.1
		c12.3,17.3,29.8,30.8,49.8,38.1c20.8,7.6,43.9,8.5,65.2,2.4c20.5-5.8,39-18,52.6-34.4c7.2-8.7,12.9-18.5,17-29c0.5,1,1,2,1.6,2.9
		c-2.1,5.1-4.6,10-7.4,14.8c-11.3,18.6-28.2,33.7-48,42.7c-20.6,9.3-44,11.9-66.1,7.5c-21.5-4.3-41.5-15.4-56.7-31.2
		c-15.2-15.9-25.4-36.4-28.8-58.2c-0.9-5.5-1.3-11.1-1.3-16.7C141.6,189.9,148.5,167.8,161.5,149.6z"/>
	<path class="st0" d="M228.7,84.3c41.4,0.1,80.7,20.5,104.6,54.3c6.6,9.3,11.8,19.4,15.7,30.1c0.5,1.4-1.8,2.4-2.4,1
		c-13.7-28.6-43.6-46.4-75.3-44.5c-29,1.8-55.2,20.3-66.6,47c-11.7,27.2-6.5,59.7,13,81.9c19.5,22.2,50.6,31.6,79.1,23.8
		c28.1-7.7,50-31.2,55.7-59.7c0.7-3.7,1.2-7.3,1.4-11.1c0.1-1.7,2.6-1.7,2.6,0c0.8,20.6-3.3,41.1-12.1,59.8
		c-8.3,17.5-20.6,33.1-35.7,45.3c-15.3,12.3-33.4,21-52.6,25.2c-19.8,4.3-40.7,3.9-60.3-1.3c-18.8-5-36.4-14.4-51.1-27.2
		c-14.6-12.7-26.3-28.8-33.9-46.6c-7.9-18.7-11.3-39.2-9.8-59.4c1.5-19.8,7.5-39.1,17.7-56.1c9.9-16.6,23.6-30.8,39.7-41.4
		c16.5-10.8,35.4-17.7,55-20.1C218.5,84.6,223.6,84.3,228.7,84.3c1.7,0,1.7,2.6,0,2.6C189.5,87,152,105.7,128.4,137
		c-23.7,31.5-31.1,73.3-19.9,111.1c10.9,36.7,39.1,67.2,74.8,81c36.8,14.2,79.2,10.1,112.5-11.1c32.6-20.7,54.3-56.3,57.7-94.8
		c0.5-5.4,0.6-10.8,0.4-16.2c0.9,0,1.8,0,2.6,0c-1.7,30.3-20.7,57.8-48.7,69.7c-28,12-61.2,6.8-84.3-13.2c-23.1-20-33-52.4-24.9-82
		c7.9-28.8,32-51.6,61.3-57.6c31.8-6.5,65,7.1,83.1,34c2.2,3.3,4.1,6.7,5.8,10.3c-0.8,0.3-1.6,0.7-2.4,1
		c-13.7-37.4-45.2-66.8-83.5-77.7c-11.2-3.2-22.7-4.7-34.3-4.7C227,86.9,227,84.3,228.7,84.3z"/>
	<g>
		<g>
			<g>
				<path class="st0" d="M117.8,230c1.6-0.2,2.8-1.7,2.6-3.3c-0.2-1.6-1.7-2.7-3.3-2.6c-1.6,0.2-2.8,1.6-2.6,3.3
					C114.7,229.1,116.2,230.2,117.8,230z"/>
			</g>
			<g>
				<path class="st0" d="M121.8,247.3c1.6-0.5,2.5-2.1,2-3.6c-0.4-1.5-2.1-2.4-3.6-2.1c-1.6,0.4-2.5,2-2.1,3.6
					C118.6,246.9,120.2,247.8,121.8,247.3z"/>
			</g>
			<g>
				<path class="st0" d="M128.3,263.8c1.5-0.7,2.1-2.5,1.5-3.9c-0.7-1.4-2.4-2.1-3.9-1.5c-1.5,0.6-2.2,2.4-1.5,3.9
					C125,263.9,126.8,264.5,128.3,263.8z"/>
			</g>
			<g>
				<path class="st0" d="M137.2,279.2c0.7-0.5,1.1-1.1,1.2-1.9c0.2-0.7,0-1.5-0.4-2.2c-0.9-1.3-2.7-1.7-4.1-0.9
					c-1.4,0.8-1.8,2.7-0.9,4.1c0.5,0.7,1.1,1.2,1.9,1.3C135.7,279.8,136.5,279.6,137.2,279.2z"/>
			</g>
			<g>
				<path class="st0" d="M148.2,293c1.2-1.1,1.3-2.9,0.2-4.2c-1-1.2-2.9-1.3-4.2-0.3c-1.3,1-1.4,2.9-0.3,4.2
					C145.1,294.1,147,294.1,148.2,293z"/>
			</g>
			<g>
				<path class="st0" d="M161.2,305.1c0.5-0.6,0.7-1.4,0.6-2.2c0-0.4-0.1-0.7-0.3-1.1c-0.2-0.3-0.4-0.7-0.7-0.9
					c-1.2-1-3.1-0.9-4.1,0.3c-1.1,1.2-0.9,3.1,0.3,4.2c0.3,0.3,0.7,0.5,1,0.6c0.4,0.1,0.8,0.1,1.2,0.1
					C160,306.1,160.7,305.7,161.2,305.1z"/>
			</g>
			<g>
				<path class="st0" d="M175.9,315.1c0.8-1.4,0.3-3.2-1-4c-1.3-0.9-3.1-0.4-4,0.9c-0.9,1.4-0.5,3.2,0.9,4.1
					C173.2,317,175.1,316.5,175.9,315.1z"/>
			</g>
			<g>
				<path class="st0" d="M191.9,322.8c0.6-1.5-0.1-3.2-1.6-3.8c-1.4-0.6-3.2,0-3.8,1.5c-0.7,1.5,0,3.3,1.5,3.9
					C189.6,325.1,191.3,324.3,191.9,322.8z"/>
			</g>
			<g>
				<path class="st0" d="M208.9,328c0.4-1.6-0.6-3.2-2.2-3.5c-1.5-0.4-3.1,0.5-3.6,2.1c-0.4,1.6,0.5,3.2,2.1,3.7
					C206.9,330.6,208.5,329.6,208.9,328z"/>
			</g>
			<g>
				<path class="st0" d="M226.4,330.7c0.1-1.6-1.1-3-2.7-3.2c-1.6-0.2-3,1-3.2,2.6c-0.2,1.6,1,3.1,2.6,3.3
					C224.8,333.5,226.3,332.3,226.4,330.7z"/>
			</g>
			<g>
				<path class="st0" d="M244.2,330.7c-0.1-1.6-1.5-2.8-3.1-2.7c-1.6,0-2.8,1.4-2.8,3c0,1.6,1.4,2.9,3.1,2.9
					C243,333.7,244.3,332.3,244.2,330.7z"/>
			</g>
			<g>
				<path class="st0" d="M261.7,328c-0.4-1.6-1.9-2.6-3.5-2.3c-1.6,0.3-2.6,1.8-2.3,3.4c0.3,1.6,1.8,2.7,3.5,2.4
					C261,331.3,262.1,329.6,261.7,328z"/>
			</g>
			<g>
				<path class="st0" d="M278.7,322.8c-0.6-1.5-2.3-2.3-3.8-1.7c-1.5,0.5-2.3,2.2-1.8,3.7s2.2,2.4,3.8,1.8
					C278.5,326.1,279.3,324.3,278.7,322.8z"/>
			</g>
			<g>
				<path class="st0" d="M294.6,315.1c-0.8-1.4-2.6-1.9-4-1.1c-1.4,0.7-2,2.5-1.2,4c0.7,1.5,2.6,2,4,1.2
					C295,318.3,295.5,316.5,294.6,315.1z"/>
			</g>
			<g>
				<path class="st0" d="M294.6,109.4c-0.8,1.4-0.3,3.2,1,4c1.3,0.9,3.1,0.4,4-0.9c0.9-1.4,0.5-3.2-0.9-4.1
					C297.3,107.5,295.5,108,294.6,109.4z"/>
			</g>
			<g>
				<path class="st0" d="M278.7,101.7c-0.6,1.5,0.1,3.2,1.6,3.8c1.4,0.6,3.2,0,3.8-1.5c0.7-1.5,0-3.3-1.5-3.9
					C281,99.5,279.3,100.2,278.7,101.7z"/>
			</g>
			<g>
				<path class="st0" d="M261.7,96.5c-0.4,1.6,0.6,3.2,2.2,3.5c1.5,0.4,3.1-0.5,3.6-2.1c0.4-1.6-0.5-3.2-2.1-3.7
					C263.7,93.9,262.1,94.9,261.7,96.5z"/>
			</g>
			<g>
				<path class="st0" d="M244.2,93.9c-0.1,1.6,1.1,3,2.7,3.2c1.6,0.2,3-1,3.2-2.6c0.2-1.6-1-3.1-2.6-3.3
					C245.7,91,244.3,92.2,244.2,93.9z"/>
			</g>
			<g>
				<path class="st0" d="M226.4,93.9c0.1,1.6,1.5,2.8,3.1,2.7c1.6,0,2.8-1.4,2.8-3c0-1.6-1.4-2.9-3.1-2.9
					C227.5,90.8,226.3,92.3,226.4,93.9z"/>
			</g>
			<g>
				<path class="st0" d="M208.9,96.5c0.4,1.6,1.9,2.6,3.5,2.3c1.6-0.3,2.6-1.8,2.3-3.4c-0.3-1.6-1.8-2.7-3.5-2.4
					C209.5,93.3,208.5,94.9,208.9,96.5z"/>
			</g>
			<g>
				<path class="st0" d="M191.9,101.7c0.6,1.5,2.3,2.3,3.8,1.7c1.5-0.5,2.3-2.2,1.8-3.7c-0.5-1.6-2.2-2.4-3.8-1.8
					C192.1,98.5,191.3,100.2,191.9,101.7z"/>
			</g>
			<g>
				<path class="st0" d="M175.9,109.4c0.8,1.4,2.6,1.9,4,1.1c1.4-0.7,2-2.5,1.2-4c-0.7-1.5-2.6-2-4-1.2
					C175.6,106.2,175.1,108,175.9,109.4z"/>
			</g>
			<g>
				<path class="st0" d="M161.2,119.4c1,1.3,2.9,1.5,4.1,0.5c0.6-0.5,1-1.2,1.1-1.9c0.1-0.7-0.1-1.5-0.5-2.2
					c-0.5-0.7-1.2-1.1-1.9-1.2c-0.8-0.1-1.6,0-2.2,0.6C160.5,116.3,160.2,118.2,161.2,119.4z"/>
			</g>
			<g>
				<path class="st0" d="M148.2,131.5c1.2,1.1,3.1,1.1,4.2-0.1c1.1-1.2,1.1-3,0-4.2c-1.1-1.2-3.1-1.2-4.2,0
					C147,128.5,147,130.4,148.2,131.5z"/>
			</g>
			<g>
				<path class="st0" d="M137.2,145.4c1.4,0.9,3.2,0.6,4.1-0.7c0.5-0.6,0.6-1.4,0.5-2.2c-0.1-0.7-0.5-1.4-1.1-1.9
					c-0.6-0.5-1.4-0.7-2.2-0.6c-0.7,0.1-1.5,0.5-1.9,1.2C135.5,142.6,135.8,144.5,137.2,145.4z"/>
			</g>
			<g>
				<path class="st0" d="M128.3,160.7c1.5,0.7,3.3,0.1,4-1.3c0.7-1.4,0.1-3.2-1.3-4c-1.4-0.8-3.2-0.2-4,1.3
					C126.2,158.2,126.8,160,128.3,160.7z"/>
			</g>
			<g>
				<path class="st0" d="M121.8,177.3c1.5,0.5,3.2-0.4,3.7-1.9c0.5-1.5-0.3-3.2-1.9-3.7c-1.5-0.6-3.2,0.3-3.8,1.9
					C119.4,175.1,120.2,176.8,121.8,177.3z"/>
			</g>
			<g>
				<path class="st0" d="M117.8,194.6c1.6,0.2,3.1-0.8,3.4-2.4c0.3-1.6-0.8-3.1-2.4-3.4c-1.6-0.3-3.1,0.7-3.4,2.4
					C115.1,192.8,116.2,194.3,117.8,194.6z"/>
			</g>
			<g>
				<path class="st0" d="M116.5,212.3c1.6,0,3-1.3,3-2.9c0-1.6-1.3-2.9-2.9-3c-1.6-0.1-3,1.2-3,2.9
					C113.6,210.9,114.9,212.3,116.5,212.3z"/>
			</g>
		</g>
		<path class="st0" d="M342.4,158.6c1-14.4,2-28.8,3-43.1c0.1-2,0.3-4,0.4-6c0.4,0.4,0.9,0.9,1.3,1.3c-12.1,0.4-24.2,0.8-36.4,1.2
			c-1.7,0.1-3.4,0.1-5.2,0.2c-0.6,0-1.1-0.4-1.3-1c-5.1-12.8-10.2-25.5-15.3-38.3c-0.7-1.8-1.5-3.7-2.2-5.5c0.6,0.3,1.3,0.5,1.9,0.8
			c-11.3,5.4-22.6,10.7-33.8,16.1c-1.6,0.8-3.2,1.5-4.8,2.3c-0.6,0.3-1.1,0.2-1.6-0.2c-10-8.6-20-17.3-30-25.9
			c-1.4-1.2-2.8-2.4-4.2-3.6c0.7-0.1,1.4-0.2,2.1-0.3c-7.6,10.4-15.1,20.8-22.7,31.2c-1.1,1.5-2.2,3-3.3,4.5
			c-0.4,0.5-0.9,0.7-1.5,0.6c-13.8-2.8-27.7-5.6-41.5-8.5c-2-0.4-3.9-0.8-5.9-1.2c0.6-0.4,1.1-0.8,1.7-1.3
			c-1.4,12.4-2.8,24.9-4.2,37.3c-0.2,1.8-0.4,3.6-0.6,5.4c-0.1,0.6-0.4,1.1-1,1.3c-13,3.1-25.9,6.1-38.9,9.2
			c-1.9,0.4-3.8,0.9-5.7,1.3c0.3-0.5,0.6-1.1,0.9-1.6c4.3,11.9,8.6,23.8,12.8,35.7c0.6,1.7,1.2,3.4,1.8,5.1c0.1,0.4,0,1-0.3,1.3
			c-10.1,8.4-20.3,16.8-30.4,25.2c-1.4,1.2-2.8,2.4-4.3,3.5c0-0.6,0-1.2,0-1.9c9,8.7,18,17.3,27,26c1.3,1.2,2.6,2.5,3.9,3.7
			c0.3,0.3,0.5,0.8,0.3,1.3c-4.5,13.4-9,26.8-13.5,40.2c-0.6,1.9-1.3,3.8-1.9,5.7c-0.3-0.5-0.6-1.1-0.9-1.6c11.9,3,23.9,6,35.8,9
			c1.7,0.4,3.4,0.9,5.1,1.3c0.4,0.1,0.8,0.5,0.9,0.9c2.4,14.1,4.9,28.2,7.3,42.3c0.3,2,0.7,4,1,6c-0.5-0.3-1.1-0.6-1.6-0.9
			c12.4-2.7,24.8-5.4,37.2-8.1c1.8-0.4,3.6-0.8,5.3-1.2c0.6-0.1,1.1,0.1,1.5,0.6c8.5,11,16.9,21.9,25.4,32.9
			c1.2,1.6,2.4,3.1,3.6,4.7c-0.7-0.1-1.4-0.2-2.1-0.3c9.4-8.4,18.9-16.8,28.3-25.2c1.4-1.2,2.7-2.4,4.1-3.6c0.5-0.4,1-0.5,1.6-0.2
			c12.6,5.8,25.2,11.6,37.8,17.4c1.8,0.8,3.6,1.7,5.4,2.5c-0.6,0.3-1.3,0.5-1.9,0.8c3.6-11.4,7.3-22.9,10.9-34.3
			c0.5-1.6,1-3.2,1.5-4.8c0.2-0.5,0.7-1,1.3-1c12.9,0.5,25.9,1,38.8,1.5c1.9,0.1,3.7,0.1,5.6,0.2c-0.4,0.4-0.9,0.9-1.3,1.3
			c-0.8-13.2-1.7-26.3-2.5-39.5c-0.1-1.8-0.2-3.7-0.4-5.5c0-0.4,0.3-0.9,0.7-1.1c11.9-5.7,23.7-11.5,35.6-17.2
			c1.7-0.8,3.3-1.6,5-2.4c-0.2,0.6-0.3,1.2-0.5,1.8c-6.6-10.9-13.2-21.8-19.8-32.7c-0.9-1.5-1.9-3.1-2.8-4.6
			c-0.9-1.5,1.4-2.8,2.3-1.3c6.6,10.9,13.2,21.8,19.8,32.7c0.9,1.5,1.9,3.1,2.8,4.6c0.3,0.6,0.2,1.5-0.5,1.8
			c-11.9,5.7-23.7,11.5-35.6,17.2c-1.7,0.8-3.3,1.6-5,2.4c0.2-0.4,0.4-0.8,0.7-1.1c0.8,13.2,1.7,26.3,2.5,39.5
			c0.1,1.8,0.2,3.7,0.4,5.5c0,0.7-0.6,1.3-1.3,1.3c-12.9-0.5-25.9-1-38.8-1.5c-1.9-0.1-3.7-0.1-5.6-0.2c0.4-0.3,0.8-0.6,1.3-1
			c-3.6,11.4-7.3,22.9-10.9,34.3c-0.5,1.6-1,3.2-1.5,4.8c-0.3,0.9-1.1,1.1-1.9,0.8c-12.6-5.8-25.2-11.6-37.8-17.4
			c-1.8-0.8-3.6-1.7-5.4-2.5c0.5-0.1,1.1-0.1,1.6-0.2c-9.4,8.4-18.9,16.8-28.3,25.2c-1.4,1.2-2.7,2.4-4.1,3.6
			c-0.7,0.6-1.5,0.4-2.1-0.3c-8.5-11-16.9-21.9-25.4-32.9c-1.2-1.6-2.4-3.1-3.6-4.7c0.5,0.2,1,0.4,1.5,0.6
			c-12.4,2.7-24.8,5.4-37.2,8.1c-1.8,0.4-3.6,0.8-5.3,1.2c-0.6,0.1-1.5-0.2-1.6-0.9c-2.4-14.1-4.9-28.2-7.3-42.3c-0.3-2-0.7-4-1-6
			c0.3,0.3,0.6,0.6,0.9,0.9c-11.9-3-23.9-6-35.8-9c-1.7-0.4-3.4-0.9-5.1-1.3c-0.7-0.2-1.1-1-0.9-1.6c4.5-13.4,9-26.8,13.5-40.2
			c0.6-1.9,1.3-3.8,1.9-5.7c0.1,0.4,0.2,0.9,0.3,1.3c-9-8.7-18-17.3-27-26c-1.3-1.2-2.6-2.5-3.9-3.7c-0.5-0.5-0.5-1.4,0-1.9
			c10.1-8.4,20.3-16.8,30.4-25.2c1.4-1.2,2.8-2.4,4.3-3.5c-0.1,0.4-0.2,0.9-0.3,1.3c-4.3-11.9-8.6-23.8-12.8-35.7
			c-0.6-1.7-1.2-3.4-1.8-5.1c-0.2-0.7,0.3-1.5,0.9-1.6c13-3.1,25.9-6.1,38.9-9.2c1.9-0.4,3.8-0.9,5.7-1.3c-0.3,0.4-0.6,0.8-1,1.3
			c1.4-12.4,2.8-24.9,4.2-37.3c0.2-1.8,0.4-3.6,0.6-5.4c0.1-0.9,0.8-1.5,1.7-1.3c13.8,2.8,27.7,5.6,41.5,8.5c2,0.4,3.9,0.8,5.9,1.2
			c-0.5,0.2-1,0.4-1.5,0.6c7.6-10.4,15.1-20.8,22.7-31.2c1.1-1.5,2.2-3,3.3-4.5c0.5-0.7,1.4-0.9,2.1-0.3c10,8.6,20,17.3,30,25.9
			c1.4,1.2,2.8,2.4,4.2,3.6c-0.5-0.1-1.1-0.1-1.6-0.2c11.3-5.4,22.6-10.7,33.8-16.1c1.6-0.8,3.2-1.5,4.8-2.3c0.8-0.4,1.6,0,1.9,0.8
			c5.1,12.8,10.2,25.5,15.3,38.3c0.7,1.8,1.5,3.7,2.2,5.5c-0.4-0.3-0.8-0.6-1.3-1c12.1-0.4,24.2-0.8,36.4-1.2
			c1.7-0.1,3.4-0.1,5.2-0.2c0.7,0,1.4,0.6,1.3,1.3c-1,14.4-2,28.8-3,43.1c-0.1,2-0.3,4-0.4,6C344.9,160.3,342.2,160.3,342.4,158.6
			L342.4,158.6z"/>
		<circle class="st0" cx="360" cy="95" r="3.1"/>
		<circle class="st0" cx="294.2" cy="49.5" r="3.1"/>
		<circle class="st0" cx="213.6" cy="37.2" r="3.1"/>
		<circle class="st0" cx="131.6" cy="65.2" r="3.1"/>
		<circle class="st0" cx="75.5" cy="125.7" r="3.1"/>
		<circle class="st0" cx="52.3" cy="204.6" r="3.1"/>
		<circle class="st0" cx="69.4" cy="287.9" r="3.1"/>
		<circle class="st0" cx="125.1" cy="354.9" r="3.1"/>
		<circle class="st0" cx="206.1" cy="386.9" r="3.1"/>
		<circle class="st0" cx="290.3" cy="377.3" r="3.1"/>
		<circle class="st0" cx="356" cy="333.4" r="3.1"/>
		<circle class="st0" cx="398.1" cy="262" r="3.1"/>
		<g>
			<g>
				<circle class="st0" cx="138.4" cy="415.1" r="1.5"/>
			</g>
			<g>
				<circle class="st0" cx="138.4" cy="405.2" r="1.5"/>
			</g>
			<g>
				<circle class="st0" cx="138.4" cy="395.3" r="1.5"/>
			</g>
			<g>
				<circle class="st0" cx="138.4" cy="385.4" r="1.5"/>
			</g>
			<g>
				<circle class="st0" cx="138.4" cy="375.5" r="1.5"/>
			</g>
			<g>
				<circle class="st0" cx="138.4" cy="365.7" r="1.5"/>
			</g>
			<g>
				<circle class="st0" cx="138.4" cy="355.8" r="1.5"/>
			</g>
			<g>
				<path class="st0" d="M144.8,355c0.7-0.4,1.1-1.2,0.7-2c-0.3-0.7-1.2-1.1-2-0.7c-0.7,0.3-1.1,1.2-0.7,2
					C143.2,355,144.1,355.3,144.8,355z"/>
			</g>
			<g>
				<path class="st0" d="M148.9,362.9c0.7-0.4,1-1.3,0.6-2c-0.4-0.7-1.3-1-2-0.6c-0.7,0.4-1,1.3-0.6,2
					C147.3,363,148.2,363.3,148.9,362.9z"/>
			</g>
			<g>
				<path class="st0" d="M153.4,370.6c0.7-0.4,0.9-1.3,0.5-2c-0.4-0.7-1.3-0.9-2-0.5c-0.7,0.4-0.9,1.3-0.5,2
					C151.7,370.8,152.7,371,153.4,370.6z"/>
			</g>
			<g>
				<path class="st0" d="M158.3,378c0.7-0.5,0.8-1.4,0.4-2.1c-0.5-0.7-1.4-0.8-2.1-0.4c-0.7,0.5-0.8,1.4-0.4,2.1
					C156.7,378.3,157.6,378.4,158.3,378z"/>
			</g>
			<g>
				<path class="st0" d="M163.7,385c0.6-0.5,0.7-1.4,0.2-2.1c-0.5-0.6-1.4-0.7-2.1-0.2c-0.6,0.5-0.8,1.4-0.2,2.1
					C162.1,385.4,163,385.5,163.7,385z"/>
			</g>
			<g>
				<path class="st0" d="M169.5,391.7c0.6-0.6,0.6-1.5,0.1-2.1c-0.5-0.6-1.5-0.6-2.1-0.1c-0.6,0.5-0.7,1.5-0.1,2.1
					C168,392.2,168.9,392.3,169.5,391.7z"/>
			</g>
			<g>
				<path class="st0" d="M175.9,397.9c0.5-0.6,0.5-1.5-0.1-2.1c-0.6-0.6-1.5-0.5-2.1,0.1c-0.6,0.6-0.5,1.5,0.1,2.1
					C174.4,398.6,175.3,398.6,175.9,397.9z"/>
			</g>
			<g>
				<path class="st0" d="M182.7,403.6c0.5-0.7,0.4-1.6-0.3-2.1c-0.6-0.5-1.6-0.4-2.1,0.2c-0.5,0.6-0.4,1.6,0.2,2.1
					C181.2,404.4,182.2,404.3,182.7,403.6z"/>
			</g>
			<g>
				<path class="st0" d="M190,408.7c0.4-0.7,0.2-1.6-0.4-2c-0.7-0.5-1.6-0.3-2,0.4c-0.5,0.7-0.3,1.6,0.4,2.1
					C188.6,409.6,189.5,409.4,190,408.7z"/>
			</g>
			<g>
				<path class="st0" d="M197.7,413.2c0.4-0.7,0.1-1.6-0.6-2c-0.7-0.4-1.6-0.1-2,0.6c-0.4,0.7-0.1,1.6,0.6,2
					C196.4,414.2,197.3,413.9,197.7,413.2z"/>
			</g>
			<g>
				<path class="st0" d="M205.8,416.8c0.3-0.8-0.1-1.6-0.8-1.9c-0.7-0.3-1.6,0-1.9,0.8c-0.3,0.7,0,1.6,0.8,2
					C204.6,418,205.5,417.6,205.8,416.8z"/>
			</g>
			<g>
				<path class="st0" d="M214.2,419.7c0.2-0.8-0.2-1.6-1-1.8c-0.8-0.2-1.6,0.2-1.8,1c-0.3,0.8,0.2,1.6,1,1.9
					C213.1,421,214,420.5,214.2,419.7z"/>
			</g>
			<g>
				<path class="st0" d="M222.8,421.8c0.1-0.8-0.4-1.6-1.2-1.7c-0.8-0.2-1.6,0.4-1.7,1.1c-0.2,0.8,0.3,1.6,1.2,1.7
					C221.9,423.1,222.7,422.6,222.8,421.8z"/>
			</g>
			<g>
				<path class="st0" d="M231.6,423c0.1-0.8-0.5-1.5-1.3-1.6c-0.8-0.1-1.5,0.5-1.6,1.3c-0.1,0.8,0.5,1.6,1.3,1.6
					C230.8,424.4,231.5,423.8,231.6,423z"/>
			</g>
			<g>
				<path class="st0" d="M240.5,423.5c0-0.8-0.6-1.5-1.4-1.5c-0.8,0-1.5,0.6-1.5,1.4c0,0.8,0.6,1.5,1.4,1.5
					C239.8,425,240.5,424.3,240.5,423.5z"/>
			</g>
			<g>
				<path class="st0" d="M249.4,423.2c-0.1-0.8-0.8-1.4-1.6-1.4c-0.8,0-1.4,0.7-1.4,1.5c0,0.8,0.7,1.5,1.6,1.4
					C248.8,424.7,249.4,424,249.4,423.2z"/>
			</g>
			<g>
				<path class="st0" d="M258.2,422.1c-0.1-0.8-0.9-1.3-1.7-1.2c-0.8,0.1-1.3,0.9-1.2,1.7c0.1,0.8,0.9,1.4,1.7,1.2
					C257.8,423.6,258.3,422.9,258.2,422.1z"/>
			</g>
			<g>
				<path class="st0" d="M266.8,420c-0.2-0.8-1-1.2-1.8-1c-0.8,0.2-1.2,1-1,1.8c0.2,0.8,1,1.3,1.8,1
					C266.6,421.6,267.1,420.8,266.8,420z"/>
			</g>
			<g>
				<path class="st0" d="M275.2,417c-0.3-0.8-1.2-1.1-1.9-0.8c-0.7,0.3-1.1,1.1-0.8,1.9c0.3,0.8,1.2,1.1,1.9,0.8
					C275.2,418.7,275.5,417.8,275.2,417z"/>
			</g>
			<g>
				<path class="st0" d="M283.2,413.1c-0.2-0.4-0.5-0.6-0.9-0.7c-0.4-0.1-0.8-0.1-1.1,0.1c-0.7,0.4-1,1.3-0.6,2c0.4,0.7,1.3,1,2,0.6
					c0.4-0.2,0.6-0.5,0.7-0.9C283.4,413.9,283.4,413.5,283.2,413.1z"/>
			</g>
			<g>
				<path class="st0" d="M290.7,408.4c-0.5-0.7-1.4-0.8-2.1-0.4c-0.7,0.4-0.8,1.4-0.4,2.1c0.4,0.7,1.4,0.9,2.1,0.4
					C291,410,291.2,409.1,290.7,408.4z"/>
			</g>
			<g>
				<path class="st0" d="M297.7,402.9c-0.5-0.6-1.5-0.7-2.1-0.2c-0.6,0.5-0.7,1.4-0.2,2.1c0.5,0.6,1.4,0.7,2.1,0.2
					C298.2,404.5,298.2,403.5,297.7,402.9z"/>
			</g>
			<g>
				<path class="st0" d="M304.2,396.8c-0.6-0.6-1.5-0.6-2.1,0c-0.6,0.6-0.6,1.5,0,2.1c0.6,0.6,1.5,0.6,2.1,0
					C304.8,398.3,304.7,397.4,304.2,396.8z"/>
			</g>
			<g>
				<path class="st0" d="M310.1,390.2c-0.6-0.5-1.6-0.4-2.1,0.2c-0.5,0.6-0.4,1.5,0.2,2.1c0.6,0.5,1.6,0.5,2.1-0.2
					C310.8,391.6,310.7,390.7,310.1,390.2z"/>
			</g>
			<g>
				<path class="st0" d="M315.4,383.1c-0.7-0.5-1.6-0.3-2.1,0.3c-0.5,0.7-0.3,1.6,0.3,2.1c0.7,0.5,1.6,0.3,2.1-0.3
					C316.2,384.5,316.1,383.5,315.4,383.1z"/>
			</g>
			<g>
				<path class="st0" d="M320.3,375.6c-0.7-0.4-1.6-0.2-2,0.5c-0.4,0.7-0.2,1.6,0.5,2c0.7,0.4,1.6,0.2,2-0.5
					C321.2,377,321,376,320.3,375.6z"/>
			</g>
			<g>
				<path class="st0" d="M324.6,367.9c-0.7-0.4-1.6-0.1-2,0.6c-0.4,0.7-0.1,1.6,0.6,2c0.7,0.4,1.6,0.1,2-0.6
					C325.6,369.2,325.4,368.3,324.6,367.9z"/>
			</g>
			<g>
				<path class="st0" d="M328.6,359.9c-0.7-0.3-1.6,0-2,0.7c-0.3,0.7,0,1.6,0.7,2c0.7,0.4,1.6,0,2-0.7
					C329.6,361.1,329.3,360.2,328.6,359.9z"/>
			</g>
			<g>
				<path class="st0" d="M332.1,351.7c-0.8-0.3-1.6,0.1-1.9,0.8c-0.3,0.7,0.1,1.6,0.8,1.9c0.8,0.3,1.6,0,1.9-0.8
					C333.2,352.9,332.8,352,332.1,351.7z"/>
			</g>
			<g>
				<path class="st0" d="M335.1,343.4c-0.8-0.3-1.6,0.1-1.9,0.9c-0.3,0.8,0.1,1.6,0.9,1.9c0.8,0.3,1.6-0.1,1.9-0.9
					C336.3,344.5,335.9,343.7,335.1,343.4z"/>
			</g>
			<g>
				<path class="st0" d="M337.8,334.9c-0.8-0.2-1.6,0.2-1.8,1c-0.2,0.8,0.2,1.6,1,1.8c0.8,0.2,1.6-0.2,1.8-1
					C339.1,336,338.6,335.1,337.8,334.9z"/>
			</g>
			<g>
				<path class="st0" d="M340.1,326.3c-0.8-0.2-1.6,0.3-1.8,1.1c-0.2,0.8,0.3,1.6,1.1,1.8c0.8,0.2,1.6-0.3,1.8-1.1
					C341.4,327.3,340.9,326.5,340.1,326.3z"/>
			</g>
			<g>
				<circle class="st0" cx="341.3" cy="328.8" r="1.5"/>
			</g>
			<g>
				<circle class="st0" cx="341.3" cy="338.5" r="1.5"/>
			</g>
			<g>
				<circle class="st0" cx="341.3" cy="348.2" r="1.5"/>
			</g>
			<g>
				<circle class="st0" cx="341.3" cy="357.9" r="1.5"/>
			</g>
			<g>
				<circle class="st0" cx="341.3" cy="367.7" r="1.5"/>
			</g>
			<g>
				<circle class="st0" cx="341.3" cy="377.4" r="1.5"/>
			</g>
			<g>
				<circle class="st0" cx="341.3" cy="387.1" r="1.5"/>
			</g>
			<g>
				<circle class="st0" cx="341.3" cy="396.8" r="1.5"/>
			</g>
		</g>
		<g>
			<g>
				<path class="st0" d="M282.4,366.5c0.8,0.2,1.6-0.3,1.8-1.1c0.2-0.8-0.3-1.6-1.1-1.8c-0.8-0.2-1.6,0.3-1.8,1.1
					C281.1,365.5,281.6,366.3,282.4,366.5z"/>
			</g>
			<g>
				<path class="st0" d="M280,375.1c0.8,0.2,1.6-0.2,1.8-1c0.2-0.8-0.2-1.6-1-1.8c-0.8-0.2-1.6,0.2-1.8,1
					C278.8,374,279.2,374.8,280,375.1z"/>
			</g>
			<g>
				<path class="st0" d="M277.3,383.6c0.8,0.3,1.6-0.2,1.9-0.9c0.3-0.8-0.2-1.6-0.9-1.9c-0.8-0.3-1.6,0.2-1.9,0.9
					C276.1,382.5,276.5,383.3,277.3,383.6z"/>
			</g>
			<g>
				
					<ellipse transform="matrix(0.3556 -0.9346 0.9346 0.3556 -188.0252 508.492)" class="st0" cx="274.7" cy="390.6" rx="1.5" ry="1.5"/>
			</g>
			<g>
				<path class="st0" d="M270.8,400.2c0.7,0.3,1.6,0,1.9-0.8c0.3-0.8,0-1.6-0.8-1.9c-0.8-0.3-1.6,0-1.9,0.8
					C269.7,399,270.1,399.9,270.8,400.2z"/>
			</g>
			<g>
				<path class="st0" d="M267,408.3c0.7,0.4,1.6,0.1,2-0.7c0.4-0.7,0-1.6-0.7-2c-0.7-0.3-1.6,0-2,0.7C266,407.1,266.3,408,267,408.3
					z"/>
			</g>
			<g>
				<path class="st0" d="M262.9,416.2c0.7,0.4,1.6,0.1,2-0.6c0.4-0.7,0.1-1.6-0.6-2c-0.7-0.4-1.6-0.1-2,0.6
					C261.9,414.9,262.2,415.8,262.9,416.2z"/>
			</g>
			<g>
				<path class="st0" d="M258.3,423.9c0.7,0.4,1.6,0.2,2-0.5c0.4-0.7,0.2-1.6-0.5-2c-0.7-0.4-1.6-0.2-2,0.5
					C257.4,422.6,257.6,423.5,258.3,423.9z"/>
			</g>
			<g>
				<path class="st0" d="M253.3,431.3c0.7,0.5,1.6,0.3,2.1-0.3c0.5-0.7,0.3-1.6-0.3-2.1c-0.7-0.5-1.6-0.3-2.1,0.3
					C252.5,429.9,252.6,430.8,253.3,431.3z"/>
			</g>
			<g>
				<path class="st0" d="M247.7,438.3c0.6,0.5,1.6,0.5,2.1-0.2c0.5-0.6,0.4-1.6-0.2-2.1c-0.6-0.5-1.6-0.4-2.1,0.2
					C247,436.8,247.1,437.8,247.7,438.3z"/>
			</g>
			<g>
				<path class="st0" d="M241.6,444.8c0.6,0.6,1.5,0.6,2.1,0c0.6-0.6,0.6-1.5,0-2.1c-0.6-0.6-1.5-0.6-2.1,0
					C241.1,443.3,241.1,444.3,241.6,444.8z"/>
			</g>
			<g>
				<path class="st0" d="M235,450.8c0.5,0.6,1.5,0.7,2.1,0.2c0.3-0.3,0.5-0.6,0.5-1c0-0.4-0.1-0.8-0.4-1.1c-0.3-0.3-0.6-0.5-1-0.5
					c-0.4,0-0.8,0.1-1.1,0.3C234.6,449.3,234.5,450.2,235,450.8z"/>
			</g>
			<g>
				<path class="st0" d="M227.8,456.1c0.4,0.7,1.4,0.9,2.1,0.4c0.7-0.5,0.8-1.4,0.4-2.1c-0.5-0.7-1.4-0.8-2-0.4
					C227.6,454.5,227.4,455.4,227.8,456.1z"/>
			</g>
			<g>
				<path class="st0" d="M220.1,460.6c0.4,0.7,1.3,1,2,0.6c0.7-0.4,1-1.3,0.6-2c-0.4-0.7-1.3-1-2-0.6
					C220,459,219.7,459.8,220.1,460.6z"/>
			</g>
			<g>
				<path class="st0" d="M211.9,464.1c0.3,0.8,1.1,1.2,1.9,0.9c0.8-0.3,1.2-1.2,0.8-1.9c-0.3-0.8-1.2-1.1-1.9-0.8
					C212,462.5,211.6,463.3,211.9,464.1z"/>
			</g>
			<g>
				<path class="st0" d="M203.3,466.6c0.2,0.8,1,1.3,1.8,1.1c0.8-0.2,1.3-1,1.1-1.8c-0.2-0.8-1-1.3-1.8-1.1
					C203.6,465,203.1,465.8,203.3,466.6z"/>
			</g>
			<g>
				<path class="st0" d="M194.5,468c0.1,0.8,0.8,1.4,1.6,1.3c0.8-0.1,1.4-0.9,1.3-1.7c-0.1-0.8-0.8-1.4-1.6-1.3
					C195,466.4,194.4,467.2,194.5,468z"/>
			</g>
			<g>
				<path class="st0" d="M185.6,468.4c0,0.8,0.7,1.5,1.5,1.5c0.8,0,1.5-0.7,1.5-1.5c0-0.8-0.7-1.5-1.5-1.5
					C186.3,466.9,185.6,467.5,185.6,468.4z"/>
			</g>
			<g>
				<path class="st0" d="M176.7,467.7c-0.1,0.4,0,0.8,0.3,1.1c0.1,0.2,0.3,0.3,0.4,0.4c0.2,0.1,0.4,0.2,0.6,0.2
					c0.8,0.1,1.6-0.5,1.7-1.3c0.1-0.8-0.5-1.5-1.3-1.6c-0.2,0-0.4,0-0.6,0.1c-0.2,0-0.3,0.1-0.5,0.2
					C177,466.9,176.7,467.3,176.7,467.7z"/>
			</g>
			<g>
				<path class="st0" d="M168,465.6c-0.3,0.8,0.2,1.6,1,1.9c0.4,0.1,0.8,0.1,1.1-0.1c0.3-0.2,0.6-0.5,0.7-0.9c0.1-0.4,0-0.8-0.1-1.1
					c-0.2-0.3-0.5-0.6-0.9-0.7C169.1,464.4,168.3,464.8,168,465.6z"/>
			</g>
			<g>
				<path class="st0" d="M159.8,462.1c-0.2,0.4-0.2,0.8-0.1,1.1c0.1,0.4,0.4,0.7,0.8,0.8c0.8,0.4,1.7,0,2-0.7c0.3-0.7,0-1.6-0.7-2
					c-0.4-0.2-0.8-0.2-1.1,0C160.3,461.5,160,461.8,159.8,462.1z"/>
			</g>
			<g>
				<path class="st0" d="M152.2,457.4c-0.5,0.7-0.3,1.6,0.4,2.1c0.3,0.3,0.7,0.3,1.1,0.2c0.4-0.1,0.7-0.3,0.9-0.6
					c0.2-0.3,0.3-0.7,0.2-1.1c-0.1-0.4-0.3-0.7-0.6-0.9C153.6,456.6,152.7,456.8,152.2,457.4z"/>
			</g>
			<g>
				<path class="st0" d="M145.3,451.8c-0.6,0.6-0.5,1.5,0.1,2.1c0.6,0.6,1.6,0.5,2.1-0.1c0.5-0.6,0.5-1.6-0.1-2.1
					C146.8,451.1,145.9,451.2,145.3,451.8z"/>
			</g>
			<g>
				<path class="st0" d="M139.1,445.3c-0.6,0.5-0.7,1.5-0.1,2.1c0.6,0.6,1.5,0.7,2.1,0.1c0.6-0.6,0.6-1.5,0.1-2.1
					C140.6,444.9,139.7,444.8,139.1,445.3z"/>
			</g>
			<g>
				<path class="st0" d="M133.5,438.4c-0.7,0.5-0.8,1.4-0.3,2.1c0.5,0.7,1.4,0.8,2.1,0.3c0.6-0.5,0.8-1.4,0.3-2.1
					C135.1,438,134.2,437.9,133.5,438.4z"/>
			</g>
			<g>
				<path class="st0" d="M128.5,431c-0.7,0.4-0.9,1.4-0.5,2.1c0.4,0.7,1.4,0.9,2,0.4c0.7-0.4,0.9-1.4,0.4-2
					C130.1,430.7,129.2,430.5,128.5,431z"/>
			</g>
			<g>
				<path class="st0" d="M124,423.3c-0.7,0.4-1,1.3-0.6,2c0.4,0.7,1.3,1,2,0.6c0.7-0.4,1-1.3,0.6-2
					C125.6,423.1,124.7,422.9,124,423.3z"/>
			</g>
			<g>
				
					<ellipse transform="matrix(0.8978 -0.4404 0.4404 0.8978 -171.15 95.6726)" class="st0" cx="120.6" cy="416.6" rx="1.5" ry="1.5"/>
			</g>
			<g>
				
					<ellipse transform="matrix(0.9163 -0.4004 0.4004 0.9163 -153.8011 80.9497)" class="st0" cx="116.8" cy="408.5" rx="1.5" ry="1.5"/>
			</g>
			<g>
				
					<ellipse transform="matrix(0.9312 -0.3645 0.3645 0.9312 -138.1166 68.8816)" class="st0" cx="113.4" cy="400.3" rx="1.5" ry="1.5"/>
			</g>
			<g>
				
					<ellipse transform="matrix(0.9431 -0.3324 0.3324 0.9431 -124.0001 58.9381)" class="st0" cx="110.3" cy="391.9" rx="1.5" ry="1.5"/>
			</g>
			<g>
				
					<ellipse transform="matrix(0.9528 -0.3035 0.3035 0.9528 -111.3063 50.6861)" class="st0" cx="107.4" cy="383.5" rx="1.5" ry="1.5"/>
			</g>
			<g>
				
					<ellipse transform="matrix(0.9608 -0.2774 0.2774 0.9608 -99.8906 43.7902)" class="st0" cx="104.8" cy="374.9" rx="1.5" ry="1.5"/>
			</g>
			<g>
				
					<ellipse transform="matrix(0.9672 -0.2542 0.2542 0.9672 -89.7429 38.0634)" class="st0" cx="102.4" cy="366.3" rx="1.5" ry="1.5"/>
			</g>
			<g>
				
					<ellipse transform="matrix(0.9725 -0.2328 0.2328 0.9725 -80.5173 33.1666)" class="st0" cx="100.2" cy="357.6" rx="1.5" ry="1.5"/>
			</g>
			<g>
				
					<ellipse transform="matrix(0.977 -0.2131 0.2131 0.977 -72.0983 28.9448)" class="st0" cx="98.2" cy="348.9" rx="1.5" ry="1.5"/>
			</g>
			<g>
				
					<ellipse transform="matrix(0.9807 -0.1954 0.1954 0.9807 -64.6036 25.3872)" class="st0" cx="96.4" cy="340.2" rx="1.5" ry="1.5"/>
			</g>
			<g>
				
					<ellipse transform="matrix(0.9839 -0.179 0.179 0.9839 -57.7922 22.3078)" class="st0" cx="94.7" cy="331.4" rx="1.5" ry="1.5"/>
			</g>
			<g>
				
					<ellipse transform="matrix(0.9869 -0.1613 0.1613 0.9869 -50.8119 19.257)" class="st0" cx="93.2" cy="322.6" rx="1.5" ry="1.5"/>
			</g>
			<g>
				
					<ellipse transform="matrix(0.9895 -0.1442 0.1442 0.9895 -44.3035 16.5307)" class="st0" cx="91.8" cy="313.8" rx="1.5" ry="1.5"/>
			</g>
			<g>
				
					<ellipse transform="matrix(0.9917 -0.1284 0.1284 0.9917 -38.3943 14.1563)" class="st0" cx="90.6" cy="304.9" rx="1.5" ry="1.5"/>
			</g>
			<g>
				
					<ellipse transform="matrix(0.9937 -0.1117 0.1117 0.9937 -32.5049 11.8535)" class="st0" cx="89.6" cy="296.1" rx="1.5" ry="1.5"/>
			</g>
			<g>
				
					<ellipse transform="matrix(0.9957 -9.272484e-02 9.272484e-02 0.9957 -26.2476 9.4565)" class="st0" cx="88.6" cy="287.2" rx="1.5" ry="1.5"/>
			</g>
			<g>
				<circle class="st0" cx="88" cy="287.7" r="1.5"/>
			</g>
			<g>
				<circle class="st0" cx="88" cy="297" r="1.5"/>
			</g>
			<g>
				<circle class="st0" cx="88" cy="306.4" r="1.5"/>
			</g>
			<g>
				<circle class="st0" cx="88" cy="315.8" r="1.5"/>
			</g>
			<g>
				<circle class="st0" cx="88" cy="325.1" r="1.5"/>
			</g>
			<g>
				<circle class="st0" cx="88" cy="334.5" r="1.5"/>
			</g>
			<g>
				<circle class="st0" cx="88" cy="343.9" r="1.5"/>
			</g>
			<g>
				<circle class="st0" cx="88" cy="353.2" r="1.5"/>
			</g>
			<g>
				<circle class="st0" cx="88" cy="362.6" r="1.5"/>
			</g>
			<g>
				<circle class="st0" cx="88" cy="372" r="1.5"/>
			</g>
			<g>
				<circle class="st0" cx="88" cy="381.4" r="1.5"/>
			</g>
			<g>
				<circle class="st0" cx="88" cy="390.7" r="1.5"/>
			</g>
			<g>
				<circle class="st0" cx="88" cy="400.1" r="1.5"/>
			</g>
			<g>
				<circle class="st0" cx="88" cy="409.5" r="1.5"/>
			</g>
		</g>
		<g>
			<g>
				<circle class="st0" cx="241.4" cy="346.6" r="1.5"/>
			</g>
			<g>
				<circle class="st0" cx="241.4" cy="355.8" r="1.5"/>
			</g>
			<g>
				<circle class="st0" cx="241.4" cy="365" r="1.5"/>
			</g>
			<g>
				<circle class="st0" cx="241.4" cy="374.1" r="1.5"/>
			</g>
			<g>
				<circle class="st0" cx="241.4" cy="383.3" r="1.5"/>
			</g>
			<g>
				<circle class="st0" cx="241.4" cy="392.5" r="1.5"/>
			</g>
			<g>
				<circle class="st0" cx="241.4" cy="401.6" r="1.5"/>
			</g>
			<g>
				<circle class="st0" cx="241.4" cy="410.8" r="1.5"/>
			</g>
			<g>
				<circle class="st0" cx="241.4" cy="420" r="1.5"/>
			</g>
			<g>
				<circle class="st0" cx="241.4" cy="429.1" r="1.5"/>
			</g>
			<g>
				<circle class="st0" cx="241.4" cy="438.3" r="1.5"/>
			</g>
			<g>
				<circle class="st0" cx="241.4" cy="447.5" r="1.5"/>
			</g>
			<g>
				<circle class="st0" cx="241.4" cy="456.7" r="1.5"/>
			</g>
			<g>
				<circle class="st0" cx="241.4" cy="465.8" r="1.5"/>
			</g>
			<g>
				<circle class="st0" cx="241.4" cy="475" r="1.5"/>
			</g>
			<g>
				<circle class="st0" cx="241.4" cy="484.2" r="1.5"/>
			</g>
		</g>
		<path class="st0" d="M350.3,44.2c-0.1,0-0.7,0.7-1.9,2c-0.6,0.7-1.3,1.5-2.1,2.5c-0.8,1-1.7,2.1-2.7,3.3c-2,2.5-4.2,5.4-6.7,8.8
			c-2.5,3.4-5.1,7.1-7.8,11.1c-2.7,4-5.2,7.8-7.3,11.4c-2.2,3.5-4.1,6.8-5.6,9.5c-0.8,1.4-1.5,2.6-2.1,3.7c-0.6,1.1-1.1,2-1.5,2.8
			c-0.8,1.6-1.2,2.4-1.2,2.5s0.6-0.8,1.5-2.3c0.9-1.5,2.2-3.7,3.9-6.4c1.6-2.7,3.6-5.9,5.8-9.4c2.2-3.5,4.7-7.3,7.4-11.3
			c2.7-4,5.3-7.7,7.7-11.1c2.4-3.4,4.6-6.4,6.5-8.9c1.9-2.5,3.4-4.5,4.5-6C349.8,45,350.3,44.2,350.3,44.2z"/>
		
			<ellipse transform="matrix(0.4133 -0.9106 0.9106 0.4133 119.8997 329.3719)" class="st0" cx="315.6" cy="71.6" rx="20.9" ry="0.5"/>
		<path class="st0" d="M352.8,72.1c-0.1-0.1-1.6,1.5-4,4c-2.4,2.5-5.7,6-9.4,9.8c-3.7,3.8-7.1,7.2-9.6,9.6c-2.5,2.5-4,4-3.9,4.1
			c0.1,0.1,1.8-1.2,4.4-3.6c2.6-2.3,6.1-5.6,9.8-9.4c3.7-3.8,6.9-7.4,9.2-10.1C351.6,74,352.9,72.2,352.8,72.1z"/>
		<path class="st0" d="M258.6,18.3c-0.1,0-0.3,0.7-0.7,2c-0.2,0.7-0.5,1.5-0.7,2.4c-0.3,0.9-0.6,2-0.9,3.2c-0.6,2.4-1.3,5.2-2,8.4
			c-0.7,3.2-1.3,6.7-1.9,10.4c-0.6,3.7-1,7.3-1.4,10.5c-0.3,3.2-0.6,6.2-0.7,8.6c-0.1,1.2-0.1,2.3-0.1,3.3c0,1-0.1,1.8-0.1,2.5
			c0,1.4,0,2.1,0.1,2.1c0.1,0,0.2-0.8,0.3-2.1c0.1-1.4,0.3-3.3,0.5-5.8c0.2-2.4,0.5-5.3,0.9-8.6c0.4-3.2,0.9-6.7,1.4-10.4
			c0.6-3.7,1.2-7.2,1.8-10.4c0.6-3.2,1.2-6,1.7-8.4c0.5-2.4,1-4.3,1.3-5.7C258.6,19.1,258.7,18.3,258.6,18.3z"/>
		
			<ellipse transform="matrix(0.3302 -0.9439 0.9439 0.3302 134.3847 283.0681)" class="st0" cx="266.6" cy="46.8" rx="16.8" ry="0.5"/>
		<path class="st0" d="M240.5,25.4c-0.1,0-0.3,1.8-0.5,4.6c-0.2,2.9-0.3,6.8-0.3,11.2c0,4.4,0.1,8.3,0.2,11.2
			c0.1,2.9,0.3,4.6,0.4,4.6c0.1,0,0.2-1.8,0.3-4.6c0.1-2.9,0.1-6.8,0.1-11.2c0-4.4,0-8.3,0-11.2C240.7,27.1,240.6,25.4,240.5,25.4z"
			/>
		<path class="st0" d="M160,17.1c-0.1,0,0.2,0.9,0.9,2.5c0.6,1.6,1.5,3.9,2.7,6.7c2.3,5.7,5.5,13.5,9.1,22.1
			c3.6,8.6,6.8,16.5,9.1,22.1c1.2,2.8,2.1,5.1,2.8,6.7c0.7,1.6,1.1,2.4,1.2,2.4c0.1,0-0.2-0.9-0.8-2.5c-0.6-1.6-1.4-3.9-2.5-6.8
			c-2.2-5.7-5.3-13.6-8.8-22.2c-3.6-8.6-6.9-16.4-9.4-22c-1.2-2.8-2.3-5.1-3-6.6C160.5,17.9,160.1,17.1,160,17.1z"/>
		<path class="st0" d="M185.9,31.5c-0.1,0,0.3,2,1.1,5c0.8,3.1,1.9,7.3,3.1,12c1.2,4.7,2.2,9,2.9,12.1c0.7,3.1,1.2,5,1.4,5
			c0.1,0-0.1-2-0.7-5.1c-0.6-3.1-1.5-7.5-2.6-12.2c-1.2-4.7-2.4-9-3.4-12C186.8,33.3,186,31.5,185.9,31.5z"/>
		<path class="st0" d="M151.5,50.6c-0.2,0.2,5.3,4.8,10.8,11.8c5.5,6.9,8.7,13.4,9,13.3c0.1-0.1-0.5-1.7-1.9-4.3
			c-0.7-1.3-1.6-2.8-2.6-4.4c-1.1-1.6-2.3-3.4-3.7-5.1c-1.4-1.8-2.8-3.3-4.1-4.8c-1.3-1.4-2.6-2.6-3.7-3.6
			C153.1,51.6,151.6,50.5,151.5,50.6z"/>
		<path class="st0" d="M61.5,68.5c0,0.1,0.9,0.7,2.5,1.9c1.7,1.2,4.1,2.9,7.1,5c6,4.2,14.2,10,23.2,16.6c9,6.6,17,12.7,22.8,17.2
			c2.9,2.2,5.2,4,6.9,5.3c1.6,1.2,2.5,1.9,2.6,1.8c0-0.1-0.8-0.8-2.3-2.1c-1.5-1.3-3.8-3.2-6.7-5.5c-5.7-4.6-13.6-10.8-22.6-17.4
			c-9-6.6-17.3-12.3-23.4-16.4c-3-2-5.5-3.6-7.3-4.7C62.5,69.1,61.6,68.5,61.5,68.5z"/>
		<path class="st0" d="M108.1,80.9c-0.1,0.1,0.9,1.7,2.7,4.3c1.8,2.6,4.3,6,7.2,9.8c2.9,3.7,5.7,7,7.7,9.4c2.1,2.3,3.4,3.7,3.5,3.6
			c0.1-0.1-1-1.6-2.9-4.1c-1.9-2.4-4.6-5.8-7.5-9.5c-2.9-3.7-5.5-7.1-7.4-9.6C109.5,82.3,108.2,80.8,108.1,80.9z"/>
		<path class="st0" d="M79.5,106.9c0,0.1,2,0.9,5.3,2c3.3,1.1,7.8,2.7,12.8,4.6c5,1.9,9.4,3.6,12.6,4.9c3.2,1.3,5.2,2.1,5.3,2
			c0.1-0.1-1.8-1.1-5-2.6c-3.2-1.5-7.6-3.4-12.6-5.2c-5-1.9-9.6-3.4-12.9-4.3C81.6,107.2,79.5,106.7,79.5,106.9z"/>
		<path class="st0" d="M19.5,152.9c0,0.1,1.1,0.4,3.1,0.9c2,0.5,4.9,1.2,8.5,2c7.1,1.7,17,4.1,27.8,6.9c10.8,2.9,20.6,5.6,27.6,7.7
			c3.5,1,6.4,1.8,8.3,2.4c2,0.6,3.1,0.8,3.1,0.8c0-0.1-1-0.5-3-1.2c-1.9-0.7-4.8-1.6-8.3-2.7c-7-2.2-16.7-5.1-27.6-8
			c-10.8-2.9-20.7-5.1-27.9-6.6c-3.6-0.8-6.5-1.3-8.5-1.7C20.6,153,19.5,152.8,19.5,152.9z"/>
		<path class="st0" d="M45.8,138.7c0,0.1,0.5,0.5,1.6,1.2c1,0.7,2.6,1.7,4.5,3c3.9,2.4,9.3,5.6,15.5,8.8c6.2,3.2,11.9,5.7,16.2,7.4
			c2.1,0.9,3.8,1.5,5,1.9c1.2,0.4,1.9,0.6,1.9,0.6c0.1-0.1-2.5-1.3-6.7-3.1c-4.1-1.9-9.8-4.5-16-7.7c-6.2-3.2-11.6-6.2-15.6-8.5
			C48.3,140,45.9,138.6,45.8,138.7z"/>
		<path class="st0" d="M46.2,179.3c0,0.1,0.6,0.1,1.7,0.1c0.3,0,0.6,0,0.9,0c0.3,0,0.7,0,1,0.1c0.8,0.1,1.6,0.1,2.5,0.2
			c0.5,0.1,1,0.1,1.5,0.2c0.5,0.1,1,0.2,1.6,0.2c1.1,0.1,2.3,0.4,3.5,0.6c2.5,0.5,5.2,1,8,1.6c2.9,0.6,5.6,1,8.1,1.3
			c1.3,0.1,2.5,0.2,3.6,0.3c0.6,0,1.1,0,1.6,0c0.5,0,1,0,1.5-0.1c1,0,1.8-0.1,2.6-0.2c0.4,0,0.7-0.1,1.1-0.1
			c0.3-0.1,0.6-0.1,0.9-0.2c1-0.2,1.6-0.4,1.6-0.5c0-0.1-0.6,0-1.7,0.1c-0.3,0-0.6,0.1-0.9,0.1c-0.3,0-0.7,0-1,0.1
			c-0.8,0-1.6,0.1-2.5,0.1c-0.5,0-1,0-1.5,0c-0.5,0-1-0.1-1.6-0.1c-1.1,0-2.3-0.2-3.5-0.3c-2.5-0.3-5.2-0.8-8-1.4
			c-2.8-0.6-5.6-1.1-8.1-1.5c-1.3-0.2-2.4-0.4-3.6-0.5c-0.6-0.1-1.1-0.1-1.6-0.2c-0.5,0-1-0.1-1.5-0.1c-1-0.1-1.8-0.1-2.6-0.1
			c-0.4,0-0.7,0-1.1,0c-0.3,0-0.6,0.1-0.9,0.1C46.8,179.1,46.2,179.2,46.2,179.3z"/>
		<path class="st0" d="M15.5,258.3c0,0.1,1.1,0,3-0.3c1-0.1,2.2-0.3,3.5-0.5c1.4-0.2,2.9-0.5,4.7-0.8c1.7-0.3,3.6-0.7,5.6-1.1
			c2-0.4,4.2-0.9,6.4-1.4c4.5-1,9.5-2.3,14.6-3.7c5.2-1.4,10-3,14.4-4.4c2.2-0.7,4.3-1.4,6.2-2.2c1.9-0.7,3.7-1.4,5.4-2
			c1.6-0.6,3.1-1.2,4.4-1.7c1.3-0.5,2.4-1,3.3-1.4c1.8-0.8,2.8-1.2,2.8-1.3c0-0.1-1.1,0.3-2.9,0.9c-0.9,0.3-2,0.7-3.4,1.2
			c-1.3,0.5-2.8,1-4.4,1.6c-1.6,0.6-3.5,1.2-5.4,1.9c-1.9,0.7-4,1.3-6.2,2.1c-4.4,1.4-9.3,2.9-14.4,4.3c-5.1,1.4-10.1,2.7-14.6,3.8
			c-2.3,0.5-4.4,1-6.4,1.5c-2,0.5-3.9,0.8-5.6,1.2c-1.7,0.4-3.3,0.7-4.6,1c-1.4,0.3-2.5,0.5-3.5,0.7C16.5,258,15.5,258.3,15.5,258.3
			z"/>
		<path class="st0" d="M63.7,265.1c0.1,0.1,1.5-0.5,3.8-1.7c2.3-1.2,5.4-2.9,8.7-5c3.3-2.1,6.3-4.1,8.4-5.6c2.1-1.5,3.3-2.5,3.2-2.6
			c-0.2-0.2-5.5,3.2-12.1,7.3C69.1,261.7,63.6,264.9,63.7,265.1z"/>
		
			<ellipse transform="matrix(0.9726 -0.2326 0.2326 0.9726 -52.2392 21.1795)" class="st0" cx="63.7" cy="232.1" rx="19.3" ry="0.5"/>
		<path class="st0" d="M83,342.2c0.1,0,0.7-0.5,1.7-1.5c1-1,2.5-2.5,4.4-4.4c3.7-3.7,8.7-8.9,14.1-14.7c5.5-5.8,10.4-11.1,13.9-14.9
			c1.8-1.9,3.2-3.5,4.1-4.6c1-1.1,1.5-1.7,1.4-1.8c-0.1,0-0.7,0.5-1.7,1.5c-1,1-2.5,2.5-4.4,4.4c-3.7,3.7-8.7,8.9-14.1,14.7
			c-5.5,5.8-10.4,11.1-13.9,14.9c-1.8,1.9-3.2,3.5-4.1,4.6C83.4,341.5,82.9,342.1,83,342.2z"/>
		<path class="st0" d="M114.1,331.7c0.2,0.2,3.1-2.9,6.1-7c3.1-4.1,5.1-7.7,4.9-7.9c-0.2-0.2-2.7,3.2-5.7,7.3
			C116.3,328.2,113.9,331.5,114.1,331.7z"/>
		<path class="st0" d="M86.9,316.3c0.1,0.1,1.5-0.5,3.6-1.8c2.1-1.2,5-3.1,8-5.4c3-2.3,5.5-4.6,7.3-6.4c1.7-1.8,2.7-2.9,2.6-3
			c-0.2-0.2-4.6,4-10.5,8.6C91.9,312.8,86.7,316,86.9,316.3z"/>
		<path class="st0" d="M158.3,399.3c0.1,0,0.4-0.8,0.8-2.4c0.5-1.6,1.1-3.9,2-6.7c1.7-5.7,4-13.5,6.6-22c2.7-8.6,5.2-16.3,7.1-21.9
			c0.9-2.8,1.7-5.1,2.2-6.6c0.5-1.6,0.7-2.5,0.7-2.5c-0.1,0-0.4,0.8-1.1,2.3c-0.6,1.5-1.5,3.8-2.5,6.5c-2,5.5-4.7,13.2-7.4,21.8
			c-2.7,8.6-4.9,16.4-6.4,22.1c-0.7,2.9-1.3,5.2-1.7,6.8C158.4,398.4,158.2,399.3,158.3,399.3z"/>
		<path class="st0" d="M151.3,374.6c0.3,0.1,3-5.7,6.5-12.9c3.5-7.1,6.5-12.8,6.3-13c-0.1-0.1-1,1.3-2.4,3.5c-1.3,2.2-3.1,5.4-4.8,9
			c-1.8,3.6-3.2,6.9-4.2,9.3C151.7,373,151.2,374.6,151.3,374.6z"/>
		<path class="st0" d="M184.6,375.5c0.3,0.1,1.6-4.5,2-10.4c0.4-5.9-0.3-10.6-0.5-10.6c-0.3,0-0.1,4.7-0.5,10.5
			C185.2,370.8,184.3,375.4,184.6,375.5z"/>
		<path class="st0" d="M249,388.7c0.1,0,0.2-2.4,0.2-6.4c0-3.9-0.2-9.4-0.5-15.4c-0.3-6-0.7-11.4-1.1-15.3c-0.4-3.9-0.7-6.3-0.8-6.3
			c-0.1,0-0.1,2.4,0.1,6.4c0.2,3.9,0.5,9.4,0.8,15.3c0.3,6,0.6,11.4,0.8,15.3C248.7,386.2,248.9,388.7,249,388.7z"/>
		
			<ellipse transform="matrix(5.293465e-02 -0.9986 0.9986 5.293465e-02 -148.4938 593.1512)" class="st0" cx="238.5" cy="374.9" rx="13.8" ry="0.5"/>
		<path class="st0" d="M266,375.1c0.3-0.1-0.9-4.6-3-10c-2.1-5.4-4.3-9.5-4.5-9.4c-0.3,0.1,1.5,4.4,3.6,9.8
			C264.1,370.8,265.7,375.2,266,375.1z"/>
		<path class="st0" d="M347.3,386.9c0.1,0-0.4-1-1.4-2.7c-0.5-0.8-1.1-1.9-1.8-3.1c-0.7-1.2-1.5-2.5-2.5-4c-0.9-1.5-2-3.1-3.1-4.8
			c-1.1-1.7-2.4-3.5-3.7-5.4c-2.6-3.8-5.6-7.9-8.8-12.2c-3.2-4.2-6.4-8.2-9.4-11.8c-1.5-1.8-2.9-3.4-4.3-5c-1.3-1.6-2.6-3-3.8-4.3
			c-1.2-1.3-2.3-2.4-3.2-3.5c-0.9-1-1.8-1.9-2.5-2.6c-1.4-1.4-2.2-2.1-2.2-2.1c-0.1,0,0.6,0.9,1.9,2.4c0.6,0.7,1.4,1.6,2.3,2.7
			c0.9,1,2,2.2,3.1,3.6c1.1,1.3,2.4,2.8,3.7,4.3c1.3,1.6,2.7,3.3,4.2,5c2.9,3.6,6.1,7.5,9.3,11.8c3.2,4.2,6.2,8.3,8.8,12.1
			c1.3,1.9,2.6,3.7,3.7,5.4c1.2,1.7,2.2,3.3,3.2,4.7c1,1.4,1.8,2.8,2.6,3.9c0.8,1.2,1.4,2.2,2,3C346.6,386,347.2,386.9,347.3,386.9z
			"/>
		
			<ellipse transform="matrix(0.777 -0.6295 0.6295 0.777 -154.4478 278.098)" class="st0" cx="315.3" cy="357.1" rx="0.5" ry="18.4"/>
		<path class="st0" d="M330.9,337.9c0.1-0.1-0.3-0.9-1.2-2.1c-0.9-1.2-2.3-2.7-4.1-4.1c-1.8-1.4-3.6-2.4-5-3
			c-1.4-0.6-2.3-0.8-2.3-0.6c-0.1,0.3,3.2,1.7,6.7,4.4C328.5,335.1,330.7,338.1,330.9,337.9z"/>
		<path class="st0" d="M410.2,312.2c0-0.1-0.8-0.5-2.2-1.3c-1.5-0.8-3.6-1.9-6.2-3.2c-5.3-2.7-12.6-6.4-20.6-10.6
			c-8-4.2-15.2-8-20.4-10.8c-2.6-1.4-4.7-2.5-6.2-3.3c-1.5-0.8-2.3-1.2-2.3-1.1c0,0.1,0.7,0.6,2.1,1.4c1.4,0.9,3.5,2.1,6,3.6
			c5.1,3,12.3,6.9,20.3,11.1c8,4.2,15.4,7.8,20.7,10.3c2.7,1.3,4.9,2.3,6.4,2.9C409.4,311.9,410.2,312.3,410.2,312.2z"/>
		<path class="st0" d="M387,319.2c0.1-0.1-1.5-1.3-4.1-3.3c-2.6-1.9-6.2-4.6-10.1-7.6c-3.9-3-7.4-5.8-9.9-7.8
			c-2.5-2-4.1-3.2-4.2-3.1c-0.1,0.1,1.3,1.5,3.7,3.7c2.4,2.2,5.8,5,9.8,8c3.9,3,7.6,5.6,10.3,7.4C385.2,318.3,386.9,319.3,387,319.2
			z"/>
		<path class="st0" d="M392.8,281.7c0.1-0.3-5.3-1.5-11.9-3.5c-6.5-1.9-11.7-3.8-11.8-3.5c-0.1,0.2,5,2.6,11.5,4.5
			C387.3,281.2,392.8,282,392.8,281.7z"/>
		<path class="st0" d="M381.3,133.1c-0.1-0.1-1.5,1.3-3.6,3.5c-2.2,2.2-5.2,5.3-8.7,8.5c-3.5,3.2-6.7,6.1-9.1,8.1
			c-2.4,2-3.8,3.3-3.8,3.4c0.1,0.1,1.7-0.9,4.2-2.8c2.5-1.9,5.8-4.6,9.3-7.9c3.5-3.3,6.5-6.4,8.5-8.8
			C380.3,134.7,381.4,133.2,381.3,133.1z"/>
		<path class="st0" d="M388,104.7c-0.1-0.1-1.5,1.8-3.8,4.8c-2.3,3-5.5,7.1-9.1,11.6c-3.7,4.4-7.2,8.3-9.7,11.1
			c-2.5,2.8-4.1,4.5-4,4.6c0.1,0.1,1.9-1.4,4.5-4.1c2.7-2.7,6.3-6.5,10-10.9c3.7-4.5,6.8-8.7,8.9-11.8
			C386.9,106.8,388.1,104.8,388,104.7z"/>
		<path class="st0" d="M406.9,230.7c0.1-0.1-1.9-1.5-5.3-3.6c-1.7-1-3.7-2.2-6-3.5c-2.3-1.2-4.8-2.5-7.6-3.8
			c-2.7-1.3-5.4-2.4-7.8-3.4c-2.4-1-4.6-1.8-6.5-2.4c-3.7-1.3-6.1-1.9-6.1-1.7c0,0.1,2.2,1,5.9,2.4c1.8,0.7,4,1.6,6.4,2.6
			c2.4,1,5,2.2,7.7,3.4c2.7,1.3,5.2,2.6,7.6,3.7c2.3,1.2,4.4,2.3,6.1,3.3C404.8,229.7,406.9,230.9,406.9,230.7z"/>
		<path class="st0" d="M404.4,245.6c0.1-0.1-1.2-1.6-3.5-3.7c-1.2-1.1-2.6-2.3-4.2-3.7c-1.6-1.3-3.5-2.7-5.5-4.1
			c-2-1.4-4-2.6-5.8-3.6c-1.8-1-3.5-1.9-4.9-2.6c-2.9-1.4-4.7-2.1-4.8-1.9c-0.1,0.1,1.7,1,4.4,2.6c1.4,0.8,3,1.7,4.8,2.8
			c1.8,1.1,3.7,2.3,5.7,3.7c2,1.4,3.8,2.7,5.5,4c1.6,1.3,3.1,2.4,4.3,3.5C402.9,244.4,404.3,245.7,404.4,245.6z"/>
		<path class="st0" d="M197.6,218.6c-18.3,1.3-36.5,2.7-54.8,4c-0.8,0.1-0.8-1.3,0-1.3c18.3-1.3,36.5-2.7,54.8-4
			C198.4,217.2,198.4,218.5,197.6,218.6L197.6,218.6z"/>
		<path class="st0" d="M196.5,211.1c-17.9-1.2-35.8-2.5-53.7-3.7c-0.8-0.1-0.8-1.4,0-1.3c17.9,1.2,35.8,2.5,53.7,3.7
			C197.3,209.9,197.3,211.2,196.5,211.1L196.5,211.1z"/>
		<path class="st0" d="M195.9,202.7c-8.6-2.9-17.3-5.5-26.1-7.8c-7.9-2-16.4-3.2-23.6-7.2c-0.7-0.4-0.1-1.5,0.7-1.1
			c7.4,4,16.1,5.2,24.1,7.3c8.5,2.2,17,4.7,25.3,7.6C197.1,201.7,196.7,203,195.9,202.7L195.9,202.7z"/>
		<path class="st0" d="M208.2,161.9c-12.4-7.1-24.8-14.2-37.2-21.3c-0.7-0.4-0.1-1.6,0.7-1.1c12.4,7.1,24.8,14.2,37.2,21.3
			C209.5,161.2,208.9,162.3,208.2,161.9L208.2,161.9z"/>
		<path class="st0" d="M201.9,170.4c-13.6-4.9-25.8-13-38.1-20.5c-0.7-0.4-0.1-1.6,0.7-1.1c12.2,7.4,24.3,15.5,37.8,20.3
			C203.1,169.5,202.7,170.7,201.9,170.4L201.9,170.4z"/>
		<path class="st0" d="M198.8,180.4c-7.2-3.2-14.3-6.5-21.5-9.7c-6.9-3.1-13.8-6.4-21.3-7.8c-0.8-0.1-0.5-1.4,0.3-1.3
			c7.4,1.3,14.1,4.5,20.9,7.5c7.4,3.4,14.8,6.7,22.3,10.1C200.2,179.6,199.6,180.7,198.8,180.4L198.8,180.4z"/>
		<path class="st0" d="M197.2,188.9c-15.3-4.3-30.5-8.9-45.6-14c-0.8-0.3-0.5-1.5,0.3-1.3c15.1,5,30.3,9.7,45.6,14
			C198.4,187.8,198.1,189.1,197.2,188.9L197.2,188.9z"/>
		<path class="st0" d="M201.2,228.4c-9.4,1.8-18.8,3.6-28.2,5.4c-9,1.7-17.8,3.2-26.9,3.3c-0.8,0-0.8-1.3,0-1.3
			c9.3-0.1,18.3-1.7,27.5-3.4c9.1-1.7,18.2-3.5,27.3-5.2C201.7,226.9,202,228.2,201.2,228.4L201.2,228.4z"/>
		<path class="st0" d="M204.9,237.1c-8.3,3.8-17.3,6-26,8.6c-9.3,2.8-18.6,5.5-28,8.3c-0.8,0.2-1.2-1-0.3-1.3c9-2.7,18.1-5.3,27.1-8
			c8.8-2.6,18.1-4.8,26.5-8.7C205,235.6,205.7,236.8,204.9,237.1L204.9,237.1z"/>
		<path class="st0" d="M209.8,246.1c-17,7.3-33.2,16.4-49.4,25.6c-0.7,0.4-1.4-0.7-0.7-1.1c16.1-9.1,32.3-18.2,49.4-25.6
			C209.9,244.6,210.6,245.7,209.8,246.1L209.8,246.1z"/>
		<path class="st0" d="M239,272.8c-7.5,14-15.6,27.6-24.3,40.8c-0.5,0.7-1.6,0-1.1-0.7c8.7-13.3,16.8-26.9,24.3-40.8
			C238.3,271.4,239.4,272.1,239,272.8L239,272.8z"/>
		<path class="st0" d="M221.4,260.4c-12,12.1-24.1,24.1-36.1,36.2c-0.6,0.6-1.5-0.3-0.9-0.9c12-12.1,24.1-24.1,36.1-36.2
			C221,258.9,222,259.8,221.4,260.4L221.4,260.4z"/>
		<path class="st0" d="M214.4,252.8c-14.3,10.7-28.7,21.4-43,32.1c-0.7,0.5-1.3-0.6-0.7-1.1c14.3-10.7,28.7-21.4,43-32.1
			C214.4,251.1,215.1,252.3,214.4,252.8L214.4,252.8z"/>
		<path class="st0" d="M230.4,267.6c-4.6,7.5-11.4,13.1-16.7,20.1c-4.9,6.3-8.7,13.5-15.3,18.2c-0.7,0.5-1.3-0.6-0.7-1.1
			c6.5-4.7,10.3-12,15.2-18.2c5.2-6.7,11.9-12.3,16.4-19.6C229.7,266.2,230.9,266.9,230.4,267.6L230.4,267.6z"/>
		<path class="st0" d="M277.2,282.6c0.1,11.3-0.3,22.7-1.2,34c-0.1,0.8-1.4,0.8-1.3,0c0.9-11.3,1.3-22.6,1.2-34
			C275.8,281.8,277.1,281.8,277.2,282.6L277.2,282.6z"/>
		<path class="st0" d="M257.1,280.4c-4,12.4-7.4,25-10.4,37.7c-0.2,0.8-1.5,0.5-1.3-0.3c3-12.7,6.4-25.2,10.4-37.7
			C256.1,279.3,257.4,279.6,257.1,280.4L257.1,280.4z"/>
		<path class="st0" d="M248.4,277.5c-4.8,13.8-10.7,27.2-17.9,39.9c-0.4,0.7-1.5,0.1-1.1-0.7c7.1-12.7,13-25.9,17.7-39.6
			C247.4,276.4,248.6,276.7,248.4,277.5L248.4,277.5z"/>
		<path class="st0" d="M267.1,282.4c-1.6,11.7-3.6,23.4-5.7,35c-0.2,0.8-1.4,0.5-1.3-0.3c2.2-11.6,4.1-23.3,5.7-35
			C266,281.2,267.3,281.5,267.1,282.4L267.1,282.4z"/>
		<path class="st0" d="M300.3,278.1c2.3,7.6,4.5,15.2,6.8,22.8c0.2,0.8-1,1.2-1.3,0.3c-2.3-7.6-4.5-15.2-6.8-22.8
			C298.8,277.6,300.1,277.2,300.3,278.1L300.3,278.1z"/>
		<path class="st0" d="M292,281c2.5,8,4.8,16.1,7,24.2c0.2,0.8-1,1.2-1.3,0.3c-2.2-8.1-4.5-16.2-7-24.2
			C290.5,280.5,291.7,280.2,292,281L292,281z"/>
		<path class="st0" d="M284.9,282.4c0.8,10.2,1.6,20.4,2.4,30.7c0.1,0.8-1.2,0.8-1.3,0c-0.8-10.2-1.6-20.4-2.4-30.7
			C283.6,281.6,284.9,281.6,284.9,282.4L284.9,282.4z"/>
		<path class="st0" d="M309,275.7c1.9,6.7,4.4,13.3,7.3,19.6c-0.4,0.2-0.8,0.3-1.2,0.5c0-0.2-0.1-0.4-0.1-0.5
			c-0.1-0.8,1.1-1.2,1.3-0.3c0,0.2,0.1,0.4,0.1,0.5c0.1,0.7-0.9,1.2-1.2,0.5c-3-6.5-5.5-13.1-7.4-20
			C307.5,275.2,308.8,274.8,309,275.7L309,275.7z"/>
		<path class="st0" d="M315.3,272.5c3.5,4.7,5.5,10.3,7.8,15.6c0.3,0.8-0.8,1.4-1.1,0.7c-2.3-5.3-4.4-10.9-7.8-15.6
			C313.6,272.5,314.8,271.8,315.3,272.5L315.3,272.5z"/>
		<path class="st0" d="M329.1,283.3c-1.7-1.5-2.6-3.5-3.4-5.5c-1.3-3.1-2.9-6-5-8.6c-0.5-0.7,0.4-1.6,0.9-0.9
			c1.8,2.2,3.3,4.6,4.5,7.2c1.1,2.5,1.8,5.1,3.9,7C330.6,282.9,329.7,283.8,329.1,283.3L329.1,283.3z"/>
		<path class="st0" d="M335.6,276.5c-3.5-3.4-7-6.7-10.5-10.1c-0.6-0.6,0.3-1.5,0.9-0.9c3.5,3.4,7,6.7,10.5,10.1
			C337.2,276.2,336.2,277.1,335.6,276.5L335.6,276.5z"/>
		<path class="st0" d="M340.8,269.6c-3.4-2.9-6.9-5.6-10.5-8.1c-0.7-0.5,0-1.6,0.7-1.1c3.7,2.6,7.3,5.4,10.8,8.3
			C342.4,269.2,341.4,270.1,340.8,269.6L340.8,269.6z"/>
		<path class="st0" d="M344.5,262.2c-1.2-1.4-3.1-2-4.6-2.9c-1.4-0.9-2.7-2-3.9-3.3c-0.6-0.6,0.4-1.6,0.9-0.9
			c1.3,1.4,2.8,2.7,4.5,3.6c1.4,0.8,2.9,1.4,3.9,2.6C345.9,261.9,345,262.8,344.5,262.2L344.5,262.2z"/>
		<path class="st0" d="M347.3,253.7c-2-1.2-3.9-2.6-5.8-4.1c-0.7-0.5,0.3-1.5,0.9-0.9c1.7,1.4,3.6,2.8,5.5,3.9
			C348.7,253,348,254.1,347.3,253.7L347.3,253.7z"/>
		<path class="st0" d="M349.3,245.9c-1.5-0.6-2.9-1.4-4.2-2.3c-0.7-0.5,0-1.6,0.7-1.1c1.2,0.9,2.5,1.6,3.9,2.2
			C350.4,244.9,350.1,246.2,349.3,245.9L349.3,245.9z"/>
		<path class="st0" d="M351.7,237.4c-0.9-0.4-1.7-0.7-2.6-1.1c-0.3-0.1-0.6-0.4-0.5-0.8c0.1-0.3,0.5-0.6,0.8-0.5
			c0.9,0.4,1.7,0.7,2.6,1.1c0.3,0.1,0.6,0.4,0.5,0.8C352.4,237.3,352,237.6,351.7,237.4L351.7,237.4z"/>
		<path class="st0" d="M238.7,131.2c-3.3-7.9-7.2-15.5-11.8-22.7c-0.5-0.7,0.7-1.4,1.1-0.7c4.7,7.3,8.7,15,12,23
			C240.3,131.6,239,132,238.7,131.2L238.7,131.2z"/>
		<path class="st0" d="M221.5,145c-8.3-7.9-16-16.3-23.2-25.2c-0.5-0.7,0.4-1.6,0.9-0.9c7.2,8.9,14.9,17.3,23.2,25.2
			C223,144.6,222.1,145.6,221.5,145L221.5,145z"/>
		<path class="st0" d="M217.2,149.5c-11.4-6.1-18.7-17.4-29.7-24.1c-0.7-0.4-0.1-1.6,0.7-1.1c11,6.7,18.3,18,29.7,24.1
			C218.6,148.8,217.9,149.9,217.2,149.5L217.2,149.5z"/>
		<path class="st0" d="M211.8,154.9c-10.3-7.4-20.2-15.2-29.8-23.4c-0.6-0.6,0.3-1.5,0.9-0.9c9.5,8.2,19.4,15.9,29.5,23.2
			C213.1,154.3,212.4,155.4,211.8,154.9L211.8,154.9z"/>
		<path class="st0" d="M226.9,140.7c-3.5-3.8-6.1-8.3-9.1-12.4c-3.2-4.4-7.2-8.2-9.9-13c-0.4-0.7,0.7-1.4,1.1-0.7
			c2.6,4.6,6.4,8.2,9.5,12.3c3.2,4.3,5.8,8.9,9.4,12.8C228.4,140.4,227.4,141.4,226.9,140.7L226.9,140.7z"/>
		<path class="st0" d="M232.7,136.2c-2.9-3.7-5.5-7.6-7.7-11.7c-2.2-4.1-3.5-9.1-6.7-12.6c-0.6-0.6,0.4-1.6,0.9-0.9
			c3,3.2,4.3,7.6,6.2,11.5c2.3,4.6,5.1,8.9,8.2,12.9C234.1,136,233.2,136.9,232.7,136.2L232.7,136.2z"/>
		<path class="st0" d="M267.9,123.1c-0.1-5.1,0.3-10.2,1.4-15.3c0.2-0.8,1.4-0.5,1.3,0.3c-1,4.9-1.5,9.9-1.4,14.9
			C269.3,123.9,268,123.9,267.9,123.1L267.9,123.1z"/>
		<path class="st0" d="M252.4,126.8c-0.9-7.1-1.8-14.2-2.7-21.3c-0.1-0.8,1.2-0.8,1.3,0c0.9,7.1,1.8,14.2,2.7,21.3
			C253.8,127.7,252.5,127.6,252.4,126.8L252.4,126.8z"/>
		<path class="st0" d="M245.7,129.2c-2.1-7.5-3.7-15.1-4.8-22.8c-0.1-0.8,1.1-1.2,1.3-0.3c1.1,7.7,2.7,15.3,4.8,22.8
			C247.2,129.6,245.9,130,245.7,129.2L245.7,129.2z"/>
		<path class="st0" d="M258.2,125.5c-0.4-6.4-0.4-12.9-0.2-19.3c0-0.8,1.3-0.8,1.3,0c-0.3,6.4-0.2,12.9,0.2,19.3
			C259.5,126.3,258.2,126.3,258.2,125.5L258.2,125.5z"/>
		<path class="st0" d="M262.7,123.7c0.3-5.7,0.8-11.4,1.5-17.1c0.1-0.8,1.4-0.5,1.3,0.3c-0.8,5.5-1.2,11.1-1.5,16.7
			C263.9,124.6,262.6,124.6,262.7,123.7L262.7,123.7z"/>
		<path class="st0" d="M298.3,118c-1.3,2.6-2.3,5.2-3.2,7.9c-0.3,0.8-1.5,0.5-1.3-0.3c0.9-2.8,2.1-5.6,3.4-8.3
			C297.6,116.5,298.7,117.2,298.3,118L298.3,118z"/>
		<path class="st0" d="M284.5,111.8c-2.3,3.7-4,7.6-5.3,11.7c-0.2,0.8-1.5,0.5-1.3-0.3c1.3-4.2,3.1-8.3,5.4-12
			C283.8,110.4,284.9,111.1,284.5,111.8L284.5,111.8z"/>
		<path class="st0" d="M278,110.4c-2.2,3.9-3.8,8-4.7,12.4c-0.2,0.8-1.4,0.5-1.3-0.3c1-4.5,2.6-8.7,4.8-12.7
			C277.3,109,278.5,109.7,278,110.4L278,110.4z"/>
		<path class="st0" d="M289.8,114.3c-2.6,2.6-5,5.4-7,8.5c-0.5,0.7-1.6,0-1.1-0.7c2.1-3.2,4.5-6.1,7.2-8.8
			C289.4,112.7,290.4,113.7,289.8,114.3L289.8,114.3z"/>
		<path class="st0" d="M293.4,115.9c-2.1,2.4-3.6,5.1-4.5,8.2c-0.2,0.8-1.5,0.5-1.3-0.3c0.9-3.3,2.6-6.2,4.8-8.8
			C293,114.3,293.9,115.3,293.4,115.9L293.4,115.9z"/>
		<path class="st0" d="M314.2,128.1c-1,0.8-1.9,1.8-2.3,3.1c-0.3,0.8-1.6,0.4-1.3-0.3c0.6-1.4,1.5-2.7,2.7-3.6
			C313.9,126.7,314.8,127.6,314.2,128.1L314.2,128.1z"/>
		<path class="st0" d="M309.9,124.1c-1.1,1.6-2,3.3-2.8,5.1c-0.3,0.8-1.5,0.1-1.1-0.7c0.8-1.8,1.7-3.5,2.8-5.1
			C309.2,122.7,310.3,123.4,309.9,124.1L309.9,124.1z"/>
		<path class="st0" d="M303.9,120.5c-1.5,1.7-2.6,3.6-3.3,5.8c-0.3,0.8-1.5,0.5-1.3-0.3c0.8-2.3,2-4.5,3.6-6.3
			C303.6,119,304.5,119.9,303.9,120.5L303.9,120.5z"/>
		<path class="st0" d="M318.4,132.4c-1.1,0.7-2,1.5-2.6,2.6c-0.4,0.7-1.6,0.1-1.1-0.7c0.7-1.3,1.8-2.3,3.1-3.1
			C318.5,130.8,319.2,132,318.4,132.4L318.4,132.4z"/>
		<path class="st0" d="M347.6,109.6c-7.2,7.3-13.8,15.1-19.7,23.4c-0.5,0.7-1.6,0-1.1-0.7c6-8.4,12.6-16.3,19.9-23.7
			C347.3,108.1,348.2,109,347.6,109.6L347.6,109.6z"/>
		<path class="st0" d="M339.1,110.3c-2.7,2.8-5.4,5.6-8.1,8.4c-1.3,1.3-2.6,2.7-3.9,4c-0.9,1-2.2,2.8-3.4,3.3
			c-0.4,0.2-0.8,0.1-1-0.4c0,0,0-0.1,0-0.1c-0.1-0.4,0.1-0.7,0.5-0.8c0,0,0.1,0,0.1,0c0.8-0.3,1.1,1,0.3,1.3c0,0-0.1,0-0.1,0
			c0.2-0.3,0.3-0.5,0.5-0.8c0,0,0,0.1,0,0.1c-0.3-0.1-0.6-0.3-1-0.4c1.3-0.6,2.8-2.7,3.7-3.7c1.3-1.3,2.6-2.7,3.9-4
			c2.5-2.6,5-5.2,7.5-7.8C338.7,108.8,339.7,109.7,339.1,110.3L339.1,110.3z"/>
		<path class="st0" d="M329.8,110.9c-3.7,3.4-7.3,7.1-11.3,10.2c-0.7,0.5-1.6-0.4-0.9-0.9c4-3.2,7.5-6.8,11.3-10.2
			C329.5,109.4,330.4,110.3,329.8,110.9L329.8,110.9z"/>
		<path class="st0" d="M319.3,111.6c-2,1.7-3.6,3.7-4.7,6c-0.4,0.8-1.5,0.1-1.1-0.7c1.2-2.5,2.8-4.6,4.9-6.3
			C319,110.2,320,111.1,319.3,111.6L319.3,111.6z"/>
		<path class="st0" d="M347.6,120.2c-1.6,3-4.4,5.4-6.6,7.9c-2.7,3-5.5,6-8.2,9.1c-0.6,0.6-1.5-0.3-0.9-0.9c2.5-2.8,5.1-5.6,7.6-8.4
			c2.4-2.6,5.3-5.2,7-8.3C346.9,118.8,348.1,119.4,347.6,120.2L347.6,120.2z"/>
		<path class="st0" d="M346,132.8c-3.4,3.7-6.8,7.3-10.5,10.8c-0.6,0.6-1.5-0.3-0.9-0.9c3.6-3.5,7.1-7.1,10.5-10.8
			C345.6,131.2,346.5,132.1,346,132.8L346,132.8z"/>
		<path class="st0" d="M345.2,143.2c-0.5,1.1-1.3,1.9-2.1,2.7c-1.1,1-2.1,2-3.2,3.1c-0.6,0.6-1.5-0.3-0.9-0.9
			c0.9-0.8,1.7-1.7,2.6-2.5c0.8-0.8,1.9-1.6,2.4-2.7C344.3,142.1,345.5,142.4,345.2,143.2L345.2,143.2z"/>
		<path class="st0" d="M288,68.4C288,68.3,288,68.3,288,68.4c-0.1,0.2-0.2,0.5-0.4,0.8c0,0,0-0.1,0-0.1c0.3,0.1,0.6,0.3,1,0.4
			c-0.5,0.2-1,2.4-1.2,2.9c-0.5,1.2-0.9,2.3-1.4,3.5c-0.9,2.2-1.7,4.4-2.5,6.6c-1.7,4.4-3.3,8.8-4.9,13.2c-0.3,0.8-1.6,0.4-1.3-0.3
			c1.9-5.1,3.7-10.1,5.6-15.2c0.9-2.5,1.9-4.9,2.9-7.4c0.4-1,1-4,2.1-4.5c0.4-0.2,0.8,0,1,0.4c0,0,0,0.1,0,0.1
			c0.1,0.4-0.2,0.7-0.5,0.8c0,0-0.1,0-0.1,0C287.5,69.9,287.2,68.7,288,68.4L288,68.4z"/>
		<path class="st0" d="M280.1,72.7c-1.1,3.5-3,6.6-4.3,10c-1.3,3.4-2.3,6.8-3.2,10.3c-0.1,0.5-0.9,0.7-1.2,0.2
			c-0.1-0.2-0.2-0.4-0.3-0.6c-0.4-0.7,0.7-1.4,1.1-0.7c0.1,0.2,0.2,0.4,0.3,0.6c-0.4,0.1-0.8,0.1-1.2,0.2c1-3.5,2-6.9,3.2-10.3
			c1.3-3.4,3.2-6.5,4.3-10C279.1,71.5,280.3,71.9,280.1,72.7L280.1,72.7z"/>
		<path class="st0" d="M271.6,76.6c-1.9,4.4-3.5,8.9-4.9,13.4c-0.3,0.8-1.5,0.5-1.3-0.3c1.5-4.7,3.2-9.2,5.1-13.7
			C270.8,75.1,271.9,75.8,271.6,76.6L271.6,76.6z"/>
		<path class="st0" d="M262.6,80.1c-0.8,2.8-1.6,5.5-2.4,8.3c-0.2,0.8-1.5,0.5-1.3-0.3c0.8-2.8,1.6-5.5,2.4-8.3
			C261.5,79,262.8,79.3,262.6,80.1L262.6,80.1z"/>
		<path class="st0" d="M292.6,78.5c-1.6,7-3.4,14-6.9,20.3c-0.4,0.7-1.5,0.1-1.1-0.7c3.4-6.2,5.1-13.1,6.7-20
			C291.5,77.3,292.8,77.7,292.6,78.5L292.6,78.5z"/>
		<path class="st0" d="M297,88.6c-1.3,4.4-3.7,8.6-5.7,12.8c-0.4,0.8-1.5,0.1-1.1-0.7c1.9-4.1,4.3-8.2,5.6-12.5
			C296,87.5,297.3,87.8,297,88.6L297,88.6z"/>
		<path class="st0" d="M299.8,97.8c-1.3,2.1-2.3,4.3-2.9,6.7c-0.2,0.8-1.5,0.5-1.3-0.3c0.7-2.5,1.7-4.8,3-7
			C299.1,96.4,300.2,97,299.8,97.8L299.8,97.8z"/>
		<path class="st0" d="M216.7,56.7c-0.3,9.5,0,19,0.7,28.5c0.1,0.8-1.2,0.8-1.3,0c-0.8-9.5-1-19-0.7-28.5
			C215.4,55.9,216.7,55.9,216.7,56.7L216.7,56.7z"/>
		<path class="st0" d="M223.2,63.3c-0.7,3.7-0.3,7.3,0.1,11c0.3,3.5-0.2,7,0.1,10.5c0.1,0.8-1.2,0.8-1.3,0
			c-0.4-3.7,0.1-7.5-0.2-11.3c-0.3-3.5-0.6-7,0.1-10.5C222.1,62.1,223.3,62.4,223.2,63.3L223.2,63.3z"/>
		<path class="st0" d="M230.5,68.9c-0.4,2.9,0.7,5.7,1.1,8.5c0.3,2.4,0.3,4.9,0.2,7.3c0,0.8-1.3,0.8-1.3,0c0.1-3.2,0.1-6.2-0.6-9.3
			c-0.5-2.3-1-4.5-0.6-6.9C229.4,67.8,230.6,68.1,230.5,68.9L230.5,68.9z"/>
		<path class="st0" d="M238.3,74.9c0.1,3.3,0.2,6.6,0.2,9.9c0,0.8-1.3,0.8-1.3,0c-0.1-3.3-0.2-6.6-0.2-9.9
			C236.9,74,238.3,74,238.3,74.9L238.3,74.9z"/>
		<path class="st0" d="M208.8,66.3c-0.2,3.2,0.4,6.3,0.8,9.4c0.4,3.4-0.2,6.8,0.6,10.1c0.2,0.8-1.1,1.2-1.3,0.3
			c-0.8-3.2-0.2-6.5-0.6-9.7c-0.4-3.4-1.1-6.8-0.9-10.2C207.5,65.5,208.8,65.5,208.8,66.3L208.8,66.3z"/>
		<path class="st0" d="M203.6,74.5c-0.4,4.2-0.2,8.2,0.7,12.3c0.2,0.8-1.1,1.2-1.3,0.3c-0.9-4.2-1.1-8.4-0.7-12.7
			C202.4,73.6,203.7,73.6,203.6,74.5L203.6,74.5z"/>
		<path class="st0" d="M198.5,80.8c-0.3,2.5,0,4.9,0.9,7.3c0.3,0.8-1,1.1-1.3,0.3c-0.9-2.5-1.2-5-0.9-7.7
			C197.3,80,198.6,80,198.5,80.8L198.5,80.8z"/>
		<path class="st0" d="M158.2,105.8c-3.9-8.3-10.1-15.1-16-22c-0.5-0.6,0.4-1.6,0.9-0.9c5.9,7,12.2,13.9,16.2,22.3
			C159.7,105.9,158.5,106.6,158.2,105.8L158.2,105.8z"/>
		<path class="st0" d="M165.1,101.7c-4.3-5.1-8-10.6-11.1-16.5c-0.4-0.7,0.7-1.4,1.1-0.7c3,5.8,6.7,11.2,10.9,16.2
			C166.5,101.5,165.6,102.4,165.1,101.7L165.1,101.7z"/>
		<path class="st0" d="M173.1,98c-2.5-3.5-5.2-6.9-8.1-10.1c-0.6-0.6,0.4-1.6,0.9-0.9c2.9,3.3,5.7,6.8,8.3,10.4
			C174.7,98.1,173.6,98.7,173.1,98L173.1,98z"/>
		<path class="st0" d="M177.6,95.6c-1.4-1.9-2.9-3.9-4.3-5.8c-0.5-0.7,0.6-1.3,1.1-0.7c1.4,1.9,2.9,3.9,4.3,5.8
			C179.2,95.6,178.1,96.2,177.6,95.6L177.6,95.6z"/>
		<path class="st0" d="M153.2,109.3c-1.4-3.4-3.7-6.4-5.8-9.4c-2.2-3.2-4.4-6.5-6.7-9.7c-0.5-0.7,0.7-1.4,1.1-0.7
			c2.4,3.5,4.8,7,7.1,10.4c2,2.9,4.1,5.7,5.4,9C154.8,109.7,153.5,110.1,153.2,109.3L153.2,109.3z"/>
		<path class="st0" d="M149.2,112.7c-2.8-4.5-6.1-8.5-10-12.1c-0.6-0.6,0.3-1.5,0.9-0.9c4,3.6,7.4,7.7,10.2,12.3
			C150.8,112.8,149.7,113.4,149.2,112.7L149.2,112.7z"/>
		<path class="st0" d="M144,117.1c-1.9-2.1-3.5-4.4-4.7-7c-0.3-0.8,0.8-1.4,1.1-0.7c1.1,2.5,2.6,4.7,4.5,6.7
			C145.5,116.8,144.6,117.7,144,117.1L144,117.1z"/>
		<path class="st0" d="M118.1,149.5c-4.3-1.3-8-4.2-11.8-6.3c-4.3-2.4-8.8-4.6-13.3-6.5c-0.8-0.3-0.1-1.5,0.7-1.1
			c4.3,1.8,8.5,3.9,12.6,6.1c4,2.2,7.8,5.3,12.2,6.6C119.2,148.4,118.9,149.7,118.1,149.5L118.1,149.5z"/>
		<path class="st0" d="M121.7,144.5c-6.7-3.7-13.3-7.4-20-11.1c-0.7-0.4-0.1-1.5,0.7-1.1c6.7,3.7,13.3,7.4,20,11.1
			C123.1,143.8,122.4,144.9,121.7,144.5L121.7,144.5z"/>
		<path class="st0" d="M126.3,138.2c-5.1-2.2-10-4.7-14.8-7.5c-0.7-0.4-0.1-1.6,0.7-1.1c4.8,2.8,9.7,5.3,14.8,7.5
			C127.8,137.4,127.1,138.5,126.3,138.2L126.3,138.2z"/>
		<path class="st0" d="M128.7,133.3c-3.1-1.6-6.2-3.2-9.4-4.7c-0.8-0.4-0.1-1.5,0.7-1.1c3.1,1.5,6.3,3.1,9.4,4.7
			C130.1,132.5,129.4,133.6,128.7,133.3L128.7,133.3z"/>
		<path class="st0" d="M114.3,155.2c-3-0.9-5.7-2.8-8.4-4.3c-3.1-1.7-6.3-3.5-9.4-5.2c-0.7-0.4-0.1-1.5,0.7-1.1
			c2.9,1.6,5.8,3.2,8.6,4.8c2.9,1.6,5.8,3.6,8.9,4.6C115.5,154.2,115.1,155.5,114.3,155.2L114.3,155.2z"/>
		<path class="st0" d="M111.4,161.7c-3.6-2-7.3-4-11-5.8c-0.8-0.4-0.1-1.5,0.7-1.1c3.7,1.9,7.4,3.8,11,5.8
			C112.8,161,112.1,162.1,111.4,161.7L111.4,161.7z"/>
		<path class="st0" d="M109.4,167.3c-2.2-1.5-4.5-2.8-7-3.7c-0.8-0.3-0.4-1.6,0.3-1.3c2.6,1,5.1,2.2,7.4,3.8
			C110.7,166.6,110.1,167.8,109.4,167.3L109.4,167.3z"/>
		<path class="st0" d="M101.8,206.7c-9.2-0.5-18.8-1.8-27.9-0.2c-0.8,0.1-1.2-1.1-0.3-1.3c9.3-1.6,18.9-0.3,28.2,0.2
			C102.7,205.4,102.7,206.7,101.8,206.7L101.8,206.7z"/>
		<path class="st0" d="M102.1,201c-7.1-1.3-14.3-2.1-21.5-2.6c-0.8-0.1-0.8-1.4,0-1.3c7.3,0.5,14.6,1.3,21.8,2.6
			C103.3,199.9,102.9,201.2,102.1,201L102.1,201z"/>
		<path class="st0" d="M102.7,194.4c-4.7-0.4-9.5-1-14.2-1.8c-0.8-0.1-0.5-1.4,0.3-1.3c4.6,0.8,9.2,1.4,13.8,1.8
			C103.5,193.2,103.5,194.5,102.7,194.4L102.7,194.4z"/>
		<path class="st0" d="M103.8,188.3c-3.4,0.1-6.6-0.4-9.8-1.5c-0.8-0.3-0.5-1.6,0.3-1.3c3.1,1.1,6.2,1.6,9.5,1.5
			C104.7,187,104.7,188.3,103.8,188.3L103.8,188.3z"/>
		<path class="st0" d="M101.8,213.7c-6.7-0.8-13.3,1.2-20,0.2c-0.8-0.1-0.5-1.4,0.3-1.3c6.6,1,13.1-1,19.7-0.2
			C102.7,212.5,102.7,213.8,101.8,213.7L101.8,213.7z"/>
		<path class="st0" d="M101.8,219.7c-5-0.3-10.1-0.7-15.1-0.4c-0.8,0-0.8-1.3,0-1.3c5-0.2,10.1,0.1,15.1,0.4
			C102.7,218.5,102.7,219.8,101.8,219.7L101.8,219.7z"/>
		<path class="st0" d="M102.7,225.4c-2.5,0.5-5,0.6-7.6,0.2c-0.8-0.1-0.5-1.4,0.3-1.3c2.3,0.4,4.6,0.3,6.9-0.2
			C103.1,223.9,103.5,225.2,102.7,225.4L102.7,225.4z"/>
		<path class="st0" d="M113.1,263.8c-7.7,5.5-16,10-23.2,16.3c-0.6,0.6-1.6-0.4-0.9-0.9c7.2-6.3,15.6-10.9,23.4-16.5
			C113.2,262.2,113.8,263.3,113.1,263.8L113.1,263.8z"/>
		<path class="st0" d="M110.1,258.6c-3.7,1.9-7.4,3.9-10.7,6.4c-2.7,2-5.2,4.1-8.4,5.3c-0.8,0.3-1.1-1-0.3-1.3
			c3.4-1.3,6-3.7,8.8-5.8c3.1-2.3,6.5-4.1,10-5.8C110.2,257,110.9,258.2,110.1,258.6L110.1,258.6z"/>
		<path class="st0" d="M107.7,252.1c-4.1,1.9-7.9,4.2-11.6,6.7c-0.7,0.5-1.4-0.7-0.7-1.1c3.7-2.6,7.6-4.8,11.6-6.7
			C107.8,250.6,108.4,251.8,107.7,252.1L107.7,252.1z"/>
		<path class="st0" d="M105.9,246.1c-2.8,1.4-5.4,3-7.9,4.8c-0.7,0.5-1.3-0.6-0.7-1.1c2.5-1.8,5.2-3.4,7.9-4.8
			C106,244.6,106.6,245.7,105.9,246.1L105.9,246.1z"/>
		<path class="st0" d="M115.5,271.3c-6.3,3.4-12.4,7.2-18.3,11.3c-0.7,0.5-1.4-0.7-0.7-1.1c5.9-4.1,12-7.9,18.3-11.3
			C115.6,269.8,116.3,270.9,115.5,271.3L115.5,271.3z"/>
		<path class="st0" d="M119.3,276.9c-4.9,2.5-9.8,5.2-14.5,8c-0.7,0.4-1.4-0.7-0.7-1.1c4.7-2.9,9.5-5.6,14.5-8
			C119.4,275.4,120,276.5,119.3,276.9L119.3,276.9z"/>
		<path class="st0" d="M122.5,283.1c-2.7,1.7-5.4,3.3-8.1,5c-0.6,0.4-1.4-0.6-0.8-1c0.2-0.1,0.3-0.2,0.5-0.4
			c0.7-0.5,1.6,0.4,0.9,0.9c-0.2,0.1-0.3,0.2-0.5,0.4c-0.3-0.3-0.5-0.7-0.8-1c2.7-1.7,5.4-3.3,8.1-5
			C122.6,281.5,123.2,282.7,122.5,283.1L122.5,283.1z"/>
		<path class="st0" d="M153.1,314.4c-4.4,8.5-9.3,16.7-14.6,24.7c-0.5,0.7-1.6,0-1.1-0.7c5.3-8,10.2-16.2,14.6-24.7
			C152.4,313,153.5,313.7,153.1,314.4L153.1,314.4z"/>
		<path class="st0" d="M148.6,310.8c-2.3,3.2-4.2,6.7-6.1,10.2c-1,1.8-1.9,3.5-2.9,5.3c-0.5,0.9-1,1.8-1.5,2.6
			c-0.2,0.4-1.7,2.4-1.6,2.8c-0.3-0.2-0.5-0.3-0.8-0.5c0,0,0.1,0,0.1,0c-0.2,0.3-0.3,0.5-0.5,0.8c0,0,0-0.1,0-0.1
			c-0.1-0.8,1.2-1.2,1.3-0.3c0,0,0,0.1,0,0.1c0,0.3-0.1,0.7-0.5,0.8c0,0-0.1,0-0.1,0c-0.3,0.1-0.7-0.1-0.8-0.5
			c-0.3-1.2,1-2.5,1.6-3.5c1.2-2.1,2.4-4.3,3.5-6.4c2.3-4.1,4.5-8.2,7.2-12.1C148,309.4,149.1,310.1,148.6,310.8L148.6,310.8z"/>
		<path class="st0" d="M144.1,307.1c-3.1,4.6-5.9,9.4-8.5,14.3c-0.4,0.7-1.3,0.2-1.2-0.5c0-0.2,0.1-0.4,0.1-0.5
			c0.1-0.8,1.4-0.5,1.3,0.3c0,0.2-0.1,0.4-0.1,0.5c-0.4-0.2-0.8-0.3-1.2-0.5c2.5-4.9,5.4-9.7,8.5-14.3
			C143.4,305.7,144.6,306.4,144.1,307.1L144.1,307.1z"/>
		<path class="st0" d="M140.3,302.9c-2.6,2.9-4.9,6-6.9,9.3c-0.4,0.7-1.6,0.1-1.1-0.7c2-3.5,4.4-6.7,7.1-9.6
			C140,301.3,140.9,302.3,140.3,302.9L140.3,302.9z"/>
		<path class="st0" d="M136,298.8c-1.2,1.5-2.3,3.2-3.2,4.9c-0.4,0.8-1.5,0.1-1.1-0.7c1-1.8,2.1-3.6,3.4-5.2
			C135.6,297.3,136.6,298.2,136,298.8L136,298.8z"/>
		<path class="st0" d="M158.3,318.4c-3.9,6.3-7.8,12.6-11.7,18.9c-0.4,0.7-1.6,0.1-1.1-0.7c3.9-6.3,7.8-12.6,11.7-18.9
			C157.6,317,158.7,317.7,158.3,318.4L158.3,318.4z"/>
		<path class="st0" d="M163,321.4c-3.1,4.4-5.9,9.1-8.3,13.9c-0.4,0.8-1.5,0.1-1.1-0.7c2.4-4.8,5.2-9.5,8.3-13.9
			C162.4,320,163.5,320.7,163,321.4L163,321.4z"/>
		<path class="st0" d="M168.5,324.5c-2.2,2.8-4.2,5.8-6.1,8.8c-0.4,0.7-1.6,0.1-1.1-0.7c1.9-3,3.9-6,6.1-8.8
			C167.9,323.2,169.1,323.9,168.5,324.5L168.5,324.5z"/>
		<path class="st0" d="M212.3,338.9c-2.1,9.2-3.2,18.5-3.2,27.9c0,0.8-1.3,0.8-1.3,0c0.1-9.5,1.2-19,3.3-28.2
			C211.2,337.7,212.4,338.1,212.3,338.9L212.3,338.9z"/>
		<path class="st0" d="M205.5,337.4c-1.7,6.8-2.5,13.6-2.3,20.6c0,0.8-1.3,0.8-1.3,0c-0.2-7.1,0.5-14.1,2.3-21
			C204.5,336.2,205.8,336.5,205.5,337.4L205.5,337.4z"/>
		<path class="st0" d="M199.5,335.1c-0.3,5.6-0.7,11.2-1.8,16.8c-0.2,0.8-1.4,0.5-1.3-0.3c1.1-5.4,1.5-10.9,1.8-16.4
			C198.3,334.3,199.6,334.3,199.5,335.1L199.5,335.1z"/>
		<path class="st0" d="M194.1,334.3c-0.2,3.8-1,7.5-1.7,11.3c-0.1,0.8-1.4,0.5-1.3-0.3c0.6-3.6,1.5-7.3,1.7-10.9
			C192.9,333.5,194.2,333.5,194.1,334.3L194.1,334.3z"/>
		<path class="st0" d="M189.2,333.6c-0.7,2.2-1.1,4.4-1.2,6.6c0,0.8-1.3,0.8-1.3,0c0.1-2.4,0.5-4.7,1.3-7
			C188.2,332.5,189.5,332.8,189.2,333.6L189.2,333.6z"/>
		<path class="st0" d="M216.9,339.5c-1.6,7.4-1,15-2.4,22.4c-0.2,0.8-1.4,0.5-1.3-0.3c1.4-7.4,0.8-15.1,2.4-22.4
			C215.8,338.3,217.1,338.7,216.9,339.5L216.9,339.5z"/>
		<path class="st0" d="M222.7,339.4c-0.3,5.5-0.6,10.9-0.9,16.4c0,0.8-1.4,0.8-1.3,0c0.3-5.5,0.6-10.9,0.9-16.4
			C221.4,338.5,222.7,338.5,222.7,339.4L222.7,339.4z"/>
		<path class="st0" d="M229.5,339.8c-0.4,3.5-0.8,7-1.2,10.5c-0.1,0.8-1.4,0.8-1.3,0c0.4-3.5,0.8-7,1.2-10.5
			C228.3,339,229.6,338.9,229.5,339.8L229.5,339.8z"/>
		<path class="st0" d="M283.7,357.7c-0.5-2.5-1.9-4.7-3-7c-1-1.9-1.8-3.9-2.6-5.9c-1.8-4.4-3.1-8.9-4.1-13.5
			c-0.2-0.8,1.1-1.2,1.3-0.3c1,4.6,2.3,9.1,4.1,13.5c0.9,2.3,1.9,4.5,3,6.6c1,2,2.2,4,2.6,6.2C285.2,358.2,283.9,358.6,283.7,357.7
			L283.7,357.7z"/>
		<path class="st0" d="M276.7,355.4c-4.3-6.7-7-14.3-8-22.2c-0.1-0.8,1.2-0.8,1.3,0c1,7.7,3.7,15,7.8,21.5
			C278.3,355.4,277.2,356.1,276.7,355.4L276.7,355.4z"/>
		<path class="st0" d="M267.9,350.4c-2.7-5.1-4.9-10.3-6.6-15.9c-0.2-0.8,1-1.2,1.3-0.3c1.6,5.4,3.8,10.6,6.5,15.5
			C269.4,350.5,268.3,351.1,267.9,350.4L267.9,350.4z"/>
		<path class="st0" d="M258.4,347.2c-1.3-3.5-2.6-7-3.8-10.6c-0.3-0.8,1-1.2,1.3-0.3c1.2,3.6,2.4,7.1,3.8,10.6
			C260,347.7,258.7,348,258.4,347.2L258.4,347.2z"/>
		<path class="st0" d="M252.2,343.4c-0.9-2-1.5-4-2-6.1c-0.2-0.8,1.1-1.2,1.3-0.3c0.4,2,1.1,3.9,1.9,5.8
			C253.6,343.5,252.5,344.2,252.2,343.4L252.2,343.4z"/>
		<path class="st0" d="M286.8,347.9c-2.8-6.5-4.6-13.4-6.4-20.3c-0.2-0.8,1.1-1.2,1.3-0.3c1.8,6.8,3.5,13.5,6.3,20
			C288.3,348,287.2,348.6,286.8,347.9L286.8,347.9z"/>
		<path class="st0" d="M290,337.6c-0.6-4.5-2.2-8.8-4.7-12.6c-0.5-0.7,0.7-1.4,1.1-0.7c2.6,4,4.2,8.5,4.9,13.2
			C291.4,338.5,290.1,338.4,290,337.6L290,337.6z"/>
		<path class="st0" d="M340.6,320.3c-3.4-3.7-7.3-6.8-11-10.2c-3.3-3-5.3-7.4-9.1-10c-0.7-0.5,0-1.6,0.7-1.1
			c3.6,2.5,5.6,6.6,8.7,9.6c3.8,3.7,7.9,6.9,11.5,10.8C342.1,320,341.2,320.9,340.6,320.3L340.6,320.3z"/>
		<path class="st0" d="M340.1,313.4c-4.3-6.4-9.2-12.3-14.7-17.7c-0.6-0.6,0.3-1.5,0.9-0.9c5.6,5.5,10.6,11.5,14.9,18
			C341.7,313.4,340.6,314.1,340.1,313.4L340.1,313.4z"/>
		<path class="st0" d="M339.7,301.4c-3.6-4-7.1-8-10.5-12.1c-0.5-0.6,0.4-1.6,0.9-0.9c3.4,4.1,6.9,8.1,10.5,12.1
			C341.2,301.1,340.2,302,339.7,301.4L339.7,301.4z"/>
		<path class="st0" d="M338.6,291.5c-1.7-2.4-3.4-4.8-5-7.3c-0.5-0.7,0.7-1.4,1.1-0.7c1.6,2.5,3.3,4.9,5,7.3
			C340.2,291.5,339.1,292.2,338.6,291.5L338.6,291.5z"/>
		<path class="st0" d="M333,320.3c-1.4-0.3-2.3-1.1-3.3-2.1c-1.6-1.6-3.1-3.3-4.5-5c-2.7-3.2-5.2-6.5-7.5-10
			c-0.5-0.7,0.7-1.4,1.1-0.7c2.1,3.2,4.4,6.2,6.8,9.1c1.1,1.3,2.2,2.6,3.4,3.9c1.2,1.3,2.5,3.1,4.4,3.5
			C334.2,319.2,333.9,320.5,333,320.3L333,320.3z"/>
		<path class="st0" d="M323.5,320.4c-4.3-3.7-8.6-7.4-11.5-12.3c-0.4-0.7,0.7-1.4,1.1-0.7c2.9,4.8,7.1,8.5,11.3,12.1
			C325.1,320,324.1,321,323.5,320.4L323.5,320.4z"/>
		<path class="st0" d="M313.7,320c-3-1.9-5.5-4.4-7.4-7.5c-0.4-0.7,0.7-1.4,1.1-0.7c1.8,2.9,4.1,5.2,6.9,7
			C315.1,319.3,314.4,320.5,313.7,320L313.7,320z"/>
		<path class="st0" d="M306.6,319.3c-1.8-1.1-3.1-2.9-3.7-4.9c-0.2-0.8,1-1.2,1.3-0.3c0.5,1.7,1.5,3.2,3.1,4.1
			C308,318.6,307.4,319.7,306.6,319.3L306.6,319.3z"/>
		<path class="st0" d="M378.1,255.9c-2.1,0.2-3.9-0.7-5.8-1.5c-2.4-1-4.8-1.7-7.4-2.3c-2.2-0.5-4.4-1-6.6-1.6
			c-2.5-0.7-5.1-2.3-7.7-2.6c-0.8-0.1-0.8-1.4,0-1.3c2.2,0.2,4.1,1.4,6.2,2.1c2.3,0.8,4.6,1.3,6.9,1.8c2.2,0.5,4.4,1,6.5,1.7
			c2.5,0.9,4.9,2.6,7.7,2.4C379,254.5,379,255.8,378.1,255.9L378.1,255.9z"/>
		<path class="st0" d="M373.6,249.9c-3.7-1.2-7.5-1.4-11.2-2.7c-3.4-1.3-6.7-3.1-10.3-3.8c-0.8-0.2-0.5-1.4,0.3-1.3
			c3.7,0.7,6.9,2.5,10.3,3.8c3.6,1.4,7.5,1.6,11.2,2.7C374.7,248.9,374.4,250.2,373.6,249.9L373.6,249.9z"/>
		<path class="st0" d="M369.6,243.7c-5.6-1.8-11.1-3.9-16.6-6.3c-0.8-0.3-0.1-1.5,0.7-1.1c5.3,2.3,10.7,4.4,16.2,6.2
			C370.8,242.7,370.4,243.9,369.6,243.7L369.6,243.7z"/>
		<path class="st0" d="M364.8,234.2c-1.4,0.2-2.4-0.3-3.7-0.9c-2-0.9-4.1-1.5-6.2-1.8c-0.8-0.1-0.8-1.4,0-1.3
			c1.5,0.2,2.9,0.5,4.3,0.9c1.5,0.5,3.7,2,5.2,1.8C365.3,232.8,365.6,234.1,364.8,234.2L364.8,234.2z"/>
		<path class="st0" d="M360.8,227.5c-2.1,0.2-4.2-0.3-6.1-1.4c-0.7-0.5-0.1-1.6,0.7-1.1c1.6,1.1,3.4,1.5,5.4,1.3
			C361.7,226.1,361.7,227.4,360.8,227.5L360.8,227.5z"/>
		<path class="st0" d="M370.7,260.1c-7.6-0.4-14.6-3.7-22-5.2c-0.8-0.2-0.5-1.4,0.3-1.3c7.3,1.5,14.2,4.7,21.6,5.2
			C371.6,258.9,371.6,260.2,370.7,260.1L370.7,260.1z"/>
		<path class="st0" d="M362,264.5c-6-0.7-11.1-4.1-17-5.2c-0.8-0.2-0.5-1.4,0.3-1.3c5.7,1.1,10.8,4.5,16.6,5.2
			C362.8,263.3,362.8,264.6,362,264.5L362,264.5z"/>
		<path class="st0" d="M354.5,267.9c-4.1,0-8.1-0.6-12-1.6c-0.8-0.2-0.5-1.5,0.3-1.3c3.8,1.1,7.7,1.6,11.6,1.6
			C355.3,266.6,355.3,267.9,354.5,267.9L354.5,267.9z"/>
		<g>
			<path class="st0" d="M257.5,525.4c-8.7,0.3-17.4,0.6-26.1,0.6c-1.9,0-3.8,0-5.7-0.2c-0.8-0.1-2.8-0.2-2.1-1.5
				c0.3-0.5,0.9-1,1.2-1.4c0.7-0.8,1.3-1.7,2-2.6c1.8-2.4,3.5-4.8,5.2-7.3c2.8-4,5.5-8,8.2-12c0.3-0.5,1-0.5,1.4,0
				c4.8,6.8,9.7,13.5,14.5,20.3c0.7,1,1.4,1.9,2.1,2.9c0.6,0.8-0.8,1.6-1.4,0.8c-4.8-6.8-9.7-13.5-14.5-20.3c-0.7-1-1.4-1.9-2.1-2.9
				c0.5,0,0.9,0,1.4,0c-2.1,3.1-4.2,6.2-6.3,9.2c-3,4.4-6,8.8-9.4,12.9c-0.2,0.3-0.4,0.5-0.7,0.8c-0.1,0.1-0.1,0.2-0.2,0.3
				c-0.6,0.3-0.1-1.1-0.3-0.9c0.1,0-0.2,0,0,0c0.1,0,0.2,0,0.2,0.1c0.2,0,0.4,0.1,0.6,0.1c1.8,0.2,3.6,0.2,5.4,0.2
				c5.3,0,10.6-0.1,15.9-0.2c3.5-0.1,7-0.2,10.6-0.3C258.5,523.8,258.5,525.4,257.5,525.4z"/>
			<path class="st0" d="M258.2,524.2c2.8,5.5,5.7,11,8.5,16.5c1.6,3.1,3.2,6.3,4.9,9.4c0.5,1,1.2,1.8,0.8,2.9
				c-1.8,5.3-3.7,10.6-5.5,15.9c-2.8,8.1-5.6,16.2-8.4,24.2c-1.7,4.8-3.2,9.8-5,14.6c0,0.1-0.1,0.2-0.1,0.2c-0.1,0.4-0.5,0.7-1,0.6
				c-10.1-2.5-20.1-5.1-30.2-7.6c-1.4-0.4-2.9-0.7-4.3-1.1c-0.2-0.1-0.5-0.3-0.6-0.6c-1.8-11.2-3.6-22.5-5.4-33.7
				c-0.4-2.7-0.9-5.5-1.3-8.2c-0.2-1-0.7-2.5-0.4-3.5c0.4-1.4,1.3-2.9,1.9-4.2c1.4-3.2,2.9-6.3,4.3-9.5c2.4-5.4,4.8-10.7,7.3-16.1
				c0.2-0.5,0.9-0.5,1.2-0.2c5.4,4.6,10.7,9.2,16.1,13.8c0.8,0.7,1.6,1.3,2.3,2c-0.4,0-0.7,0-1.1,0c4.9-5.3,9.8-10.5,14.8-15.8
				c0.7-0.7,1.8,0.4,1.1,1.1c-4.9,5.3-9.8,10.5-14.8,15.8c-0.3,0.3-0.8,0.3-1.1,0c-5.4-4.6-10.7-9.2-16.1-13.8
				c-0.8-0.7-1.6-1.3-2.3-2c0.4-0.1,0.8-0.1,1.2-0.2c-2,4.5-4,9-6.1,13.4c-1.5,3.3-3,6.6-4.4,9.9c-0.9,2-1.7,4.1-2.7,6.1
				c-0.4,0.8-0.2-0.4-0.1,0c0.2,0.5,0.2,1.2,0.3,1.7c0.4,2.4,0.8,4.8,1.1,7.2c1.1,7.1,2.3,14.3,3.4,21.4c0.8,4.8,1.5,9.5,2.3,14.3
				c-0.2-0.2-0.4-0.4-0.6-0.6c10.1,2.5,20.1,5.1,30.2,7.6c1.4,0.4,2.9,0.7,4.3,1.1c-0.3,0.2-0.6,0.4-1,0.6
				c4.1-11.9,8.3-23.9,12.4-35.8c2.1-6,4.2-12.1,6.3-18.1c0.1-0.4,0.3-1.2,0.5-1.5c0.3-0.4-0.8,0.4,0.1,0.4c-0.1,0-0.3-0.6-0.3-0.6
				c-1.4-2.7-2.7-5.3-4.1-8c-3.3-6.4-6.5-12.7-9.8-19.1C256.4,524.1,257.7,523.3,258.2,524.2z"/>
			<path class="st0" d="M255.4,566C255.4,566.4,255.5,566.3,255.4,566c-0.2-0.2-0.3-0.4-0.3-0.6c-0.3-0.7-0.7-1.4-1-2.1
				c-1-2.1-2.1-4.2-3.2-6.2c-2.3-4.4-4.7-8.8-7.2-13.2c-0.5-1-1.1-2-1.6-3c0.4,0.1,0.8,0.1,1.2,0.2c-5.4,6.6-10.7,13.2-16.1,19.8
				c-0.8,0.9-1.5,1.9-2.3,2.8c0-0.3,0.1-0.6,0.1-1c3.4,7.3,6.9,14.6,10.2,21.9c0.3,0.8,0.7,1.5,1,2.3c0.1,0.2,0.2,0.5,0.3,0.8
				c0,0.1,0.2,0.7,0.1,0.3c-0.2-0.2-0.4-0.4-0.6-0.6c-0.6-0.2-0.7,0.3-0.5,0c0.1-0.2,0.4-0.3,0.5-0.5c0.5-0.5,1.1-1.1,1.6-1.7
				c1.6-1.7,3.3-3.5,4.9-5.3c3.6-3.9,7.1-7.7,10.6-11.6c0.8-0.9,1.6-1.8,2.4-2.6c0.7-0.8,1.8,0.4,1.1,1.1
				c-5.7,6.3-11.4,12.6-17.3,18.8c-0.9,1-1.8,2.1-2.8,2.9c-0.6,0.5-1.1,0.5-1.5-0.2c-0.2-0.4,0.1,0.2-0.1-0.2
				c-0.1-0.2-0.1-0.3-0.2-0.5c-1.8-4.3-3.9-8.5-5.9-12.8c-1.8-3.8-3.6-7.6-5.3-11.4c-0.2-0.4-0.1-0.7,0.1-1
				c5.4-6.6,10.7-13.2,16.1-19.8c0.8-0.9,1.5-1.9,2.3-2.8c0.3-0.4,1-0.3,1.2,0.2c4.1,7.5,8.3,14.9,12.1,22.5c0.5,1,1.6,2.6,1.5,3.9
				C256.8,567.4,255.3,567,255.4,566z"/>
			<path class="st0" d="M271.5,553c-8.8-3.6-17.7-7.2-26.5-10.9c-0.7-0.3-1.3-0.5-2-0.8c-0.1,0-0.4-0.1-0.4-0.2
				c-0.1-0.1,0.7-0.3,0.5-0.1c-0.2,0.2-0.9,0.4-1.2,0.5c-0.8,0.4-1.7,0.7-2.5,1.1c-5.3,2.3-10.7,4.7-16,7c-4,1.8-8,3.5-12,5.3
				c0-0.5,0-0.9,0-1.4c4.5,2.9,9,5.8,13.4,8.7c0.3,0.2,0.4,0.5,0.4,0.9c-1.8,10.5-3.7,21.1-5.5,31.6c-0.3,1.5-0.5,3-0.8,4.5
				c-0.4-0.3-0.8-0.6-1.2-0.9c6-3.7,11.9-7.4,17.9-11.1c0.3-0.2,0.7-0.1,1,0.1c4.8,5.8,9.7,11.5,14.5,17.3c0.7,0.8,1.4,1.6,2.1,2.5
				c-0.4,0.2-0.9,0.4-1.3,0.6c0.8-8.8,1.6-17.6,2.3-26.4c0.4-4.6,0.8-9.2,1.2-13.7c0.1-0.7,0-1.6,0.4-2.1c1.1-1.3,2.7-2.5,4-3.6
				c3.8-3.4,7.6-6.9,11.5-10.3c0.8-0.7,1.9,0.4,1.1,1.1c-3.2,2.9-6.5,5.8-9.7,8.7c-1.7,1.5-3.4,3.1-5.2,4.6
				c-0.1,0.1-0.4,0.4-0.5,0.5c-0.5,0.2,0.7,0,0.1-0.4c0.1,0.1-0.1,0.8-0.1,0.9c-0.9,10.1-1.8,20.1-2.7,30.2c-0.3,3.5-0.6,7-0.9,10.5
				c-0.1,0.6-0.9,1.1-1.3,0.6c-4.8-5.8-9.7-11.5-14.5-17.3c-0.7-0.8-1.4-1.6-2.1-2.5c0.3,0,0.6,0.1,1,0.1c-6,3.7-11.9,7.4-17.9,11.1
				c-0.6,0.4-1.3-0.3-1.2-0.9c1.8-10.5,3.7-21.1,5.5-31.6c0.3-1.5,0.5-3,0.8-4.5c0.1,0.3,0.2,0.6,0.4,0.9c-4.5-2.9-9-5.8-13.4-8.7
				c-0.4-0.3-0.6-1.1,0-1.4c8.9-3.9,17.9-7.8,26.8-11.8c1.5-0.7,3.1-1.4,4.6-2c0.8-0.4,1.3-0.1,2.1,0.2c4.9,2,9.8,4,14.7,6
				c4.4,1.8,8.8,3.6,13.2,5.4C272.9,551.9,272.5,553.4,271.5,553z"/>
			<path class="st0" d="M240.3,523.3c0.1,0,0.3-1.1,0.5-3c0.2-1.9,0.4-4.4,0.6-7.3c0.2-2.9,0.3-5.4,0.4-7.3c0-1.9,0-3-0.1-3
				c-0.1,0-0.2,1.2-0.4,3c-0.2,1.9-0.3,4.5-0.5,7.3c-0.2,2.9-0.3,5.4-0.4,7.3C240.2,522.1,240.2,523.3,240.3,523.3z"/>
			<path class="st0" d="M242.3,525.3c0.1,0,0.2-1,0.4-2.6c0.2-1.6,0.4-3.9,0.5-6.4c0.2-2.5,0.2-4.8,0.3-6.4c0-1.6,0-2.7-0.1-2.7
				c-0.1,0-0.2,1-0.3,2.6c-0.1,1.6-0.3,3.9-0.4,6.4c-0.2,2.5-0.3,4.7-0.4,6.4C242.2,524.2,242.2,525.3,242.3,525.3z"/>
			<path class="st0" d="M245,525.4c0.1,0,0.2-0.9,0.4-2.5c0.1-1.5,0.3-3.6,0.3-6c0-2.3,0-4.4-0.1-6c-0.1-1.5-0.2-2.5-0.3-2.5
				c-0.2,0-0.1,3.8-0.2,8.4C244.9,521.6,244.8,525.4,245,525.4z"/>
			<ellipse class="st0" cx="247.2" cy="518.5" rx="0.3" ry="6.4"/>
			<path class="st0" d="M249.9,524.1c0.1,0,0-0.6,0-1.5c0-0.4,0-1-0.1-1.6c0-0.6,0-1.3,0-1.9c0-1.4,0-2.7-0.1-3.6
				c-0.1-0.9-0.3-1.5-0.4-1.5c-0.1,0-0.1,0.6-0.1,1.5c0,0.9,0,2.2-0.1,3.5c0,0.7,0,1.4,0,2c0,0.6,0.1,1.2,0.2,1.6
				C249.6,523.6,249.8,524.1,249.9,524.1z"/>
			<path class="st0" d="M252.6,524.1c0.2,0,0.1-1.5-0.1-3.3c-0.1-1.8-0.3-3.3-0.5-3.3c-0.2,0-0.3,1.5-0.1,3.3
				C252.1,522.7,252.4,524.1,252.6,524.1z"/>
			<path class="st0" d="M238.6,523.8c0.1,0,0.3-1.1,0.6-2.8c0.3-1.8,0.6-4.2,0.8-6.9c0.2-2.7,0.4-5.1,0.4-6.9c0-1.8,0-2.9-0.1-2.9
				c-0.1,0-0.2,1.1-0.3,2.9c-0.1,1.8-0.4,4.2-0.6,6.9c-0.3,2.7-0.5,5.1-0.6,6.9C238.6,522.7,238.5,523.8,238.6,523.8z"/>
			<path class="st0" d="M236,524.1c0.2,0,0.8-3.6,1.5-8.1c0.3-2.3,0.6-4.3,0.7-5.8c0.1-1.5,0-2.4-0.1-2.4c-0.1,0-0.1,0.9-0.4,2.4
				c-0.2,1.5-0.6,3.5-0.9,5.7C236.2,520.4,235.8,524,236,524.1z"/>
			<path class="st0" d="M232.9,524.8c0.2,0,0.7-3.2,1.4-7.2c0.7-4,1.4-7.2,1.3-7.2c-0.2,0-1.1,3.1-1.9,7.1
				C233,521.4,232.7,524.7,232.9,524.8z"/>
			<path class="st0" d="M230.7,524.3c0.2,0,0.5-2.3,1-5.2c0.4-2.9,0.8-5.3,0.6-5.3c-0.2,0-0.8,2.3-1.2,5.2
				C230.6,521.9,230.5,524.3,230.7,524.3z"/>
			<path class="st0" d="M228.7,523.8c0.2,0,0.4-1.2,0.7-2.8c0.3-1.6,0.4-2.8,0.2-2.9c-0.2,0-0.6,1.2-0.9,2.8
				C228.5,522.5,228.5,523.8,228.7,523.8z"/>
			<path class="st0" d="M239.4,539c0.1,0.1,1.3-1.5,2.8-3.5c1.5-2,2.8-3.5,2.6-3.7c-0.1-0.1-1.6,1.3-3.1,3.3
				C240.2,537.1,239.3,538.9,239.4,539z"/>
			<path class="st0" d="M238.3,535.7c0.1,0.1,1.4-0.9,2.6-2.4c1.2-1.5,2-2.9,1.8-3c-0.1-0.1-1.1,1.2-2.3,2.6
				C239.2,534.4,238.2,535.6,238.3,535.7z"/>
			<path class="st0" d="M236.6,533.4c0.1,0.1,1.2-0.7,2.4-2c1.2-1.2,2-2.3,1.9-2.4c-0.1-0.1-1.2,0.8-2.3,2
				C237.3,532.2,236.4,533.3,236.6,533.4z"/>
			<path class="st0" d="M234.6,532.3c0.1,0.1,0.9-0.9,2-1.9c1.1-1.1,2.1-1.8,2-2c-0.1-0.1-1.3,0.4-2.4,1.5
				C235.1,531,234.5,532.2,234.6,532.3z"/>
			<path class="st0" d="M215.5,550.7c0.1,0.1,3.2-1.6,6.8-4c3.6-2.4,6.4-4.5,6.3-4.7c-0.1-0.1-3,1.8-6.7,4.1
				C218.3,548.6,215.4,550.5,215.5,550.7z"/>
			
				<ellipse transform="matrix(0.8426 -0.5385 0.5385 0.8426 -257.6862 205.0717)" class="st0" cx="222" cy="543.4" rx="7.1" ry="0.3"/>
			<path class="st0" d="M218.4,543c0.1,0.1,2.5-1.1,5.2-2.8c2.8-1.8,4.9-3.4,4.8-3.5c-0.1-0.1-2.4,1.3-5.1,3
				C220.5,541.4,218.3,542.9,218.4,543z"/>
			<path class="st0" d="M219.7,539.2c0.1,0.1,1.7-1,3.7-2.3c2-1.4,3.6-2.5,3.5-2.7c-0.1-0.1-1.8,0.8-3.9,2.2
				C221.1,537.8,219.6,539.1,219.7,539.2z"/>
			<path class="st0" d="M234.9,579.9c0.1,0,0.8-0.9,2-2.4c1.2-1.5,2.7-3.6,4.4-6c1.7-2.4,3.2-4.5,4.3-6.1c1.1-1.6,1.7-2.6,1.6-2.6
				c-0.1,0-0.8,0.9-2,2.4c-1.2,1.5-2.7,3.6-4.4,6c-1.7,2.4-3.2,4.5-4.3,6.1C235.4,578.8,234.8,579.8,234.9,579.9z"/>
			
				<ellipse transform="matrix(0.5447 -0.8386 0.8386 0.5447 -366.5967 459.8748)" class="st0" cx="240.2" cy="567.6" rx="7.4" ry="0.3"/>
			<path class="st0" d="M235.2,570c0.1,0.1,2.4-2.5,5-5.9c2.5-3.4,4.3-6.3,4.2-6.4c-0.1-0.1-2.2,2.7-4.7,6.1
				C237.1,567.1,235.1,569.8,235.2,570z"/>
			<path class="st0" d="M232.4,568.1c0.1,0,0.8-0.9,1.9-2.4c1.1-1.5,2.6-3.7,4.3-6.1c1.6-2.4,3.1-4.6,4.1-6.2c1-1.6,1.6-2.6,1.6-2.7
				c-0.1,0-0.8,0.9-1.9,2.4c-1.1,1.5-2.6,3.7-4.3,6.1c-1.6,2.4-3.1,4.6-4.1,6.2C232.9,567,232.3,568.1,232.4,568.1z"/>
			<path class="st0" d="M257.4,559.9c0.2,0.1,1-2,1.6-4.6c0.7-2.6,1-4.8,0.8-4.8c-0.2,0-0.7,2.1-1.4,4.7
				C257.8,557.7,257.2,559.9,257.4,559.9z"/>
			
				<ellipse transform="matrix(0.1635 -0.9866 0.9866 0.1635 -331.3749 716.7784)" class="st0" cx="257" cy="553.8" rx="3.3" ry="0.3"/>
			
				<ellipse transform="matrix(0.1815 -0.9834 0.9834 0.1815 -333.0599 701.6036)" class="st0" cx="254.9" cy="550.9" rx="3.4" ry="0.3"/>
			<path class="st0" d="M258,543.7c0.2,0,1-2.7,1.8-6.2c0.8-3.5,1.3-6.4,1.1-6.4c-0.2,0-0.9,2.8-1.7,6.3
				C258.4,540.8,257.8,543.7,258,543.7z"/>
			
				<ellipse transform="matrix(0.2213 -0.9752 0.9752 0.2213 -321.0329 667.8448)" class="st0" cx="257.7" cy="535" rx="6.6" ry="0.3"/>
			<path class="st0" d="M254.7,537.8c0.2,0,0.6-2.3,1.2-5.1c0.7-2.8,1.4-5.1,1.2-5.1c-0.2-0.1-1.1,2.1-1.8,5
				C254.7,535.4,254.6,537.8,254.7,537.8z"/>
			<path class="st0" d="M262.8,575.3c0.2,0,0.5-2.8,0.6-6.2c0.1-3.5,0-6.3-0.2-6.3c-0.2,0-0.3,2.8-0.4,6.2
				C262.7,572.5,262.6,575.3,262.8,575.3z"/>
			<path class="st0" d="M259,583.7c0.1,0,0.4-0.9,0.7-2.3c0.3-1.5,0.7-3.5,1-5.8c0.3-2.3,0.4-4.4,0.4-5.9c0-1.5-0.1-2.4-0.1-2.4
				c-0.2,0-0.3,3.7-0.9,8.2C259.5,580.1,258.8,583.7,259,583.7z"/>
			<path class="st0" d="M256.8,588.1c0.2,0,0.5-3.6,1.1-8c0.6-4.4,1.3-8,1.1-8c-0.1,0-0.4,0.9-0.7,2.3c-0.3,1.4-0.7,3.4-1,5.7
				c-0.3,2.2-0.5,4.3-0.6,5.7C256.7,587.2,256.7,588.1,256.8,588.1z"/>
			
				<ellipse transform="matrix(0.6415 -0.7671 0.7671 0.6415 -367.3588 404.7738)" class="st0" cx="249.4" cy="595.4" rx="5.1" ry="0.3"/>
			
				<ellipse transform="matrix(0.5934 -0.8049 0.8049 0.5934 -373.5263 441.338)" class="st0" cx="250.1" cy="590.4" rx="7" ry="0.3"/>
			
				<ellipse transform="matrix(0.6076 -0.7942 0.7942 0.6076 -368.8493 428.4557)" class="st0" cx="249.2" cy="587.5" rx="8.3" ry="0.3"/>
			<path class="st0" d="M246.5,585.8c0.1,0.1,1.9-1.7,3.9-4.1c2-2.4,3.5-4.5,3.3-4.6c-0.1-0.1-1.8,1.8-3.8,4.2
				C247.9,583.7,246.3,585.7,246.5,585.8z"/>
			<path class="st0" d="M231.7,600.9c0.1,0.1,1.5-2,2.6-4.8c1.1-2.8,1.6-5.3,1.5-5.3c-0.2,0-0.9,2.3-2.1,5.1
				C232.6,598.6,231.6,600.8,231.7,600.9z"/>
			<path class="st0" d="M229.2,601.7c0.1,0.1,1.3-2.1,2.3-4.9c1-2.8,1.5-5.2,1.4-5.2c-0.2,0-0.9,2.2-2,5
				C229.9,599.4,229,601.6,229.2,601.7z"/>
			<ellipse transform="matrix(0.3466 -0.938 0.938 0.3466 -409.4334 604.612)" class="st0" cx="229.2" cy="596.2" rx="3" ry="0.3"/>
			
				<ellipse transform="matrix(0.4057 -0.914 0.914 0.4057 -406.9906 576.0258)" class="st0" cx="239.5" cy="601" rx="2.6" ry="0.3"/>
			<path class="st0" d="M221.1,591.1c0.1,0.1,1.9-1.2,4.1-2.9c2.2-1.7,4-3,3.9-3.1c-0.1-0.1-2,1-4.2,2.6
				C222.6,589.4,221,590.9,221.1,591.1z"/>
			<path class="st0" d="M220.9,588.2c0.1,0.1,2.2-1.2,4.5-3.2c2.3-2,3.9-3.8,3.8-3.9c-0.1-0.1-1.9,1.5-4.2,3.5
				C222.7,586.5,220.8,588.1,220.9,588.2z"/>
			<path class="st0" d="M222.1,584.4c0.1,0.1,1.7-0.7,3.4-2.1c1.7-1.4,2.9-2.8,2.8-2.9c-0.1-0.1-1.5,1-3.2,2.4
				C223.4,583.2,222,584.2,222.1,584.4z"/>
			<path class="st0" d="M223,581.2c0.1,0.1,1.1-0.3,2.1-1.2c1-0.9,1.7-1.8,1.5-1.9c-0.1-0.1-0.9,0.6-1.9,1.5
				C223.8,580.4,222.9,581.1,223,581.2z"/>
			<path class="st0" d="M216.2,576.4c0.2,0.1,1.3-2.6,2.8-5.9c1.4-3.3,2.6-5.9,2.4-6c-0.1-0.1-1.6,2.5-3,5.8
				C217,573.6,216.1,576.3,216.2,576.4z"/>
			<path class="st0" d="M214.7,573.9c0.2,0.1,1.2-2.6,2.6-5.7c1.4-3.2,2.5-5.7,2.4-5.8c-0.1-0.1-1.6,2.4-2.9,5.6
				C215.4,571.1,214.6,573.8,214.7,573.9z"/>
			<path class="st0" d="M225,557.2c0.1,0.1,1.5-1.4,2.9-3.6c1.4-2.2,2.2-4.1,2-4.1c-0.2-0.1-1.2,1.7-2.5,3.8
				C226,555.4,224.8,557.1,225,557.2z"/>
			<path class="st0" d="M222.2,556.6c0.1,0.1,1.5-1.3,3-3.2c1.5-1.9,2.5-3.6,2.4-3.7c-0.1-0.1-1.4,1.4-2.9,3.3
				C223.2,554.9,222.1,556.5,222.2,556.6z"/>
		</g>
		<g>
			<path class="st0" d="M313.6,470c0.1,0.4,0.3,0.7,0.5,1.1c0.5,1,1,2,1.5,3c1.7,3.5,3.4,6.9,5.1,10.4c4.1,8.5,8.3,16.9,12.4,25.4
				c1.2,2.5,2.5,5.1,3.7,7.6c0.1,0.2,0.2,0.5,0.3,0.7c0,0.3,0.2,0.4,0.5,0.5c0.1,0,0.1,0.1,0.2,0.1c0.8,0.1,1.3-1,1.6-1.5
				c4.5-7.1,8.3-14.6,12.3-22c1.2-2.2,2.6-4.4,3.6-6.7c0.7-1.6,1-3.4,1.5-5.1c2.5-8.7,4.9-17.4,7.4-26l0-0.2l1.7-7.3
				c0.1-0.1,0.2-0.1,0.3-0.2l-0.2-0.3l0.2-0.7l-0.1-0.2l0.1-0.1c0,0-0.1,0-0.1-0.1l-1.3-4.2c-2.6-6.9-5.3-13.9-7.9-20.8c0,0,0,0,0,0
				c0,0,0,0,0,0c0-0.2-0.1-0.3-0.3-0.4c-4.8-5.1-9.6-10.3-14.4-15.4H341c-0.7,0.8-1.5,1.5-2.2,2.3c-5.1,5.3-10.2,10.7-15.3,16
				c-0.1,0.1-0.3,0.2-0.3,0.4c-0.1,0.5-0.2,1-0.3,1.4c-1.7,7.9-3.5,15.8-5.2,23.7c-0.9,4.2-1.9,8.4-2.8,12.7c-0.3,1.3-0.6,2.7-0.9,4
				c-0.1,0.5-0.3,1-0.3,1.5C313.5,469.6,313.5,469.8,313.6,470z M321.4,472.9c0,0.5,0,1,0,1.4c-1.9-1.5-3.8-2.9-5.7-4.4
				c2.3-1.1,4.5-2.1,6.8-3.2c0.5,0.8,1.1,1.5,1.6,2.3c3.8,5.4,7.7,10.8,11.5,16.2c-3.8-2.9-7.6-5.8-11.4-8.8c-0.1-0.7-0.2-2-0.4-3.5
				c-0.3-2.2-0.6-4.1-0.7-4c-0.2,0-0.2,1.9,0.2,4.1c0.2,1.2,0.4,2.3,0.6,3.1c-0.6-0.5-1.2-1-1.9-1.4c0-0.5,0.1-1.1,0-1.8
				c0-1.8-0.3-3.3-0.5-3.3C321.3,469.6,321.3,471.1,321.4,472.9z M364.1,449.1c-4.4,2.7-8.8,5.5-13.2,8.2c-1.6-3.7-3.5-7.3-5.3-11
				c-1.2-2.6-2.4-5.1-3.7-7.7c0.4,0.2,0.8,0.4,1.1,0.5c2.5,1.2,5.1,2.4,7.6,3.6c-0.3,0.4-0.7,1.3-1.2,2.3c-0.6,1.5-1.1,2.7-0.9,2.8
				c0.1,0.1,0.8-1,1.5-2.5c0.5-1,0.8-2,0.9-2.5C355.4,445,359.7,447.1,364.1,449.1z M352.8,421.3c0-0.1,0-0.1-0.1-0.2
				c0.5,0.6,1.1,1.2,1.6,1.8c-0.8,0.1-1.6,0.1-2.4,0.2c-0.1,0-0.3,0-0.4,0c-0.1-0.6-0.2-1.5-0.5-2.3c-0.2-0.8-0.4-1.5-0.7-2.1
				c0.5,0.5,1,1.1,1.5,1.6c0,0.3,0.1,0.7,0.3,1.2c0.3,0.8,0.6,1.4,0.7,1.4C353.1,422.9,353.1,422.2,352.8,421.3z M342.4,416.8
				c-0.1-3.2-0.3-5.9-0.5-7.2c0.4,0.5,0.9,1,1.3,1.4c0,1.1,0.2,3.6,0.5,6.4c0.3,2.9,0.7,5.4,0.9,6.4c-0.8,0.1-1.7,0.1-2.5,0.2
				c0.1-0.4,0.1-0.9,0.2-1.5C342.5,421,342.4,419,342.4,416.8z M343.5,411.3c0.5,0.5,0.9,1,1.4,1.5c0,0.8,0.4,3.2,1,6.1
				c0.3,1.7,0.7,3.3,0.8,4.4c0,0.1,0,0.2,0,0.4c-0.6,0.1-1.3,0.1-1.9,0.2c0-1.1-0.2-3.6-0.5-6.5
				C344.1,414.7,343.8,412.5,343.5,411.3z M345.2,413.1c0.8,0.8,1.6,1.7,2.3,2.5c0.1,0.9,0.3,2.4,0.6,4.2c0.3,1.5,0.6,2.8,0.8,3.7
				c-0.6,0.1-1.2,0.1-1.8,0.2c0-0.1,0-0.2,0-0.4c-0.1-1.2-0.4-2.8-0.7-4.5C346,416.2,345.5,414.1,345.2,413.1z M348,416
				c0.6,0.7,1.3,1.3,1.9,2c0.1,0.7,0.4,1.7,0.7,2.9c0.2,0.8,0.4,1.6,0.6,2.2c-0.6,0.1-1.3,0.1-1.9,0.2c-0.1-0.9-0.3-2.3-0.6-3.8
				C348.5,418.2,348.2,416.9,348,416z M353.7,424.5c-4.5,3.9-8.9,7.7-13.4,11.6c-4.7-3-9.5-6.1-14.2-9.1c0.6-0.1,1.1-0.1,1.7-0.2
				C336.4,426.1,345.1,425.3,353.7,424.5z M331.7,419.3c0.3-0.4,0.7-0.7,1-1.1c-0.2,0.8-0.3,1.9-0.3,3.1c0,1.2,0.1,2.3,0.1,3.1
				c0,0.2,0,0.3,0,0.5c-0.4,0-0.7,0.1-1.1,0.1c0.1-0.6,0.2-1.6,0.2-2.7C331.7,421,331.7,419.9,331.7,419.3z M333.2,417.8
				c0.6-0.6,1.1-1.2,1.7-1.7c-0.2,0.9-0.3,2.5-0.4,4.3c-0.1,1.8,0,3.4,0.1,4.4c-0.6,0.1-1.2,0.1-1.7,0.2c0-0.1,0-0.3,0.1-0.4
				c0.1-0.8,0.1-1.9,0.1-3.1C333,419.9,333.1,418.6,333.2,417.8z M335.2,415.7c0.6-0.7,1.3-1.4,1.9-2c-0.2,0.4-0.6,2.9-0.6,6
				c0,2,0.1,3.8,0.2,4.9c-0.6,0.1-1.2,0.1-1.8,0.2c0.1-0.9,0.1-2.5,0.1-4.3C335.1,418.3,335.2,416.6,335.2,415.7z M337.2,413.6
				c0.4-0.4,0.8-0.8,1.2-1.3c-0.1,1.2-0.2,3.3-0.2,5.9c0,2.8,0.1,5.1,0.2,6.2c-0.4,0-0.9,0.1-1.3,0.1c0-1.1,0-2.9,0-4.9
				C337.2,416.4,337.3,413.7,337.2,413.6z M323.6,465.7c0.7-1.1,1.3-2.1,2-3.2c4.9-8,9.8-15.9,14.7-23.9c1.6,3.4,3.2,6.8,4.9,10.2
				c1.1,2.2,2.1,4.4,3.2,6.7c0.4,0.8,0.7,1.5,1.1,2.3c0,0.1,0.2,0.5,0.3,0.8c0,0.1,0,0.1-0.1,0.2c-0.2,0.5-0.4,1-0.6,1.6
				c-0.7,1.9-1.4,3.7-2.1,5.6c-2.7,7.1-5.4,14.2-8.1,21.3c-0.4-0.6-0.8-1.1-1.2-1.7C333.1,479,328.3,472.3,323.6,465.7z
				 M349.9,458.8C349.9,458.8,349.9,458.7,349.9,458.8C349.9,458.7,349.9,458.8,349.9,458.8C349.9,458.8,349.9,458.8,349.9,458.8z
				 M323.6,462.9c0-0.7,0-1.4,0.1-2c0.3-11,0.6-22,0.9-33.1c4.9,3.2,9.9,6.3,14.8,9.5c-0.6,1-1.2,2-1.8,3
				C332.9,447.8,328.2,455.4,323.6,462.9z M353.8,487.4c-4.5,0.2-9,0.5-13.5,0.7c1.1-3,2.2-5.9,3.4-8.9c1.9-4.9,3.7-9.8,5.6-14.8
				c0.4-0.9,0.7-1.9,1.1-2.8c0,0.3,0.1,0.5,0.1,0.8C351.5,470.7,352.7,479,353.8,487.4z M322.8,434.4c-0.3,10.3-0.6,20.5-0.9,30.8
				c-2.2,1-4.4,2.1-6.6,3.1c0-0.1,0-0.3,0-0.3c1.8-7.9,3.5-15.9,5.3-23.8C321.4,441,322.1,437.7,322.8,434.4z M326.6,424.7
				c1.6-1.7,3.2-3.3,4.7-5c-0.1,0.6-0.2,1.6-0.3,2.6c-0.1,1.1-0.1,2.1,0,2.7c-0.3,0-0.5,0-0.8,0.1c0.1-0.4,0.2-1,0.2-1.6
				c0.1-1.5,0.1-2.7-0.1-2.7c-0.2,0-0.4,1.2-0.5,2.6c-0.1,0.7-0.1,1.3-0.1,1.7c-0.2,0-0.5,0-0.7,0.1c0.1-0.3,0.2-0.7,0.2-1.1
				c0.1-1.1,0.1-2,0-2c-0.2,0-0.4,0.8-0.6,1.9c-0.1,0.5-0.1,0.9-0.1,1.3c-0.2,0-0.4,0-0.6,0.1c0-0.2,0.1-0.4,0.1-0.6
				c0-0.6-0.1-1.1-0.3-1.1c-0.2,0-0.3,0.5-0.3,1.1c0,0.3,0,0.5,0.1,0.7c-0.6,0.1-1.2,0.1-1.8,0.2C326,425.2,326.3,424.9,326.6,424.7
				z M341.5,409.1c0.1,0.1,0.1,0.1,0.2,0.2c-0.1,1.2,0,4.1,0.1,7.5c0.1,2.2,0.2,4.3,0.2,5.7c0,0.6,0,1.2,0,1.6c-0.5,0-1,0.1-1.4,0.1
				c0.1-1.2,0.1-3.7,0.1-6.5c0-4.1-0.2-7.3-0.3-7.3c-0.2,0-0.3,3.3-0.3,7.3c0,2.8,0.1,5.3,0.2,6.5c-0.5,0-1,0.1-1.6,0.1
				c0.1-1.1,0.2-3.4,0.2-6.1c0-2.7-0.1-5.1-0.2-6.1C339.6,411.1,340.5,410.1,341.5,409.1z M364.3,447.6c-0.5-0.2-0.9-0.4-1.4-0.6
				c-7.1-3.3-14.1-6.7-21.2-10c4.6-4,9.3-8,13.9-12c0.1,0.3,0.2,0.6,0.4,1C358.5,432.2,363.1,444.4,364.3,447.6z M361,462.8
				c-0.3,1-0.6,2.1-0.9,3.1c-0.1-1-0.3-2.5-0.7-4.1c-0.6-2.9-1.4-5.3-1.5-5.2c-0.2,0,0.4,2.4,1,5.3c0.4,2.1,0.8,3.9,1,4.7
				c-1,3.5-2,7-3,10.5c-0.2-1.6-0.5-3.8-0.9-6.2c-0.4-2.4-0.8-4.6-1.2-6.1c-0.3-1.6-0.6-2.5-0.7-2.5c-0.1,0,0,1,0.3,2.6
				c0.2,1.6,0.6,3.7,1,6.1c0.4,2.4,0.8,4.6,1.1,6.1c0.1,0.3,0.1,0.6,0.2,0.8c-0.6,2.1-1.2,4.2-1.8,6.3c0-0.1,0-0.1,0-0.2
				c-1.1-8.4-2.3-16.9-3.4-25.3c4.3-2.7,8.6-5.4,12.9-8l-1.5,5.8l0,0C362.2,458.7,361.6,460.7,361,462.8z M338.7,515.3
				c0-0.3,0-0.6,0-1c0.4-8.2,0.8-16.5,1.1-24.7c4.5-0.2,9-0.4,13.5-0.7c-0.1,0.2-0.2,0.3-0.3,0.5c-1.8,3.3-3.6,6.6-5.4,9.9
				c-2.2,4-4.5,8.1-6.7,12.1C340.2,512.7,339.5,514,338.7,515.3z M331,502.3c-1.3-2.7-2.6-5.4-4-8.1c3.8-1.4,7.5-2.8,11.3-4.2
				c0,0.8-0.1,1.7-0.1,2.5c-0.3,7.5-0.7,14.9-1,22.4c-0.3-0.7-0.6-1.3-1-2c-0.9-1.8-1.7-3.5-2.6-5.3c0.3-0.5,0.9-2.1,1.6-4.1
				c0.8-2.4,1.3-4.4,1.2-4.5c-0.2-0.1-0.9,1.9-1.8,4.3c-0.6,1.8-1,3.3-1.2,4C332.7,505.7,331.9,504,331,502.3z M318.9,477.5
				c-0.8-1.7-1.7-3.4-2.5-5.2c0.2,0.2,0.4,0.3,0.6,0.5c6.9,5.3,13.8,10.6,20.6,15.9c-3.7,1.4-7.5,2.8-11.2,4.2
				C323.9,487.7,321.4,482.6,318.9,477.5z"/>
			<path class="st0" d="M320.8,462.4c0.1,0.1-0.8,1.5-2.3,3c-1.5,1.5-2.8,2.4-2.9,2.3c-0.1-0.1,1.1-1.3,2.5-2.7
				C319.5,463.5,320.6,462.3,320.8,462.4z"/>
			<path class="st0" d="M320.4,460.2c0.1,0.1-0.6,1.2-1.7,2.3c-1.1,1.1-2.3,1.8-2.4,1.7c-0.1-0.1,0.8-1,1.9-2.1
				C319.4,461.1,320.3,460.1,320.4,460.2z"/>
			
				<ellipse transform="matrix(0.6566 -0.7543 0.7543 0.6566 -236.4515 398.2706)" class="st0" cx="319.1" cy="458.8" rx="2.3" ry="0.3"/>
			<path class="st0" d="M319.9,455.6c-0.7,1-1.5,1.6-1.6,1.5c-0.1-0.1,0.4-0.9,1.1-1.9c0.7-1,1.3-1.7,1.5-1.6
				C321.1,453.7,320.7,454.6,319.9,455.6z"/>
			<path class="st0" d="M318.6,455c-0.1-0.1,0.1-0.8,0.6-1.6c0.5-0.8,1-1.3,1.2-1.2c0.1,0.1-0.2,0.8-0.7,1.5
				C319.2,454.5,318.8,455.1,318.6,455z"/>
			
				<ellipse transform="matrix(0.4776 -0.8786 0.8786 0.4776 -236.0125 543.6053)" class="st0" cx="339.1" cy="470.3" rx="8.5" ry="0.3"/>
			<path class="st0" d="M338.1,467.7c1.2-2.5,2.2-4.8,3-6.4c0.8-1.6,1.3-2.6,1.4-2.6c0.1,0-0.3,1.1-1,2.8c-0.7,1.7-1.7,4-2.9,6.5
				c-1.2,2.5-2.3,4.8-3.1,6.4c-0.8,1.6-1.4,2.6-1.5,2.5c-0.1,0,0.4-1.1,1.1-2.7C335.8,472.5,336.9,470.2,338.1,467.7z"/>
			<path class="st0" d="M337.4,463.2c1.5-3.3,2.9-6.3,3.9-8.4c0.5-1.1,0.9-1.9,1.2-2.5c0.3-0.6,0.4-0.9,0.4-0.9c0,0,0,0.4-0.2,1
				c-0.2,0.6-0.6,1.5-1,2.6c-0.9,2.2-2.2,5.2-3.7,8.5c-1.5,3.3-2.9,6.3-3.9,8.4c-1,2.1-1.7,3.4-1.8,3.4c-0.1,0,0.5-1.4,1.4-3.6
				C334.6,469.5,335.9,466.5,337.4,463.2z"/>
			
				<ellipse transform="matrix(0.4387 -0.8986 0.8986 0.4387 -225.5189 560.2998)" class="st0" cx="335.7" cy="460.7" rx="11.2" ry="0.3"/>
			<path class="st0" d="M335.4,456.1c0.1,0.1-1.3,2.5-3,5.5c-1.8,3-3.2,5.4-3.4,5.3c-0.1-0.1,1.1-2.6,2.9-5.6
				C333.6,458.3,335.3,456,335.4,456.1z"/>
			<path class="st0" d="M331.3,441.8c0.5-0.5,0.9-1,1.2-1.3c0.7-0.8,0.9-1.3,1-1.3c0.1,0-0.1,0.7-0.7,1.6c-0.3,0.4-0.7,0.9-1.1,1.4
				c-0.4,0.5-0.9,1.1-1.4,1.7c-2,2.5-3.4,4.6-3.5,4.5c-0.1-0.1,1.1-2.4,3.1-4.9C330.4,442.9,330.9,442.3,331.3,441.8z"/>
			
				<ellipse transform="matrix(0.5753 -0.818 0.818 0.5753 -221.3757 455.9975)" class="st0" cx="328.4" cy="441.2" rx="5.1" ry="0.3"/>
			<path class="st0" d="M326.2,441.1c-0.1-0.1,0.7-1.4,1.8-2.9c1.1-1.5,1.9-2.8,2.1-2.7c0.1,0.1-0.5,1.5-1.6,3
				C327.3,440.1,326.3,441.2,326.2,441.1z"/>
			<path class="st0" d="M326.4,438.2c-0.1-0.1,0.3-1,0.8-2.1c0.6-1.1,1.1-1.9,1.3-1.8c0.1,0.1-0.2,1-0.7,2.1
				C327.1,437.5,326.5,438.3,326.4,438.2z"/>
			<path class="st0" d="M345.9,490.2c0.1,0,0.1,0.4,0.2,1.1c0.1,0.3,0.2,0.7,0.3,1.2c0.1,0.4,0.2,0.9,0.3,1.5
				c0.4,2.1,0.6,3.8,0.5,3.8c-0.2,0-0.6-1.6-1-3.7c-0.1-0.5-0.2-1-0.3-1.5c-0.1-0.5-0.1-0.9-0.2-1.2
				C345.7,490.6,345.9,490.1,345.9,490.2z"/>
			<path class="st0" d="M344.8,496c0.6,3.2,0.9,5.9,0.8,5.9c-0.2,0-0.8-2.6-1.4-5.8c-0.6-3.2-0.8-5.9-0.6-5.9
				C343.7,490.1,344.2,492.7,344.8,496z"/>
			
				<ellipse transform="matrix(0.9972 -7.533510e-02 7.533510e-02 0.9972 -36.5709 27.1909)" class="st0" cx="342.1" cy="498.3" rx="0.3" ry="7.4"/>
			<path class="st0" d="M335.6,493.1c0.2,0.1-0.4,2.1-1.1,4.7c-0.7,2.5-1.3,4.6-1.5,4.6c-0.2,0,0.2-2.2,0.9-4.7
				C334.7,495,335.5,493,335.6,493.1z"/>
			<path class="st0" d="M333.8,493.8c0.2,0.1-0.5,1.6-1.1,3.5c-0.7,1.9-1.1,3.4-1.3,3.4c-0.2,0,0-1.7,0.7-3.6
				C332.8,495.2,333.6,493.7,333.8,493.8z"/>
			
				<ellipse transform="matrix(0.9987 -5.117515e-02 5.117515e-02 0.9987 -24.4564 17.3651)" class="st0" cx="326.9" cy="486.3" rx="0.3" ry="5.2"/>
			
				<ellipse transform="matrix(0.9975 -7.081095e-02 7.081095e-02 0.9975 -33.4445 24.1833)" class="st0" cx="324.4" cy="483.8" rx="0.3" ry="4.3"/>
			
				<ellipse transform="matrix(0.9979 -6.503214e-02 6.503214e-02 0.9979 -30.9465 22.4824)" class="st0" cx="329.9" cy="486.6" rx="0.3" ry="3.6"/>
			<path class="st0" d="M352.2,483.4c-0.2,0.1-1.1-2.2-2.3-5c-1.2-2.8-2.1-5.1-1.9-5.1c0.1-0.1,1.3,2.1,2.5,4.9
				C351.6,480.9,352.3,483.3,352.2,483.4z"/>
			<path class="st0" d="M350,481.7c-0.1,0.1-1.2-1.7-2.3-4c-1.1-2.3-1.7-4.2-1.6-4.3c0.2-0.1,1.1,1.8,2.1,4
				C349.3,479.8,350.2,481.6,350,481.7z"/>
			<path class="st0" d="M347.6,481.1c0.7,1.5,1.1,2.7,1,2.8c-0.1,0.1-0.8-1.1-1.5-2.5c-0.7-1.5-1-2.7-0.9-2.8
				C346.4,478.5,347,479.6,347.6,481.1z"/>
			<path class="st0" d="M358,470.5c-0.2,0-0.7-2.9-1.5-6.5c-0.8-3.6-1.4-6.5-1.3-6.5c0.2,0,1.1,2.8,1.9,6.4
				C357.8,467.5,358.2,470.5,358,470.5z"/>
			<path class="st0" d="M356.4,449.6c-0.8,1.6-1.4,2.8-1.6,2.8c-0.1-0.1,0.3-1.4,1.1-3c0.8-1.6,1.5-2.8,1.7-2.7
				C357.7,446.7,357.2,448.1,356.4,449.6z"/>
			<path class="st0" d="M351.8,452.6c-0.1-0.1,0.5-1.7,1.5-3.7c1-1.9,1.9-3.4,2.1-3.4c0.1,0.1-0.6,1.7-1.5,3.6
				C352.8,451.1,351.9,452.7,351.8,452.6z"/>
			
				<ellipse transform="matrix(0.4459 -0.8951 0.8951 0.4459 -205.1953 562.8571)" class="st0" cx="352" cy="447.2" rx="3.2" ry="0.3"/>
			<path class="st0" d="M338.1,426.6c0.1-0.1,1.6,1,3.3,2.7c1.7,1.7,2.9,3.2,2.7,3.3c-0.1,0.1-1.5-1.2-3.1-2.9
				C339.3,428.1,338,426.8,338.1,426.6z"/>
			<path class="st0" d="M338.3,430.6c-1.9-1.9-3.4-3.5-3.3-3.7c0.1-0.1,1.8,1.3,3.7,3.2c1.9,1.9,3.2,3.7,3.1,3.8
				C341.7,434.1,340.1,432.6,338.3,430.6z"/>
			<path class="st0" d="M337.4,433.1c-0.1,0.1-1.3-0.8-2.5-2.1c-1.2-1.3-2-2.5-1.9-2.6c0.1-0.1,1.1,0.9,2.4,2.2
				C336.6,431.9,337.5,433,337.4,433.1z"/>
			<path class="st0" d="M357.3,435c-1.8-3.1-3-5.7-2.9-5.7c0.1-0.1,1.6,2.4,3.4,5.4c1.8,3.1,3.2,5.6,3.1,5.7
				C360.8,440.5,359.1,438.1,357.3,435z"/>
			
				<ellipse transform="matrix(0.8373 -0.5467 0.5467 0.8373 -180.9757 265.6938)" class="st0" cx="356" cy="436.9" rx="0.3" ry="6.2"/>
			
				<ellipse transform="matrix(0.8593 -0.5114 0.5114 0.8593 -173.7195 242.5546)" class="st0" cx="354.1" cy="437.1" rx="0.3" ry="5.9"/>
		</g>
		<g>
			<path class="st0" d="M102.9,443.8c-5.2-7.4-10.4-14.9-15.5-22.3c0.6,0,1.1,0,1.7,0c-4.9,6.5-9.8,13-14.7,19.5
				c-0.7,0.9-1.4,1.9-2.1,2.8c-0.3-0.5-0.6-1-0.8-1.5c9.5,0,18.9,0,28.4,0c1.3,0,2.7,0,4,0c1.3,0,1.3,1.9,0,1.9
				c-9.5,0-18.9,0-28.4,0c-1.3,0-2.7,0-4,0c-0.7,0-1.3-0.9-0.8-1.5c4.9-6.5,9.8-13,14.7-19.5c0.7-0.9,1.4-1.9,2.1-2.8
				c0.5-0.6,1.2-0.6,1.7,0c5.2,7.4,10.4,14.9,15.5,22.3C105.3,443.9,103.6,444.8,102.9,443.8z"/>
			<path class="st0" d="M99.5,486.3c-1.1-3.1-3-6.9-4.5-10.1c-2.3-5.1-4.6-10.2-6.8-15.3c-0.5-1.2-1-2.3-1.6-3.5
				c0.6-0.1,1.2-0.2,1.8-0.2c-3.8,14.4-7.6,28.7-11.3,43.1c-0.5,2-1.1,4.1-1.6,6.1c-0.5-0.3-1.1-0.6-1.6-0.9
				c7.6-5.9,15.1-11.7,22.7-17.6c1.1-0.8,2.1-1.7,3.2-2.5c1-0.8,2.4,0.6,1.4,1.4c-7.6,5.9-15.1,11.7-22.7,17.6
				c-1.1,0.8-2.1,1.7-3.2,2.5c-0.7,0.6-1.9,0.1-1.6-0.9c3.8-14.4,7.6-28.7,11.3-43.1c0.5-2,1.1-4.1,1.6-6.1c0.2-0.7,1.4-1,1.8-0.2
				c3.8,8.4,7.6,16.8,11.3,25.3c0.6,1.3,1.3,2.7,1.8,4.1C101.8,487,100,487.5,99.5,486.3z"/>
			<path class="st0" d="M104.6,442.8c3.5,7.4,7,14.7,10.6,22.1c1.4,2.9,3.2,5.9,4.3,8.9c0.3,0.7,0,1.1-0.3,1.8
				c-0.5,1.2-1.1,2.4-1.6,3.6c-4.1,9.2-8.2,18.4-12.3,27.6c-1.3,2.8-2.4,5.8-3.8,8.6c-0.2,0.4-0.5,0.7-0.9,1c-1.2,1-2.4,2-3.6,3
				c-7.1,5.7-14.1,11.5-21.2,17.2c-0.2,0.1-0.3,0.3-0.5,0.4c-0.5,0.4-1.1,0.3-1.5-0.2c-4.2-5.8-8.3-11.6-12.5-17.4
				c-2-2.8-4.1-5.7-6.1-8.5c-0.8-1.1-0.5-1.7-0.2-2.9c3.8-16,7.7-32,11.5-48.1c1.3-5.6,2.7-11.2,4-16.7c0.2-0.8,1.1-0.9,1.6-0.4
				c5.4,4.5,10.8,9.1,16.2,13.6c-0.5,0-0.9,0-1.4,0c5.4-4.5,10.8-9.1,16.2-13.6c1-0.8,2.3,0.6,1.4,1.4c-5.4,4.5-10.8,9.1-16.2,13.6
				c-0.4,0.4-0.9,0.4-1.4,0c-5.4-4.5-10.8-9.1-16.2-13.6c0.5-0.1,1.1-0.3,1.6-0.4c-3.3,13.6-6.5,27.2-9.8,40.8
				c-1.8,7.4-3.5,14.8-5.3,22.2c-0.2,0.9-0.4,1.7-0.6,2.6c0,0.2-0.1,0.5-0.1,0.6c-0.3,0.4,0-0.5-0.1-0.5c0.3,0,1.3,1.9,1.5,2.1
				c1,1.5,2.1,2.9,3.1,4.4c4.8,6.7,9.6,13.4,14.4,20.1c-0.5-0.1-1-0.1-1.5-0.2c8.4-6.9,16.9-13.7,25.3-20.6c0.2-0.1,0.4-0.3,0.5-0.4
				c0.2-0.2-0.1,0.2,0,0.1c0.2-0.4,0.4-0.8,0.5-1.2c0.9-2.1,1.9-4.2,2.8-6.3c3-6.6,5.9-13.3,8.9-19.9c2-4.4,3.9-8.9,5.9-13.3
				c0,0.3,0,0.7,0,1c-4.3-9.1-8.7-18.1-13-27.2c-0.6-1.3-1.2-2.6-1.9-3.9C102.3,442.7,104,441.7,104.6,442.8z"/>
			<path class="st0" d="M88,456.1c9.1,5.1,18.2,10.2,27.2,15.3c1.3,0.7,2.6,1.4,3.8,2.2c0.7,0.4,0.6,1.3,0,1.7
				c-6,3.9-12.1,7.8-18.1,11.7c0.2-0.3,0.3-0.6,0.5-0.8c0,8.5,0,17,0,25.5c0,1.2,0,2.5,0,3.7c0,0.6-0.6,1.1-1.2,0.9
				c-8.6-3-17.3-6-25.9-9.1c0.4-0.3,0.8-0.6,1.2-0.9c0,8.8,0,17.6,0,26.3c0,1.3,0,2.5,0,3.8c0,1.3-1.9,1.3-1.9,0
				c0-8.8,0-17.6,0-26.3c0-1.3,0-2.5,0-3.8c0-0.6,0.6-1.1,1.2-0.9c8.6,3,17.3,6,25.9,9.1c-0.4,0.3-0.8,0.6-1.2,0.9
				c0-7.5,0-15,0-22.4c0-1.8,0-3.5,0-5.3c0-0.8-0.2-1.7,0.5-2.3c0.7-0.7,1.8-1.2,2.6-1.7c1.9-1.2,3.7-2.4,5.6-3.6
				c3.3-2.1,6.6-4.2,9.9-6.4c0,0.6,0,1.1,0,1.7c-9.1-5.1-18.2-10.2-27.2-15.3c-1.3-0.7-2.6-1.4-3.8-2.2
				C85.9,457.1,86.9,455.5,88,456.1L88,456.1z"/>
			<path class="st0" d="M55.2,508.8c6.4-1.2,12.7-2.4,19.1-3.6c-0.2,0.3-0.5,0.6-0.7,0.9c-0.4-7.1-0.7-14.2-1.1-21.2
				c-0.6-11.3-1.2-22.6-1.7-33.8c-0.1-2.6-0.3-5.2-0.4-7.7c-0.1-1.2,1.9-1.2,1.9,0c0.4,7.1,0.7,14.2,1.1,21.2
				c0.6,11.3,1.2,22.6,1.7,33.8c0.1,2.6,0.3,5.2,0.4,7.7c0,0.4-0.3,0.9-0.7,0.9c-6.4,1.2-12.7,2.4-19.1,3.6
				C54.5,510.9,54,509,55.2,508.8L55.2,508.8z"/>
			<ellipse class="st0" cx="88.3" cy="432.3" rx="0.4" ry="10.3"/>
			
				<ellipse transform="matrix(0.9994 -3.495783e-02 3.495783e-02 0.9994 -15.087 3.4442)" class="st0" cx="91" cy="433.2" rx="0.4" ry="8.8"/>
			<path class="st0" d="M93.9,442.8C93.9,442.8,93.9,442.8,93.9,442.8c-0.1,0-0.1,0.1-0.1,0.2c0,0,0,0,0.1,0c0,0,0.1,0,0.1,0
				c0.1,0,0.1-0.1,0.1-0.1c0,0,0-0.1,0-0.1c0,0,0-0.1,0-0.1c0-0.2,0.1-0.4,0.1-0.7c0-0.3,0-0.6,0.1-0.9c0.1-1.4-0.1-3.3-0.3-5.4
				c-0.3-2.1-0.5-4-0.6-5.3c-0.1-1.4-0.2-2.2-0.3-2.2c-0.1,0-0.2,0.8-0.2,2.2c0,1.4,0.2,3.3,0.4,5.4c0.3,2.1,0.5,3.9,0.5,5.3
				c0,0.7,0.1,1.2,0.1,1.6C93.9,442.6,93.9,442.7,93.9,442.8C93.9,442.8,93.9,442.8,93.9,442.8C93.9,442.8,93.9,442.8,93.9,442.8
				C93.9,442.8,93.9,442.8,93.9,442.8L93.9,442.8L93.9,442.8L93.9,442.8C93.9,442.9,93.9,442.9,93.9,442.8
				C93.9,442.9,93.9,442.9,93.9,442.8C93.9,442.9,93.9,442.9,93.9,442.8C93.9,442.8,93.9,442.8,93.9,442.8
				C93.9,442.8,93.9,442.8,93.9,442.8z"/>
			<path class="st0" d="M97.1,442.9c0.2,0,0.3-2.2,0-5c-0.3-2.7-0.7-4.9-1-4.9c-0.2,0-0.1,2.2,0.2,4.9
				C96.6,440.7,96.9,442.9,97.1,442.9z"/>
			<path class="st0" d="M100.2,443.2c0.2,0,0.2-1.6-0.2-3.5c-0.4-1.9-1-3.3-1.2-3.2c-0.2,0.1,0.1,1.6,0.5,3.4
				C99.7,441.7,100,443.2,100.2,443.2z"/>
			
				<ellipse transform="matrix(4.540662e-02 -0.999 0.999 4.540662e-02 -351.4118 500.4437)" class="st0" cx="86.1" cy="434.1" rx="8.8" ry="0.4"/>
			<path class="st0" d="M82.4,442.5c0,0-0.1,0,0,0.1c0,0,0.1,0.1,0.1,0.1c0.1,0,0.2,0.1,0.3,0l0,0l0-0.1c0.2-1,0.3-3.8,0.6-7.1
				c0.4-4.1,0.9-7.5,0.7-7.5c-0.2,0-1,3.3-1.4,7.5c-0.3,3.3-0.2,6.1-0.1,7.2l0-0.1c0,0,0,0-0.1,0C82.5,442.6,82.5,442.6,82.4,442.5
				C82.4,442.5,82.4,442.5,82.4,442.5z"/>
			
				<ellipse transform="matrix(0.1472 -0.9891 0.9891 0.1472 -362.8299 452.4182)" class="st0" cx="81" cy="436.6" rx="6.6" ry="0.4"/>
			<path class="st0" d="M77.4,443.7c0.1,0,0.4-0.4,0.7-1.3c0.3-0.8,0.6-2,0.8-3.3c0.2-1.3,0.3-2.5,0.4-3.3c0.1-0.8,0.2-1.4,0.1-1.4
				c-0.1,0-0.4,0.4-0.6,1.3c-0.2,0.8-0.4,2-0.6,3.3C77.8,441.6,77.2,443.6,77.4,443.7z"/>
			
				<ellipse transform="matrix(0.1879 -0.9822 0.9822 0.1879 -370.5243 432.4503)" class="st0" cx="76.3" cy="440.3" rx="2.9" ry="0.4"/>
			<path class="st0" d="M72.9,483.5c0.2,0.1,2.2-2.7,4.3-6.3c2.2-3.6,3.7-6.7,3.5-6.8c-0.2-0.1-2,2.8-4.1,6.4
				C74.5,480.4,72.8,483.3,72.9,483.5z"/>
			<path class="st0" d="M73.2,476.4c0.2,0.1,2.2-2.8,4.6-6.6c0.6-0.9,1.2-1.8,1.7-2.7c0.5-0.8,1-1.6,1.3-2.2
				c0.3-0.7,0.5-1.2,0.6-1.7c0.1-0.4,0.1-0.6,0-0.7c-0.1,0-0.3,0.8-1.1,2.1c-0.4,0.6-0.9,1.3-1.4,2.1c-0.5,0.8-1.1,1.7-1.7,2.6
				C74.8,473.1,73,476.3,73.2,476.4z"/>
			<path class="st0" d="M71.8,471.2c0.2,0.1,2-2.8,4.3-6.3c2.3-3.6,4.2-6.4,4-6.5c-0.2-0.1-2.3,2.6-4.7,6.1
				C73.2,468,71.6,471.1,71.8,471.2z"/>
			<path class="st0" d="M72.7,464.6c0.2,0.1,1.2-2.1,2.8-4.7c1.6-2.6,3.1-4.5,2.9-4.6c-0.1-0.1-1.9,1.6-3.5,4.2
				C73.3,462.1,72.5,464.5,72.7,464.6z"/>
			
				<ellipse transform="matrix(0.4567 -0.8896 0.8896 0.4567 -363.9818 313.7784)" class="st0" cx="74.9" cy="454.9" rx="3.9" ry="0.4"/>
			
				<ellipse transform="matrix(0.9205 -0.3907 0.3907 0.9205 -179.9712 73.2269)" class="st0" cx="90" cy="478.9" rx="0.4" ry="6.7"/>
			
				<ellipse transform="matrix(0.946 -0.3241 0.3241 0.946 -151.5191 54.4574)" class="st0" cx="87.7" cy="482.1" rx="0.4" ry="5.8"/>
			<path class="st0" d="M84.4,479.5c-0.2,0.1,0.5,2.6,1.3,5.7c0.8,3.1,1.4,5.7,1.6,5.7c0.2,0,0-2.7-0.8-5.8
				C85.6,481.9,84.6,479.5,84.4,479.5z"/>
			<path class="st0" d="M82.2,485.1c-0.2,0.1,0.3,1.8,0.8,4c0.5,2.2,0.8,4,1,4c0.2,0,0.2-1.9-0.3-4.1
				C83.3,486.7,82.4,485,82.2,485.1z"/>
			<path class="st0" d="M90.7,510.9c0.2,0.1,2.3-2.8,4.4-6.8c2.2-3.9,3.5-7.3,3.3-7.3c-0.2-0.1-1.9,3.1-4,7
				C92.3,507.6,90.5,510.8,90.7,510.9z"/>
			<path class="st0" d="M89.5,507.8c0.2,0.1,1.6-2.8,3.6-6.3c1.9-3.5,3.6-6.2,3.5-6.3c-0.2-0.1-2.2,2.5-4.1,6
				C90.4,504.6,89.3,507.7,89.5,507.8z"/>
			<path class="st0" d="M86.8,507c0.2,0.1,1.5-2.2,3.1-5c1.6-2.8,3-5.1,2.9-5.2c-0.2-0.1-1.9,2-3.5,4.8
				C87.5,504.4,86.6,506.9,86.8,507z"/>
			<path class="st0" d="M102,496.2c0.1,0.2,2.5-1.8,5.3-4.3c2.8-2.5,5-4.6,4.9-4.8c-0.1-0.2-2.6,1.7-5.4,4.2
				C104,493.8,101.9,496,102,496.2z"/>
			<path class="st0" d="M104.6,490.6c0.1,0.2,1.7-1,3.5-2.5c1.8-1.5,3.3-2.7,3.1-2.9c-0.1-0.2-1.8,0.8-3.6,2.3
				C105.7,489.1,104.4,490.5,104.6,490.6z"/>
			
				<ellipse transform="matrix(0.6124 -0.7905 0.7905 0.6124 -333.4341 266.6048)" class="st0" cx="105.2" cy="473.4" rx="4" ry="0.4"/>
			<path class="st0" d="M101,474.9c0.1,0.1,1.4-0.9,2.6-2.4c1.3-1.5,2.1-2.9,1.9-3c-0.2-0.1-1.2,1.1-2.5,2.6
				C101.8,473.5,100.8,474.7,101,474.9z"/>
			<path class="st0" d="M99.2,471.8c0.1,0.2,1.2-0.6,2.3-1.8c1-1.2,1.6-2.3,1.5-2.4c-0.2-0.1-1,0.8-2,1.9
				C99.9,470.7,99,471.6,99.2,471.8z"/>
			
				<ellipse transform="matrix(0.6076 -0.7942 0.7942 0.6076 -331.6513 260.8044)" class="st0" cx="98.1" cy="466.1" rx="2.5" ry="0.4"/>
			<path class="st0" d="M96.1,458.8c0.1,0.2,2.3-1.4,4.8-3.6c2.5-2.2,4.3-4.2,4.2-4.4c-0.1-0.2-2.2,1.6-4.7,3.8
				C97.9,456.8,95.9,458.7,96.1,458.8z"/>
			
				<ellipse transform="matrix(0.7504 -0.661 0.661 0.7504 -275.5325 177.5515)" class="st0" cx="97.3" cy="453.6" rx="7.7" ry="0.4"/>
			
				<ellipse transform="matrix(0.5573 -0.8303 0.8303 0.5573 -332.827 271.6979)" class="st0" cx="88.4" cy="447.9" rx="4.6" ry="0.4"/>
			<path class="st0" d="M83.9,448.9c0.2,0.1,1.1-0.8,2-2.2c0.9-1.4,1.2-2.7,1-2.8c-0.2-0.1-0.8,1-1.7,2.4
				C84.4,447.7,83.8,448.8,83.9,448.9z"/>
			<path class="st0" d="M84.2,516.5c-0.2,0,0,2.6,0.4,5.7c0.4,3.1,0.8,5.6,1,5.6c0.2,0,0.1-2.6-0.2-5.7
				C85,519,84.4,516.5,84.2,516.5z"/>
			<path class="st0" d="M82.2,517.9c-0.2,0-0.1,2.6,0,5.7c0.1,3.1,0.1,5.7,0.3,5.7c0.2,0,0.5-2.5,0.5-5.7
				C82.9,520.5,82.4,517.9,82.2,517.9z"/>
			<path class="st0" d="M79.3,513.1c-0.2,0-0.3,4.6-0.4,10.3c-0.1,5.7-0.2,10.3,0,10.3c0.1,0,0.3-1.1,0.4-3c0.1-1.9,0.3-4.4,0.3-7.3
				c0-2.8,0-5.4-0.1-7.3C79.5,514.2,79.4,513.1,79.3,513.1z"/>
			<path class="st0" d="M76,527c-0.2,0-0.4,1.8-0.4,4.1c0,2.2,0.3,4.1,0.5,4c0.2,0,0.3-1.8,0.2-4.1C76.3,528.8,76.3,527,76,527z"/>
			<path class="st0" d="M68.1,525.1c0.2,0.1,1.1-1.4,2.1-3.2c1-1.8,1.9-3.3,1.7-3.4c-0.2-0.1-1.3,1.2-2.4,3.1
				C68.5,523.4,67.9,525,68.1,525.1z"/>
			<path class="st0" d="M65.6,523c0.2,0.1,1.9-2,3.7-4.9c1.8-2.9,2.9-5.4,2.7-5.5c-0.2-0.1-1.6,2.3-3.3,5.1
				C66.9,520.6,65.4,522.9,65.6,523z"/>
			<path class="st0" d="M63.9,520.2c0.2,0.1,2.2-2.2,4.3-5.3c2.1-3.1,3.5-5.8,3.3-5.9c-0.2-0.1-1.9,2.4-3.9,5.5
				C65.4,517.6,63.7,520.1,63.9,520.2z"/>
			<path class="st0" d="M63,516.1c0.2,0.1,1.5-1.1,2.9-2.9c1.4-1.8,2.4-3.4,2.2-3.5c-0.2-0.1-1.4,1.3-2.8,3
				C63.9,514.4,62.8,515.9,63,516.1z"/>
			<path class="st0" d="M57.9,506c0.1,0.2,3-1.4,6.4-3.6c3.4-2.3,5.9-4.4,5.8-4.5c-0.1-0.2-2.8,1.6-6.2,3.9
				C60.5,504,57.8,505.8,57.9,506z"/>
			<path class="st0" d="M57.9,501.8c0.1,0.2,3.3-1.8,6.9-4.5c3.6-2.7,6.4-5.2,6.2-5.4c-0.1-0.2-3.1,2.1-6.7,4.8
				C60.7,499.4,57.8,501.6,57.9,501.8z"/>
			<path class="st0" d="M59.7,497.5c0.1,0.2,2.9-1.6,6-4.1c3.2-2.5,5.6-4.7,5.5-4.8c-0.1-0.2-2.7,1.8-5.9,4.2
				C62.1,495.3,59.5,497.4,59.7,497.5z"/>
			<path class="st0" d="M62.9,491.4c0.1,0.2,2-1.3,4.4-3c2.4-1.7,4.3-3.1,4.2-3.3c-0.1-0.2-2.3,0.9-4.7,2.7
				C64.4,489.5,62.7,491.2,62.9,491.4z"/>
			<ellipse transform="matrix(0.7801 -0.6256 0.6256 0.7801 -287.194 148.8997)" class="st0" cx="68.2" cy="483" rx="4" ry="0.4"/>
			
				<ellipse transform="matrix(0.7071 -0.7071 0.7071 0.7071 -317.1625 188.1203)" class="st0" cx="68.5" cy="476.9" rx="1.7" ry="0.4"/>
		</g>
		<polygon class="st0" points="138.4,422 134.4,434.2 121.6,434.2 132,441.8 128,454.1 138.4,446.5 148.8,454.1 144.9,441.8 
			155.3,434.2 142.4,434.2 		"/>
	</g>
</g>
</svg>
