<?xml version="1.0" encoding="utf-8"?>
<!-- Generator: Adobe Illustrator 26.0.2, SVG Export Plug-In . SVG Version: 6.00 Build 0)  -->
<svg version="1.1" id="Livello_1" xmlns="http://www.w3.org/2000/svg" xmlns:xlink="http://www.w3.org/1999/xlink" x="0px" y="0px"
	 viewBox="0 0 421.9 134.9" style="enable-background:new 0 0 421.9 134.9;" xml:space="preserve">
<style type="text/css">
	.st0{fill:#B14C42;}
	.st1{opacity:0.6;}
	.st2{opacity:0;fill:#D9D9D9;}
	.st3{fill:#EF7E62;}
	.st4{fill:#859C86;}
	.st5{fill:#ACBE82;}
	.st6{fill:#F8B26D;}
	.st7{fill:#657DB6;}
	.st8{fill:#6592AC;}
</style>
<rect x="4.86" y="4.46" class="st0" width="36.37" height="123.49"/>
<g class="st1">
	<rect x="4.86" y="6.76" class="st2" width="36.12" height="25.49"/>
</g>
<rect x="4.63" y="54.95" class="st3" width="80.1" height="33.42"/>
<rect x="4.63" y="4.46" class="st3" width="80.1" height="33.42"/>
<rect x="236.5" y="4.46" class="st4" width="36.37" height="123.49"/>
<rect x="236.27" y="94.35" class="st5" width="80.1" height="33.42"/>
<path class="st3" d="M159.28,3.79c-34.52,0-62.34,27.47-62.34,61.99c0,34.52,27.83,61.99,62.34,61.99
	c34.52,0,62.35-27.47,62.35-61.99C221.63,31.26,193.8,3.79,159.28,3.79z M159.28,106.07c-22.25,0-40.29-18.04-40.29-40.29
	c0-22.25,18.04-40.29,40.29-40.29c22.25,0,40.29,18.04,40.29,40.29C199.58,88.03,181.53,106.07,159.28,106.07z"/>
<path class="st6" d="M159.28,25.49c-22.25,0-40.29,18.04-40.29,40.29c0,22.25,18.04,40.29,40.29,40.29
	c22.25,0,40.29-18.04,40.29-40.29C199.58,43.53,181.53,25.49,159.28,25.49z M159.28,84.2c-10.17,0-18.42-8.25-18.42-18.42
	c0-10.17,8.25-18.42,18.42-18.42c10.17,0,18.42,8.25,18.42,18.42C177.7,75.95,169.45,84.2,159.28,84.2z"/>
<path class="st7" d="M401.59,101.84c-5.42,2.71-11.53,4.23-18,4.23c-22.25,0-40.29-18.04-40.29-40.29
	c0-22.25,18.04-40.29,40.29-40.29c6.61,0,12.85,1.59,18.35,4.41l12.91-17.85C405.68,6.79,395,3.79,383.6,3.79
	c-34.52,0-62.34,27.47-62.34,61.99c0,34.52,27.83,61.99,62.34,61.99c11.59,0,22.43-3.1,31.71-8.52"/>
<path class="st8" d="M388.09,83.65c-1.44,0.36-2.95,0.55-4.5,0.55c-10.17,0-18.42-8.25-18.42-18.42c0-10.17,8.25-18.42,18.42-18.42
	c1.91,0,3.75,0.29,5.48,0.83l12.88-18.29c-5.5-2.82-11.74-4.41-18.35-4.41c-22.25,0-40.29,18.04-40.29,40.29
	c0,22.25,18.04,40.29,40.29,40.29c6.47,0,12.58-1.52,18-4.23L388.09,83.65z"/>
</svg>
