<?xml version="1.0" encoding="utf-8"?>
<!-- Generator: Adobe Illustrator 25.0.0, SVG Export Plug-In . SVG Version: 6.00 Build 0)  -->
<svg version="1.1" id="Livello_1" xmlns="http://www.w3.org/2000/svg" xmlns:xlink="http://www.w3.org/1999/xlink" x="0px" y="0px"
	 viewBox="0 0 595.28 230" style="enable-background:new 0 0 595.28 230;" xml:space="preserve">
<style type="text/css">
	.st0{fill:#B14C42;}
	.st1{opacity:0.6;}
	.st2{opacity:0;fill:#D9D9D9;}
	.st3{fill:#EF7E62;}
	.st4{fill:#859C86;}
	.st5{fill:#ACBE82;}
	.st6{fill:#F8B26D;}
	.st7{fill:#FFFFFF;}
	.st8{fill:#657DB6;}
	.st9{fill:#6592AC;}
</style>
<rect x="30.3" y="32.85" class="st0" width="47.47" height="161.18"/>
<g class="st1">
	<rect x="30.29" y="35.85" class="st2" width="47.14" height="33.26"/>
</g>
<rect x="30" y="98.75" class="st3" width="104.55" height="43.63"/>
<rect x="30" y="32.85" class="st3" width="104.55" height="43.63"/>
<rect x="332.63" y="32.85" class="st4" width="47.47" height="161.18"/>
<rect x="332.33" y="150.17" class="st5" width="104.55" height="43.63"/>
<path class="st3" d="M231.84,31.97c-45.05,0-81.37,35.86-81.37,80.91c0,45.05,36.32,80.91,81.37,80.91
	c45.05,0,81.37-35.86,81.37-80.91C313.22,67.83,276.9,31.97,231.84,31.97z"/>
<path class="st6" d="M284.44,112.88c0,29.04-23.55,52.59-52.59,52.59s-52.59-23.55-52.59-52.59c0-29.05,23.55-52.59,52.59-52.59
	S284.44,83.83,284.44,112.88z"/>
<path class="st7" d="M255.89,112.88c0,13.28-10.76,24.04-24.04,24.04c-13.28,0-24.04-10.76-24.04-24.04
	c0-13.28,10.77-24.04,24.04-24.04C245.12,88.84,255.89,99.6,255.89,112.88z"/>
<path class="st8" d="M548.11,159.95c-7.07,3.53-15.05,5.52-23.49,5.52c-29.05,0-52.59-23.55-52.59-52.59
	c0-29.05,23.55-52.59,52.59-52.59c8.63,0,16.77,2.08,23.95,5.76l16.85-23.3c-11.98-6.87-25.92-10.78-40.81-10.78
	c-45.05,0-81.37,35.86-81.37,80.91c0,45.05,36.32,80.91,81.37,80.91c15.13,0,29.27-4.04,41.38-11.12"/>
<path class="st9" d="M530.49,136.2c-1.88,0.47-3.85,0.72-5.87,0.72c-13.28,0-24.04-10.76-24.04-24.04
	c0-13.28,10.77-24.04,24.04-24.04c2.49,0,4.89,0.38,7.15,1.08l16.81-23.87c-7.18-3.68-15.33-5.76-23.95-5.76
	c-29.05,0-52.59,23.55-52.59,52.59c0,29.04,23.55,52.59,52.59,52.59c8.44,0,16.42-1.99,23.49-5.52L530.49,136.2z"/>
</svg>
