<?xml version="1.0" encoding="utf-8"?>
<!-- Generator: Adobe Illustrator 26.0.1, SVG Export Plug-In . SVG Version: 6.00 Build 0)  -->
<svg version="1.1" id="Livello_1" xmlns="http://www.w3.org/2000/svg" xmlns:xlink="http://www.w3.org/1999/xlink" x="0px" y="0px"
	 viewBox="0 0 565.3 161.8" style="enable-background:new 0 0 565.3 161.8;" xml:space="preserve">
<style type="text/css">
	.st0{fill:#B14C42;}
	.st1{fill:#EF7E62;}
	.st2{fill:#859C86;}
	.st3{fill:#ACBE82;}
	.st4{fill:#F8B26D;}
	.st5{fill:#FFFFFF;}
	.st6{fill:#657DB6;}
	.st7{fill:#6592AC;}
</style>
<rect x="0.3" y="0.9" class="st0" width="47.5" height="161.2"/>
<rect y="66.8" class="st1" width="104.6" height="43.6"/>
<rect y="0.9" class="st1" width="104.6" height="43.6"/>
<rect x="302.6" y="0.9" class="st2" width="47.5" height="161.2"/>
<rect x="302.3" y="118.2" class="st3" width="104.6" height="43.6"/>
<path class="st1" d="M201.8,0c-45.1,0-81.4,35.9-81.4,80.9s36.3,80.9,81.4,80.9s81.4-35.9,81.4-80.9C283.2,35.9,246.9,0,201.8,0z"/>
<path class="st4" d="M254.4,80.9c0,29-23.5,52.6-52.6,52.6s-52.6-23.6-52.6-52.6c0-29.1,23.6-52.6,52.6-52.6S254.4,51.9,254.4,80.9z
	"/>
<path class="st5" d="M225.9,80.9c0,13.3-10.8,24-24,24s-24-10.8-24-24s10.8-24,24-24C215.1,56.9,225.9,67.6,225.9,80.9z"/>
<path class="st6" d="M518.1,128c-7.1,3.5-15,5.5-23.5,5.5c-29,0-52.6-23.6-52.6-52.6c0-29.1,23.5-52.6,52.6-52.6
	c8.6,0,16.8,2.1,24,5.8l16.8-23.3C523.4,3.9,509.5,0,494.6,0c-45,0-81.4,35.9-81.4,80.9s36.3,80.9,81.4,80.9
	c15.1,0,29.3-4,41.4-11.1"/>
<path class="st7" d="M500.5,104.2c-1.9,0.5-3.8,0.7-5.9,0.7c-13.3,0-24-10.8-24-24s10.8-24,24-24c2.5,0,4.9,0.4,7.2,1.1l16.8-23.9
	c-7.2-3.7-15.3-5.8-24-5.8c-29,0-52.6,23.6-52.6,52.6s23.5,52.6,52.6,52.6c8.4,0,16.4-2,23.5-5.5L500.5,104.2z"/>
</svg>
